M48
; DRILL file {KiCad 5.1.12-84ad8e8a86~92~ubuntu20.04.1} date So 12 Dez 2021 16:01:30 CET
; FORMAT={-:-/ absolute / metric / decimal}
; #@! TF.CreationDate,2021-12-12T16:01:30+01:00
; #@! TF.GenerationSoftware,Kicad,Pcbnew,5.1.12-84ad8e8a86~92~ubuntu20.04.1
; #@! TF.FileFunction,Plated,1,2,PTH
FMAT,2
METRIC
T1C0.400
T2C0.900
T3C0.990
T4C1.300
T5C3.200
%
G90
G05
T1
X4.856Y-54.54
X7.356Y-54.54
X13.556Y-19.09
X13.631Y-3.865
X13.631Y-12.865
X13.631Y-23.865
X13.631Y-48.6
X14.756Y-37.94
X15.556Y-19.94
X15.756Y-37.94
X16.856Y-9.64
X16.856Y-10.99
X16.856Y-21.34
X18.281Y-7.315
X18.281Y-19.715
X18.281Y-30.715
X18.456Y-34.64
X19.551Y-7.115
X19.551Y-19.715
X19.551Y-25.565
X20.756Y-15.14
X20.821Y-7.315
X20.821Y-19.715
X22.091Y-7.315
X22.106Y-15.19
X23.361Y-7.315
X23.901Y-23.865
X24.556Y-20.64
X24.631Y-11.165
X24.631Y-15.565
X25.901Y-5.765
X25.901Y-7.315
X25.901Y-16.315
X26.656Y-45.64
X27.056Y-20.14
X28.551Y-27.315
X28.706Y-36.94
X31.091Y-25.565
X31.091Y-30.715
X31.956Y-35.94
T2
X7.616Y-11.245
X7.616Y-14.015
X7.616Y-16.785
X7.616Y-19.555
X7.616Y-42.445
X7.616Y-45.215
X7.616Y-47.985
X7.616Y-50.755
X10.456Y-9.86
X10.456Y-12.63
X10.456Y-15.4
X10.456Y-18.17
X10.456Y-20.94
X10.456Y-41.06
X10.456Y-43.83
X10.456Y-46.6
X10.456Y-49.37
X10.456Y-52.14
X14.656Y-59.44
X14.656Y-61.98
X14.656Y-64.52
X14.692Y-70.58
X16.077Y-73.42
X17.196Y-59.44
X17.196Y-61.98
X17.196Y-64.52
X17.462Y-70.58
X18.847Y-73.42
X20.232Y-70.58
X20.456Y-41.94
X20.496Y-50.24
X21.156Y-59.44
X21.156Y-61.98
X21.156Y-64.52
X21.617Y-73.42
X22.996Y-41.94
X22.996Y-45.24
X23.002Y-70.58
X23.696Y-59.44
X23.696Y-61.98
X23.696Y-64.52
X24.387Y-73.42
X25.496Y-50.24
X25.536Y-41.94
X25.772Y-70.58
X27.656Y-59.44
X30.196Y-59.44
T3
X33.656Y-13.15
X33.656Y-17.65
X33.656Y-44.35
X33.656Y-48.85
T4
X31.166Y-11.9
X31.166Y-18.91
X31.166Y-43.1
X31.166Y-50.11
T5
X7.732Y-72.0
X9.036Y-2.9
X9.036Y-27.9
X9.036Y-34.1
X9.036Y-59.1
X32.732Y-72.0
T0
M30
