%TF.GenerationSoftware,KiCad,Pcbnew,5.1.12-84ad8e8a86~92~ubuntu20.04.1*%
%TF.CreationDate,2021-12-12T16:01:27+01:00*%
%TF.ProjectId,C64 Joystick Switcher,43363420-4a6f-4797-9374-69636b205377,rev?*%
%TF.SameCoordinates,PX5b1e2c0PY21e9a40*%
%TF.FileFunction,Copper,L1,Top*%
%TF.FilePolarity,Positive*%
%FSLAX46Y46*%
G04 Gerber Fmt 4.6, Leading zero omitted, Abs format (unit mm)*
G04 Created by KiCad (PCBNEW 5.1.12-84ad8e8a86~92~ubuntu20.04.1) date 2021-12-12 16:01:27*
%MOMM*%
%LPD*%
G01*
G04 APERTURE LIST*
%TA.AperFunction,ComponentPad*%
%ADD10C,1.620000*%
%TD*%
%TA.AperFunction,SMDPad,CuDef*%
%ADD11R,0.800000X0.900000*%
%TD*%
%TA.AperFunction,ComponentPad*%
%ADD12C,2.100000*%
%TD*%
%TA.AperFunction,ComponentPad*%
%ADD13C,1.750000*%
%TD*%
%TA.AperFunction,ComponentPad*%
%ADD14R,1.600000X1.600000*%
%TD*%
%TA.AperFunction,ComponentPad*%
%ADD15C,1.600000*%
%TD*%
%TA.AperFunction,ComponentPad*%
%ADD16C,4.800000*%
%TD*%
%TA.AperFunction,ComponentPad*%
%ADD17R,1.700000X1.700000*%
%TD*%
%TA.AperFunction,ComponentPad*%
%ADD18O,1.700000X1.700000*%
%TD*%
%TA.AperFunction,ViaPad*%
%ADD19C,0.900000*%
%TD*%
%TA.AperFunction,ViaPad*%
%ADD20C,0.800000*%
%TD*%
%TA.AperFunction,Conductor*%
%ADD21C,0.400000*%
%TD*%
%TA.AperFunction,Conductor*%
%ADD22C,0.250000*%
%TD*%
%TA.AperFunction,Conductor*%
%ADD23C,0.600000*%
%TD*%
%TA.AperFunction,Conductor*%
%ADD24C,0.900000*%
%TD*%
%TA.AperFunction,Conductor*%
%ADD25C,0.500000*%
%TD*%
G04 APERTURE END LIST*
%TO.P,C5,2*%
%TO.N,GND*%
%TA.AperFunction,SMDPad,CuDef*%
G36*
G01*
X14830999Y-35490000D02*
X15681001Y-35490000D01*
G75*
G02*
X15931000Y-35739999I0J-249999D01*
G01*
X15931000Y-36640001D01*
G75*
G02*
X15681001Y-36890000I-249999J0D01*
G01*
X14830999Y-36890000D01*
G75*
G02*
X14581000Y-36640001I0J249999D01*
G01*
X14581000Y-35739999D01*
G75*
G02*
X14830999Y-35490000I249999J0D01*
G01*
G37*
%TD.AperFunction*%
%TO.P,C5,1*%
%TO.N,Net-(C5-Pad1)*%
%TA.AperFunction,SMDPad,CuDef*%
G36*
G01*
X14830999Y-32790000D02*
X15681001Y-32790000D01*
G75*
G02*
X15931000Y-33039999I0J-249999D01*
G01*
X15931000Y-33940001D01*
G75*
G02*
X15681001Y-34190000I-249999J0D01*
G01*
X14830999Y-34190000D01*
G75*
G02*
X14581000Y-33940001I0J249999D01*
G01*
X14581000Y-33039999D01*
G75*
G02*
X14830999Y-32790000I249999J0D01*
G01*
G37*
%TD.AperFunction*%
%TD*%
D10*
%TO.P,RV1,1*%
%TO.N,Net-(RV1-Pad1)*%
X25496000Y-50240000D03*
%TO.P,RV1,2*%
%TO.N,Net-(R8-Pad2)*%
X22996000Y-45240000D03*
%TO.P,RV1,3*%
%TO.N,VCC*%
X20496000Y-50240000D03*
%TD*%
D11*
%TO.P,Q1,3*%
%TO.N,ALT_FIRE*%
X26756000Y-34940000D03*
%TO.P,Q1,2*%
%TO.N,GND*%
X27706000Y-36940000D03*
%TO.P,Q1,1*%
%TO.N,Net-(Q1-Pad1)*%
X25806000Y-36940000D03*
%TD*%
%TO.P,D2,2*%
%TO.N,PORT*%
%TA.AperFunction,SMDPad,CuDef*%
G36*
G01*
X15106000Y-46343750D02*
X15106000Y-46856250D01*
G75*
G02*
X14887250Y-47075000I-218750J0D01*
G01*
X14449750Y-47075000D01*
G75*
G02*
X14231000Y-46856250I0J218750D01*
G01*
X14231000Y-46343750D01*
G75*
G02*
X14449750Y-46125000I218750J0D01*
G01*
X14887250Y-46125000D01*
G75*
G02*
X15106000Y-46343750I0J-218750D01*
G01*
G37*
%TD.AperFunction*%
%TO.P,D2,1*%
%TO.N,Net-(D2-Pad1)*%
%TA.AperFunction,SMDPad,CuDef*%
G36*
G01*
X16681000Y-46343750D02*
X16681000Y-46856250D01*
G75*
G02*
X16462250Y-47075000I-218750J0D01*
G01*
X16024750Y-47075000D01*
G75*
G02*
X15806000Y-46856250I0J218750D01*
G01*
X15806000Y-46343750D01*
G75*
G02*
X16024750Y-46125000I218750J0D01*
G01*
X16462250Y-46125000D01*
G75*
G02*
X16681000Y-46343750I0J-218750D01*
G01*
G37*
%TD.AperFunction*%
%TD*%
%TO.P,D1,2*%
%TO.N,Net-(D1-Pad2)*%
%TA.AperFunction,SMDPad,CuDef*%
G36*
G01*
X15106000Y-15143750D02*
X15106000Y-15656250D01*
G75*
G02*
X14887250Y-15875000I-218750J0D01*
G01*
X14449750Y-15875000D01*
G75*
G02*
X14231000Y-15656250I0J218750D01*
G01*
X14231000Y-15143750D01*
G75*
G02*
X14449750Y-14925000I218750J0D01*
G01*
X14887250Y-14925000D01*
G75*
G02*
X15106000Y-15143750I0J-218750D01*
G01*
G37*
%TD.AperFunction*%
%TO.P,D1,1*%
%TO.N,PORT*%
%TA.AperFunction,SMDPad,CuDef*%
G36*
G01*
X16681000Y-15143750D02*
X16681000Y-15656250D01*
G75*
G02*
X16462250Y-15875000I-218750J0D01*
G01*
X16024750Y-15875000D01*
G75*
G02*
X15806000Y-15656250I0J218750D01*
G01*
X15806000Y-15143750D01*
G75*
G02*
X16024750Y-14925000I218750J0D01*
G01*
X16462250Y-14925000D01*
G75*
G02*
X16681000Y-15143750I0J-218750D01*
G01*
G37*
%TD.AperFunction*%
%TD*%
%TO.P,U4,8*%
%TO.N,VCC*%
%TA.AperFunction,SMDPad,CuDef*%
G36*
G01*
X18431000Y-24740000D02*
X18131000Y-24740000D01*
G75*
G02*
X17981000Y-24590000I0J150000D01*
G01*
X17981000Y-23140000D01*
G75*
G02*
X18131000Y-22990000I150000J0D01*
G01*
X18431000Y-22990000D01*
G75*
G02*
X18581000Y-23140000I0J-150000D01*
G01*
X18581000Y-24590000D01*
G75*
G02*
X18431000Y-24740000I-150000J0D01*
G01*
G37*
%TD.AperFunction*%
%TO.P,U4,7*%
%TO.N,Net-(R8-Pad2)*%
%TA.AperFunction,SMDPad,CuDef*%
G36*
G01*
X19701000Y-24740000D02*
X19401000Y-24740000D01*
G75*
G02*
X19251000Y-24590000I0J150000D01*
G01*
X19251000Y-23140000D01*
G75*
G02*
X19401000Y-22990000I150000J0D01*
G01*
X19701000Y-22990000D01*
G75*
G02*
X19851000Y-23140000I0J-150000D01*
G01*
X19851000Y-24590000D01*
G75*
G02*
X19701000Y-24740000I-150000J0D01*
G01*
G37*
%TD.AperFunction*%
%TO.P,U4,6*%
%TO.N,Net-(C5-Pad1)*%
%TA.AperFunction,SMDPad,CuDef*%
G36*
G01*
X20971000Y-24740000D02*
X20671000Y-24740000D01*
G75*
G02*
X20521000Y-24590000I0J150000D01*
G01*
X20521000Y-23140000D01*
G75*
G02*
X20671000Y-22990000I150000J0D01*
G01*
X20971000Y-22990000D01*
G75*
G02*
X21121000Y-23140000I0J-150000D01*
G01*
X21121000Y-24590000D01*
G75*
G02*
X20971000Y-24740000I-150000J0D01*
G01*
G37*
%TD.AperFunction*%
%TO.P,U4,5*%
%TO.N,Net-(U4-Pad5)*%
%TA.AperFunction,SMDPad,CuDef*%
G36*
G01*
X22241000Y-24740000D02*
X21941000Y-24740000D01*
G75*
G02*
X21791000Y-24590000I0J150000D01*
G01*
X21791000Y-23140000D01*
G75*
G02*
X21941000Y-22990000I150000J0D01*
G01*
X22241000Y-22990000D01*
G75*
G02*
X22391000Y-23140000I0J-150000D01*
G01*
X22391000Y-24590000D01*
G75*
G02*
X22241000Y-24740000I-150000J0D01*
G01*
G37*
%TD.AperFunction*%
%TO.P,U4,4*%
%TO.N,VCC*%
%TA.AperFunction,SMDPad,CuDef*%
G36*
G01*
X22241000Y-29890000D02*
X21941000Y-29890000D01*
G75*
G02*
X21791000Y-29740000I0J150000D01*
G01*
X21791000Y-28290000D01*
G75*
G02*
X21941000Y-28140000I150000J0D01*
G01*
X22241000Y-28140000D01*
G75*
G02*
X22391000Y-28290000I0J-150000D01*
G01*
X22391000Y-29740000D01*
G75*
G02*
X22241000Y-29890000I-150000J0D01*
G01*
G37*
%TD.AperFunction*%
%TO.P,U4,3*%
%TO.N,AUTOFIRE*%
%TA.AperFunction,SMDPad,CuDef*%
G36*
G01*
X20971000Y-29890000D02*
X20671000Y-29890000D01*
G75*
G02*
X20521000Y-29740000I0J150000D01*
G01*
X20521000Y-28290000D01*
G75*
G02*
X20671000Y-28140000I150000J0D01*
G01*
X20971000Y-28140000D01*
G75*
G02*
X21121000Y-28290000I0J-150000D01*
G01*
X21121000Y-29740000D01*
G75*
G02*
X20971000Y-29890000I-150000J0D01*
G01*
G37*
%TD.AperFunction*%
%TO.P,U4,2*%
%TO.N,Net-(C5-Pad1)*%
%TA.AperFunction,SMDPad,CuDef*%
G36*
G01*
X19701000Y-29890000D02*
X19401000Y-29890000D01*
G75*
G02*
X19251000Y-29740000I0J150000D01*
G01*
X19251000Y-28290000D01*
G75*
G02*
X19401000Y-28140000I150000J0D01*
G01*
X19701000Y-28140000D01*
G75*
G02*
X19851000Y-28290000I0J-150000D01*
G01*
X19851000Y-29740000D01*
G75*
G02*
X19701000Y-29890000I-150000J0D01*
G01*
G37*
%TD.AperFunction*%
%TO.P,U4,1*%
%TO.N,FIRE*%
%TA.AperFunction,SMDPad,CuDef*%
G36*
G01*
X18431000Y-29890000D02*
X18131000Y-29890000D01*
G75*
G02*
X17981000Y-29740000I0J150000D01*
G01*
X17981000Y-28290000D01*
G75*
G02*
X18131000Y-28140000I150000J0D01*
G01*
X18431000Y-28140000D01*
G75*
G02*
X18581000Y-28290000I0J-150000D01*
G01*
X18581000Y-29740000D01*
G75*
G02*
X18431000Y-29890000I-150000J0D01*
G01*
G37*
%TD.AperFunction*%
%TD*%
%TO.P,U3,8*%
%TO.N,VCC*%
%TA.AperFunction,SMDPad,CuDef*%
G36*
G01*
X28701000Y-24740000D02*
X28401000Y-24740000D01*
G75*
G02*
X28251000Y-24590000I0J150000D01*
G01*
X28251000Y-23140000D01*
G75*
G02*
X28401000Y-22990000I150000J0D01*
G01*
X28701000Y-22990000D01*
G75*
G02*
X28851000Y-23140000I0J-150000D01*
G01*
X28851000Y-24590000D01*
G75*
G02*
X28701000Y-24740000I-150000J0D01*
G01*
G37*
%TD.AperFunction*%
%TO.P,U3,7*%
%TO.N,Net-(U3-Pad7)*%
%TA.AperFunction,SMDPad,CuDef*%
G36*
G01*
X29971000Y-24740000D02*
X29671000Y-24740000D01*
G75*
G02*
X29521000Y-24590000I0J150000D01*
G01*
X29521000Y-23140000D01*
G75*
G02*
X29671000Y-22990000I150000J0D01*
G01*
X29971000Y-22990000D01*
G75*
G02*
X30121000Y-23140000I0J-150000D01*
G01*
X30121000Y-24590000D01*
G75*
G02*
X29971000Y-24740000I-150000J0D01*
G01*
G37*
%TD.AperFunction*%
%TO.P,U3,6*%
%TO.N,GND*%
%TA.AperFunction,SMDPad,CuDef*%
G36*
G01*
X31241000Y-24740000D02*
X30941000Y-24740000D01*
G75*
G02*
X30791000Y-24590000I0J150000D01*
G01*
X30791000Y-23140000D01*
G75*
G02*
X30941000Y-22990000I150000J0D01*
G01*
X31241000Y-22990000D01*
G75*
G02*
X31391000Y-23140000I0J-150000D01*
G01*
X31391000Y-24590000D01*
G75*
G02*
X31241000Y-24740000I-150000J0D01*
G01*
G37*
%TD.AperFunction*%
%TO.P,U3,5*%
%TO.N,Net-(U3-Pad5)*%
%TA.AperFunction,SMDPad,CuDef*%
G36*
G01*
X32511000Y-24740000D02*
X32211000Y-24740000D01*
G75*
G02*
X32061000Y-24590000I0J150000D01*
G01*
X32061000Y-23140000D01*
G75*
G02*
X32211000Y-22990000I150000J0D01*
G01*
X32511000Y-22990000D01*
G75*
G02*
X32661000Y-23140000I0J-150000D01*
G01*
X32661000Y-24590000D01*
G75*
G02*
X32511000Y-24740000I-150000J0D01*
G01*
G37*
%TD.AperFunction*%
%TO.P,U3,4*%
%TO.N,Net-(R1-Pad1)*%
%TA.AperFunction,SMDPad,CuDef*%
G36*
G01*
X32511000Y-29890000D02*
X32211000Y-29890000D01*
G75*
G02*
X32061000Y-29740000I0J150000D01*
G01*
X32061000Y-28290000D01*
G75*
G02*
X32211000Y-28140000I150000J0D01*
G01*
X32511000Y-28140000D01*
G75*
G02*
X32661000Y-28290000I0J-150000D01*
G01*
X32661000Y-29740000D01*
G75*
G02*
X32511000Y-29890000I-150000J0D01*
G01*
G37*
%TD.AperFunction*%
%TO.P,U3,3*%
%TO.N,PORT*%
%TA.AperFunction,SMDPad,CuDef*%
G36*
G01*
X31241000Y-29890000D02*
X30941000Y-29890000D01*
G75*
G02*
X30791000Y-29740000I0J150000D01*
G01*
X30791000Y-28290000D01*
G75*
G02*
X30941000Y-28140000I150000J0D01*
G01*
X31241000Y-28140000D01*
G75*
G02*
X31391000Y-28290000I0J-150000D01*
G01*
X31391000Y-29740000D01*
G75*
G02*
X31241000Y-29890000I-150000J0D01*
G01*
G37*
%TD.AperFunction*%
%TO.P,U3,2*%
%TO.N,Net-(R2-Pad1)*%
%TA.AperFunction,SMDPad,CuDef*%
G36*
G01*
X29971000Y-29890000D02*
X29671000Y-29890000D01*
G75*
G02*
X29521000Y-29740000I0J150000D01*
G01*
X29521000Y-28290000D01*
G75*
G02*
X29671000Y-28140000I150000J0D01*
G01*
X29971000Y-28140000D01*
G75*
G02*
X30121000Y-28290000I0J-150000D01*
G01*
X30121000Y-29740000D01*
G75*
G02*
X29971000Y-29890000I-150000J0D01*
G01*
G37*
%TD.AperFunction*%
%TO.P,U3,1*%
%TO.N,GND*%
%TA.AperFunction,SMDPad,CuDef*%
G36*
G01*
X28701000Y-29890000D02*
X28401000Y-29890000D01*
G75*
G02*
X28251000Y-29740000I0J150000D01*
G01*
X28251000Y-28290000D01*
G75*
G02*
X28401000Y-28140000I150000J0D01*
G01*
X28701000Y-28140000D01*
G75*
G02*
X28851000Y-28290000I0J-150000D01*
G01*
X28851000Y-29740000D01*
G75*
G02*
X28701000Y-29890000I-150000J0D01*
G01*
G37*
%TD.AperFunction*%
%TD*%
%TO.P,U2,16*%
%TO.N,VCC*%
%TA.AperFunction,SMDPad,CuDef*%
G36*
G01*
X18431000Y-4740000D02*
X18131000Y-4740000D01*
G75*
G02*
X17981000Y-4590000I0J150000D01*
G01*
X17981000Y-3140000D01*
G75*
G02*
X18131000Y-2990000I150000J0D01*
G01*
X18431000Y-2990000D01*
G75*
G02*
X18581000Y-3140000I0J-150000D01*
G01*
X18581000Y-4590000D01*
G75*
G02*
X18431000Y-4740000I-150000J0D01*
G01*
G37*
%TD.AperFunction*%
%TO.P,U2,15*%
%TO.N,UP*%
%TA.AperFunction,SMDPad,CuDef*%
G36*
G01*
X19701000Y-4740000D02*
X19401000Y-4740000D01*
G75*
G02*
X19251000Y-4590000I0J150000D01*
G01*
X19251000Y-3140000D01*
G75*
G02*
X19401000Y-2990000I150000J0D01*
G01*
X19701000Y-2990000D01*
G75*
G02*
X19851000Y-3140000I0J-150000D01*
G01*
X19851000Y-4590000D01*
G75*
G02*
X19701000Y-4740000I-150000J0D01*
G01*
G37*
%TD.AperFunction*%
%TO.P,U2,14*%
%TO.N,Net-(JP2-Pad2)*%
%TA.AperFunction,SMDPad,CuDef*%
G36*
G01*
X20971000Y-4740000D02*
X20671000Y-4740000D01*
G75*
G02*
X20521000Y-4590000I0J150000D01*
G01*
X20521000Y-3140000D01*
G75*
G02*
X20671000Y-2990000I150000J0D01*
G01*
X20971000Y-2990000D01*
G75*
G02*
X21121000Y-3140000I0J-150000D01*
G01*
X21121000Y-4590000D01*
G75*
G02*
X20971000Y-4740000I-150000J0D01*
G01*
G37*
%TD.AperFunction*%
%TO.P,U2,13*%
%TO.N,Net-(J1-Pad6)*%
%TA.AperFunction,SMDPad,CuDef*%
G36*
G01*
X22241000Y-4740000D02*
X21941000Y-4740000D01*
G75*
G02*
X21791000Y-4590000I0J150000D01*
G01*
X21791000Y-3140000D01*
G75*
G02*
X21941000Y-2990000I150000J0D01*
G01*
X22241000Y-2990000D01*
G75*
G02*
X22391000Y-3140000I0J-150000D01*
G01*
X22391000Y-4590000D01*
G75*
G02*
X22241000Y-4740000I-150000J0D01*
G01*
G37*
%TD.AperFunction*%
%TO.P,U2,12*%
%TO.N,Net-(J2-Pad6)*%
%TA.AperFunction,SMDPad,CuDef*%
G36*
G01*
X23511000Y-4740000D02*
X23211000Y-4740000D01*
G75*
G02*
X23061000Y-4590000I0J150000D01*
G01*
X23061000Y-3140000D01*
G75*
G02*
X23211000Y-2990000I150000J0D01*
G01*
X23511000Y-2990000D01*
G75*
G02*
X23661000Y-3140000I0J-150000D01*
G01*
X23661000Y-4590000D01*
G75*
G02*
X23511000Y-4740000I-150000J0D01*
G01*
G37*
%TD.AperFunction*%
%TO.P,U2,11*%
%TO.N,PORT*%
%TA.AperFunction,SMDPad,CuDef*%
G36*
G01*
X24781000Y-4740000D02*
X24481000Y-4740000D01*
G75*
G02*
X24331000Y-4590000I0J150000D01*
G01*
X24331000Y-3140000D01*
G75*
G02*
X24481000Y-2990000I150000J0D01*
G01*
X24781000Y-2990000D01*
G75*
G02*
X24931000Y-3140000I0J-150000D01*
G01*
X24931000Y-4590000D01*
G75*
G02*
X24781000Y-4740000I-150000J0D01*
G01*
G37*
%TD.AperFunction*%
%TO.P,U2,10*%
%TA.AperFunction,SMDPad,CuDef*%
G36*
G01*
X26051000Y-4740000D02*
X25751000Y-4740000D01*
G75*
G02*
X25601000Y-4590000I0J150000D01*
G01*
X25601000Y-3140000D01*
G75*
G02*
X25751000Y-2990000I150000J0D01*
G01*
X26051000Y-2990000D01*
G75*
G02*
X26201000Y-3140000I0J-150000D01*
G01*
X26201000Y-4590000D01*
G75*
G02*
X26051000Y-4740000I-150000J0D01*
G01*
G37*
%TD.AperFunction*%
%TO.P,U2,9*%
%TA.AperFunction,SMDPad,CuDef*%
G36*
G01*
X27321000Y-4740000D02*
X27021000Y-4740000D01*
G75*
G02*
X26871000Y-4590000I0J150000D01*
G01*
X26871000Y-3140000D01*
G75*
G02*
X27021000Y-2990000I150000J0D01*
G01*
X27321000Y-2990000D01*
G75*
G02*
X27471000Y-3140000I0J-150000D01*
G01*
X27471000Y-4590000D01*
G75*
G02*
X27321000Y-4740000I-150000J0D01*
G01*
G37*
%TD.AperFunction*%
%TO.P,U2,8*%
%TO.N,GND*%
%TA.AperFunction,SMDPad,CuDef*%
G36*
G01*
X27321000Y-9890000D02*
X27021000Y-9890000D01*
G75*
G02*
X26871000Y-9740000I0J150000D01*
G01*
X26871000Y-8290000D01*
G75*
G02*
X27021000Y-8140000I150000J0D01*
G01*
X27321000Y-8140000D01*
G75*
G02*
X27471000Y-8290000I0J-150000D01*
G01*
X27471000Y-9740000D01*
G75*
G02*
X27321000Y-9890000I-150000J0D01*
G01*
G37*
%TD.AperFunction*%
%TO.P,U2,7*%
%TA.AperFunction,SMDPad,CuDef*%
G36*
G01*
X26051000Y-9890000D02*
X25751000Y-9890000D01*
G75*
G02*
X25601000Y-9740000I0J150000D01*
G01*
X25601000Y-8290000D01*
G75*
G02*
X25751000Y-8140000I150000J0D01*
G01*
X26051000Y-8140000D01*
G75*
G02*
X26201000Y-8290000I0J-150000D01*
G01*
X26201000Y-9740000D01*
G75*
G02*
X26051000Y-9890000I-150000J0D01*
G01*
G37*
%TD.AperFunction*%
%TO.P,U2,6*%
%TA.AperFunction,SMDPad,CuDef*%
G36*
G01*
X24781000Y-9890000D02*
X24481000Y-9890000D01*
G75*
G02*
X24331000Y-9740000I0J150000D01*
G01*
X24331000Y-8290000D01*
G75*
G02*
X24481000Y-8140000I150000J0D01*
G01*
X24781000Y-8140000D01*
G75*
G02*
X24931000Y-8290000I0J-150000D01*
G01*
X24931000Y-9740000D01*
G75*
G02*
X24781000Y-9890000I-150000J0D01*
G01*
G37*
%TD.AperFunction*%
%TO.P,U2,5*%
%TO.N,Net-(J2-Pad9)*%
%TA.AperFunction,SMDPad,CuDef*%
G36*
G01*
X23511000Y-9890000D02*
X23211000Y-9890000D01*
G75*
G02*
X23061000Y-9740000I0J150000D01*
G01*
X23061000Y-8290000D01*
G75*
G02*
X23211000Y-8140000I150000J0D01*
G01*
X23511000Y-8140000D01*
G75*
G02*
X23661000Y-8290000I0J-150000D01*
G01*
X23661000Y-9740000D01*
G75*
G02*
X23511000Y-9890000I-150000J0D01*
G01*
G37*
%TD.AperFunction*%
%TO.P,U2,4*%
%TO.N,ALT_FIRE*%
%TA.AperFunction,SMDPad,CuDef*%
G36*
G01*
X22241000Y-9890000D02*
X21941000Y-9890000D01*
G75*
G02*
X21791000Y-9740000I0J150000D01*
G01*
X21791000Y-8290000D01*
G75*
G02*
X21941000Y-8140000I150000J0D01*
G01*
X22241000Y-8140000D01*
G75*
G02*
X22391000Y-8290000I0J-150000D01*
G01*
X22391000Y-9740000D01*
G75*
G02*
X22241000Y-9890000I-150000J0D01*
G01*
G37*
%TD.AperFunction*%
%TO.P,U2,3*%
%TO.N,Net-(J1-Pad9)*%
%TA.AperFunction,SMDPad,CuDef*%
G36*
G01*
X20971000Y-9890000D02*
X20671000Y-9890000D01*
G75*
G02*
X20521000Y-9740000I0J150000D01*
G01*
X20521000Y-8290000D01*
G75*
G02*
X20671000Y-8140000I150000J0D01*
G01*
X20971000Y-8140000D01*
G75*
G02*
X21121000Y-8290000I0J-150000D01*
G01*
X21121000Y-9740000D01*
G75*
G02*
X20971000Y-9890000I-150000J0D01*
G01*
G37*
%TD.AperFunction*%
%TO.P,U2,2*%
%TO.N,Net-(J2-Pad1)*%
%TA.AperFunction,SMDPad,CuDef*%
G36*
G01*
X19701000Y-9890000D02*
X19401000Y-9890000D01*
G75*
G02*
X19251000Y-9740000I0J150000D01*
G01*
X19251000Y-8290000D01*
G75*
G02*
X19401000Y-8140000I150000J0D01*
G01*
X19701000Y-8140000D01*
G75*
G02*
X19851000Y-8290000I0J-150000D01*
G01*
X19851000Y-9740000D01*
G75*
G02*
X19701000Y-9890000I-150000J0D01*
G01*
G37*
%TD.AperFunction*%
%TO.P,U2,1*%
%TO.N,Net-(J1-Pad1)*%
%TA.AperFunction,SMDPad,CuDef*%
G36*
G01*
X18431000Y-9890000D02*
X18131000Y-9890000D01*
G75*
G02*
X17981000Y-9740000I0J150000D01*
G01*
X17981000Y-8290000D01*
G75*
G02*
X18131000Y-8140000I150000J0D01*
G01*
X18431000Y-8140000D01*
G75*
G02*
X18581000Y-8290000I0J-150000D01*
G01*
X18581000Y-9740000D01*
G75*
G02*
X18431000Y-9890000I-150000J0D01*
G01*
G37*
%TD.AperFunction*%
%TD*%
%TO.P,U1,16*%
%TO.N,VCC*%
%TA.AperFunction,SMDPad,CuDef*%
G36*
G01*
X18431000Y-13740000D02*
X18131000Y-13740000D01*
G75*
G02*
X17981000Y-13590000I0J150000D01*
G01*
X17981000Y-12140000D01*
G75*
G02*
X18131000Y-11990000I150000J0D01*
G01*
X18431000Y-11990000D01*
G75*
G02*
X18581000Y-12140000I0J-150000D01*
G01*
X18581000Y-13590000D01*
G75*
G02*
X18431000Y-13740000I-150000J0D01*
G01*
G37*
%TD.AperFunction*%
%TO.P,U1,15*%
%TO.N,LEFT*%
%TA.AperFunction,SMDPad,CuDef*%
G36*
G01*
X19701000Y-13740000D02*
X19401000Y-13740000D01*
G75*
G02*
X19251000Y-13590000I0J150000D01*
G01*
X19251000Y-12140000D01*
G75*
G02*
X19401000Y-11990000I150000J0D01*
G01*
X19701000Y-11990000D01*
G75*
G02*
X19851000Y-12140000I0J-150000D01*
G01*
X19851000Y-13590000D01*
G75*
G02*
X19701000Y-13740000I-150000J0D01*
G01*
G37*
%TD.AperFunction*%
%TO.P,U1,14*%
%TO.N,RIGHT*%
%TA.AperFunction,SMDPad,CuDef*%
G36*
G01*
X20971000Y-13740000D02*
X20671000Y-13740000D01*
G75*
G02*
X20521000Y-13590000I0J150000D01*
G01*
X20521000Y-12140000D01*
G75*
G02*
X20671000Y-11990000I150000J0D01*
G01*
X20971000Y-11990000D01*
G75*
G02*
X21121000Y-12140000I0J-150000D01*
G01*
X21121000Y-13590000D01*
G75*
G02*
X20971000Y-13740000I-150000J0D01*
G01*
G37*
%TD.AperFunction*%
%TO.P,U1,13*%
%TO.N,Net-(J1-Pad4)*%
%TA.AperFunction,SMDPad,CuDef*%
G36*
G01*
X22241000Y-13740000D02*
X21941000Y-13740000D01*
G75*
G02*
X21791000Y-13590000I0J150000D01*
G01*
X21791000Y-12140000D01*
G75*
G02*
X21941000Y-11990000I150000J0D01*
G01*
X22241000Y-11990000D01*
G75*
G02*
X22391000Y-12140000I0J-150000D01*
G01*
X22391000Y-13590000D01*
G75*
G02*
X22241000Y-13740000I-150000J0D01*
G01*
G37*
%TD.AperFunction*%
%TO.P,U1,12*%
%TO.N,Net-(J2-Pad4)*%
%TA.AperFunction,SMDPad,CuDef*%
G36*
G01*
X23511000Y-13740000D02*
X23211000Y-13740000D01*
G75*
G02*
X23061000Y-13590000I0J150000D01*
G01*
X23061000Y-12140000D01*
G75*
G02*
X23211000Y-11990000I150000J0D01*
G01*
X23511000Y-11990000D01*
G75*
G02*
X23661000Y-12140000I0J-150000D01*
G01*
X23661000Y-13590000D01*
G75*
G02*
X23511000Y-13740000I-150000J0D01*
G01*
G37*
%TD.AperFunction*%
%TO.P,U1,11*%
%TO.N,PORT*%
%TA.AperFunction,SMDPad,CuDef*%
G36*
G01*
X24781000Y-13740000D02*
X24481000Y-13740000D01*
G75*
G02*
X24331000Y-13590000I0J150000D01*
G01*
X24331000Y-12140000D01*
G75*
G02*
X24481000Y-11990000I150000J0D01*
G01*
X24781000Y-11990000D01*
G75*
G02*
X24931000Y-12140000I0J-150000D01*
G01*
X24931000Y-13590000D01*
G75*
G02*
X24781000Y-13740000I-150000J0D01*
G01*
G37*
%TD.AperFunction*%
%TO.P,U1,10*%
%TA.AperFunction,SMDPad,CuDef*%
G36*
G01*
X26051000Y-13740000D02*
X25751000Y-13740000D01*
G75*
G02*
X25601000Y-13590000I0J150000D01*
G01*
X25601000Y-12140000D01*
G75*
G02*
X25751000Y-11990000I150000J0D01*
G01*
X26051000Y-11990000D01*
G75*
G02*
X26201000Y-12140000I0J-150000D01*
G01*
X26201000Y-13590000D01*
G75*
G02*
X26051000Y-13740000I-150000J0D01*
G01*
G37*
%TD.AperFunction*%
%TO.P,U1,9*%
%TA.AperFunction,SMDPad,CuDef*%
G36*
G01*
X27321000Y-13740000D02*
X27021000Y-13740000D01*
G75*
G02*
X26871000Y-13590000I0J150000D01*
G01*
X26871000Y-12140000D01*
G75*
G02*
X27021000Y-11990000I150000J0D01*
G01*
X27321000Y-11990000D01*
G75*
G02*
X27471000Y-12140000I0J-150000D01*
G01*
X27471000Y-13590000D01*
G75*
G02*
X27321000Y-13740000I-150000J0D01*
G01*
G37*
%TD.AperFunction*%
%TO.P,U1,8*%
%TO.N,GND*%
%TA.AperFunction,SMDPad,CuDef*%
G36*
G01*
X27321000Y-18890000D02*
X27021000Y-18890000D01*
G75*
G02*
X26871000Y-18740000I0J150000D01*
G01*
X26871000Y-17290000D01*
G75*
G02*
X27021000Y-17140000I150000J0D01*
G01*
X27321000Y-17140000D01*
G75*
G02*
X27471000Y-17290000I0J-150000D01*
G01*
X27471000Y-18740000D01*
G75*
G02*
X27321000Y-18890000I-150000J0D01*
G01*
G37*
%TD.AperFunction*%
%TO.P,U1,7*%
%TA.AperFunction,SMDPad,CuDef*%
G36*
G01*
X26051000Y-18890000D02*
X25751000Y-18890000D01*
G75*
G02*
X25601000Y-18740000I0J150000D01*
G01*
X25601000Y-17290000D01*
G75*
G02*
X25751000Y-17140000I150000J0D01*
G01*
X26051000Y-17140000D01*
G75*
G02*
X26201000Y-17290000I0J-150000D01*
G01*
X26201000Y-18740000D01*
G75*
G02*
X26051000Y-18890000I-150000J0D01*
G01*
G37*
%TD.AperFunction*%
%TO.P,U1,6*%
%TA.AperFunction,SMDPad,CuDef*%
G36*
G01*
X24781000Y-18890000D02*
X24481000Y-18890000D01*
G75*
G02*
X24331000Y-18740000I0J150000D01*
G01*
X24331000Y-17290000D01*
G75*
G02*
X24481000Y-17140000I150000J0D01*
G01*
X24781000Y-17140000D01*
G75*
G02*
X24931000Y-17290000I0J-150000D01*
G01*
X24931000Y-18740000D01*
G75*
G02*
X24781000Y-18890000I-150000J0D01*
G01*
G37*
%TD.AperFunction*%
%TO.P,U1,5*%
%TO.N,Net-(J2-Pad2)*%
%TA.AperFunction,SMDPad,CuDef*%
G36*
G01*
X23511000Y-18890000D02*
X23211000Y-18890000D01*
G75*
G02*
X23061000Y-18740000I0J150000D01*
G01*
X23061000Y-17290000D01*
G75*
G02*
X23211000Y-17140000I150000J0D01*
G01*
X23511000Y-17140000D01*
G75*
G02*
X23661000Y-17290000I0J-150000D01*
G01*
X23661000Y-18740000D01*
G75*
G02*
X23511000Y-18890000I-150000J0D01*
G01*
G37*
%TD.AperFunction*%
%TO.P,U1,4*%
%TO.N,DOWN*%
%TA.AperFunction,SMDPad,CuDef*%
G36*
G01*
X22241000Y-18890000D02*
X21941000Y-18890000D01*
G75*
G02*
X21791000Y-18740000I0J150000D01*
G01*
X21791000Y-17290000D01*
G75*
G02*
X21941000Y-17140000I150000J0D01*
G01*
X22241000Y-17140000D01*
G75*
G02*
X22391000Y-17290000I0J-150000D01*
G01*
X22391000Y-18740000D01*
G75*
G02*
X22241000Y-18890000I-150000J0D01*
G01*
G37*
%TD.AperFunction*%
%TO.P,U1,3*%
%TO.N,Net-(J1-Pad2)*%
%TA.AperFunction,SMDPad,CuDef*%
G36*
G01*
X20971000Y-18890000D02*
X20671000Y-18890000D01*
G75*
G02*
X20521000Y-18740000I0J150000D01*
G01*
X20521000Y-17290000D01*
G75*
G02*
X20671000Y-17140000I150000J0D01*
G01*
X20971000Y-17140000D01*
G75*
G02*
X21121000Y-17290000I0J-150000D01*
G01*
X21121000Y-18740000D01*
G75*
G02*
X20971000Y-18890000I-150000J0D01*
G01*
G37*
%TD.AperFunction*%
%TO.P,U1,2*%
%TO.N,Net-(J2-Pad3)*%
%TA.AperFunction,SMDPad,CuDef*%
G36*
G01*
X19701000Y-18890000D02*
X19401000Y-18890000D01*
G75*
G02*
X19251000Y-18740000I0J150000D01*
G01*
X19251000Y-17290000D01*
G75*
G02*
X19401000Y-17140000I150000J0D01*
G01*
X19701000Y-17140000D01*
G75*
G02*
X19851000Y-17290000I0J-150000D01*
G01*
X19851000Y-18740000D01*
G75*
G02*
X19701000Y-18890000I-150000J0D01*
G01*
G37*
%TD.AperFunction*%
%TO.P,U1,1*%
%TO.N,Net-(J1-Pad3)*%
%TA.AperFunction,SMDPad,CuDef*%
G36*
G01*
X18431000Y-18890000D02*
X18131000Y-18890000D01*
G75*
G02*
X17981000Y-18740000I0J150000D01*
G01*
X17981000Y-17290000D01*
G75*
G02*
X18131000Y-17140000I150000J0D01*
G01*
X18431000Y-17140000D01*
G75*
G02*
X18581000Y-17290000I0J-150000D01*
G01*
X18581000Y-18740000D01*
G75*
G02*
X18431000Y-18890000I-150000J0D01*
G01*
G37*
%TD.AperFunction*%
%TD*%
D12*
%TO.P,SW2,*%
%TO.N,*%
X31166000Y-11900000D03*
D13*
%TO.P,SW2,1*%
%TO.N,GND*%
X33656000Y-13150000D03*
%TO.P,SW2,2*%
%TO.N,Net-(R1-Pad1)*%
X33656000Y-17650000D03*
D12*
%TO.P,SW2,*%
%TO.N,*%
X31166000Y-18910000D03*
%TD*%
%TO.P,SW1,*%
%TO.N,*%
X31166000Y-43100000D03*
D13*
%TO.P,SW1,1*%
%TO.N,Net-(R2-Pad1)*%
X33656000Y-44350000D03*
%TO.P,SW1,2*%
%TO.N,GND*%
X33656000Y-48850000D03*
D12*
%TO.P,SW1,*%
%TO.N,*%
X31166000Y-50110000D03*
%TD*%
%TO.P,R8,2*%
%TO.N,Net-(R8-Pad2)*%
%TA.AperFunction,SMDPad,CuDef*%
G36*
G01*
X19816000Y-33365000D02*
X20366000Y-33365000D01*
G75*
G02*
X20566000Y-33565000I0J-200000D01*
G01*
X20566000Y-33965000D01*
G75*
G02*
X20366000Y-34165000I-200000J0D01*
G01*
X19816000Y-34165000D01*
G75*
G02*
X19616000Y-33965000I0J200000D01*
G01*
X19616000Y-33565000D01*
G75*
G02*
X19816000Y-33365000I200000J0D01*
G01*
G37*
%TD.AperFunction*%
%TO.P,R8,1*%
%TO.N,Net-(C5-Pad1)*%
%TA.AperFunction,SMDPad,CuDef*%
G36*
G01*
X19816000Y-31715000D02*
X20366000Y-31715000D01*
G75*
G02*
X20566000Y-31915000I0J-200000D01*
G01*
X20566000Y-32315000D01*
G75*
G02*
X20366000Y-32515000I-200000J0D01*
G01*
X19816000Y-32515000D01*
G75*
G02*
X19616000Y-32315000I0J200000D01*
G01*
X19616000Y-31915000D01*
G75*
G02*
X19816000Y-31715000I200000J0D01*
G01*
G37*
%TD.AperFunction*%
%TD*%
%TO.P,R7,2*%
%TO.N,Net-(Q1-Pad1)*%
%TA.AperFunction,SMDPad,CuDef*%
G36*
G01*
X22366000Y-36015000D02*
X21816000Y-36015000D01*
G75*
G02*
X21616000Y-35815000I0J200000D01*
G01*
X21616000Y-35415000D01*
G75*
G02*
X21816000Y-35215000I200000J0D01*
G01*
X22366000Y-35215000D01*
G75*
G02*
X22566000Y-35415000I0J-200000D01*
G01*
X22566000Y-35815000D01*
G75*
G02*
X22366000Y-36015000I-200000J0D01*
G01*
G37*
%TD.AperFunction*%
%TO.P,R7,1*%
%TO.N,Net-(J4-Pad6)*%
%TA.AperFunction,SMDPad,CuDef*%
G36*
G01*
X22366000Y-37665000D02*
X21816000Y-37665000D01*
G75*
G02*
X21616000Y-37465000I0J200000D01*
G01*
X21616000Y-37065000D01*
G75*
G02*
X21816000Y-36865000I200000J0D01*
G01*
X22366000Y-36865000D01*
G75*
G02*
X22566000Y-37065000I0J-200000D01*
G01*
X22566000Y-37465000D01*
G75*
G02*
X22366000Y-37665000I-200000J0D01*
G01*
G37*
%TD.AperFunction*%
%TD*%
%TO.P,R6,2*%
%TO.N,Net-(Q1-Pad1)*%
%TA.AperFunction,SMDPad,CuDef*%
G36*
G01*
X19816000Y-36865000D02*
X20366000Y-36865000D01*
G75*
G02*
X20566000Y-37065000I0J-200000D01*
G01*
X20566000Y-37465000D01*
G75*
G02*
X20366000Y-37665000I-200000J0D01*
G01*
X19816000Y-37665000D01*
G75*
G02*
X19616000Y-37465000I0J200000D01*
G01*
X19616000Y-37065000D01*
G75*
G02*
X19816000Y-36865000I200000J0D01*
G01*
G37*
%TD.AperFunction*%
%TO.P,R6,1*%
%TO.N,ALT_FIRE*%
%TA.AperFunction,SMDPad,CuDef*%
G36*
G01*
X19816000Y-35215000D02*
X20366000Y-35215000D01*
G75*
G02*
X20566000Y-35415000I0J-200000D01*
G01*
X20566000Y-35815000D01*
G75*
G02*
X20366000Y-36015000I-200000J0D01*
G01*
X19816000Y-36015000D01*
G75*
G02*
X19616000Y-35815000I0J200000D01*
G01*
X19616000Y-35415000D01*
G75*
G02*
X19816000Y-35215000I200000J0D01*
G01*
G37*
%TD.AperFunction*%
%TD*%
%TO.P,R5,2*%
%TO.N,VCC*%
%TA.AperFunction,SMDPad,CuDef*%
G36*
G01*
X22366000Y-32515000D02*
X21816000Y-32515000D01*
G75*
G02*
X21616000Y-32315000I0J200000D01*
G01*
X21616000Y-31915000D01*
G75*
G02*
X21816000Y-31715000I200000J0D01*
G01*
X22366000Y-31715000D01*
G75*
G02*
X22566000Y-31915000I0J-200000D01*
G01*
X22566000Y-32315000D01*
G75*
G02*
X22366000Y-32515000I-200000J0D01*
G01*
G37*
%TD.AperFunction*%
%TO.P,R5,1*%
%TO.N,ALT_FIRE*%
%TA.AperFunction,SMDPad,CuDef*%
G36*
G01*
X22366000Y-34165000D02*
X21816000Y-34165000D01*
G75*
G02*
X21616000Y-33965000I0J200000D01*
G01*
X21616000Y-33565000D01*
G75*
G02*
X21816000Y-33365000I200000J0D01*
G01*
X22366000Y-33365000D01*
G75*
G02*
X22566000Y-33565000I0J-200000D01*
G01*
X22566000Y-33965000D01*
G75*
G02*
X22366000Y-34165000I-200000J0D01*
G01*
G37*
%TD.AperFunction*%
%TD*%
%TO.P,R4,2*%
%TO.N,Net-(D2-Pad1)*%
%TA.AperFunction,SMDPad,CuDef*%
G36*
G01*
X15881000Y-48875000D02*
X15881000Y-48325000D01*
G75*
G02*
X16081000Y-48125000I200000J0D01*
G01*
X16481000Y-48125000D01*
G75*
G02*
X16681000Y-48325000I0J-200000D01*
G01*
X16681000Y-48875000D01*
G75*
G02*
X16481000Y-49075000I-200000J0D01*
G01*
X16081000Y-49075000D01*
G75*
G02*
X15881000Y-48875000I0J200000D01*
G01*
G37*
%TD.AperFunction*%
%TO.P,R4,1*%
%TO.N,GND*%
%TA.AperFunction,SMDPad,CuDef*%
G36*
G01*
X14231000Y-48875000D02*
X14231000Y-48325000D01*
G75*
G02*
X14431000Y-48125000I200000J0D01*
G01*
X14831000Y-48125000D01*
G75*
G02*
X15031000Y-48325000I0J-200000D01*
G01*
X15031000Y-48875000D01*
G75*
G02*
X14831000Y-49075000I-200000J0D01*
G01*
X14431000Y-49075000D01*
G75*
G02*
X14231000Y-48875000I0J200000D01*
G01*
G37*
%TD.AperFunction*%
%TD*%
%TO.P,R3,2*%
%TO.N,VCC*%
%TA.AperFunction,SMDPad,CuDef*%
G36*
G01*
X15031000Y-17125000D02*
X15031000Y-17675000D01*
G75*
G02*
X14831000Y-17875000I-200000J0D01*
G01*
X14431000Y-17875000D01*
G75*
G02*
X14231000Y-17675000I0J200000D01*
G01*
X14231000Y-17125000D01*
G75*
G02*
X14431000Y-16925000I200000J0D01*
G01*
X14831000Y-16925000D01*
G75*
G02*
X15031000Y-17125000I0J-200000D01*
G01*
G37*
%TD.AperFunction*%
%TO.P,R3,1*%
%TO.N,Net-(D1-Pad2)*%
%TA.AperFunction,SMDPad,CuDef*%
G36*
G01*
X16681000Y-17125000D02*
X16681000Y-17675000D01*
G75*
G02*
X16481000Y-17875000I-200000J0D01*
G01*
X16081000Y-17875000D01*
G75*
G02*
X15881000Y-17675000I0J200000D01*
G01*
X15881000Y-17125000D01*
G75*
G02*
X16081000Y-16925000I200000J0D01*
G01*
X16481000Y-16925000D01*
G75*
G02*
X16681000Y-17125000I0J-200000D01*
G01*
G37*
%TD.AperFunction*%
%TD*%
%TO.P,R2,2*%
%TO.N,VCC*%
%TA.AperFunction,SMDPad,CuDef*%
G36*
G01*
X30086000Y-33365000D02*
X30636000Y-33365000D01*
G75*
G02*
X30836000Y-33565000I0J-200000D01*
G01*
X30836000Y-33965000D01*
G75*
G02*
X30636000Y-34165000I-200000J0D01*
G01*
X30086000Y-34165000D01*
G75*
G02*
X29886000Y-33965000I0J200000D01*
G01*
X29886000Y-33565000D01*
G75*
G02*
X30086000Y-33365000I200000J0D01*
G01*
G37*
%TD.AperFunction*%
%TO.P,R2,1*%
%TO.N,Net-(R2-Pad1)*%
%TA.AperFunction,SMDPad,CuDef*%
G36*
G01*
X30086000Y-31715000D02*
X30636000Y-31715000D01*
G75*
G02*
X30836000Y-31915000I0J-200000D01*
G01*
X30836000Y-32315000D01*
G75*
G02*
X30636000Y-32515000I-200000J0D01*
G01*
X30086000Y-32515000D01*
G75*
G02*
X29886000Y-32315000I0J200000D01*
G01*
X29886000Y-31915000D01*
G75*
G02*
X30086000Y-31715000I200000J0D01*
G01*
G37*
%TD.AperFunction*%
%TD*%
%TO.P,R1,2*%
%TO.N,VCC*%
%TA.AperFunction,SMDPad,CuDef*%
G36*
G01*
X32086000Y-33365000D02*
X32636000Y-33365000D01*
G75*
G02*
X32836000Y-33565000I0J-200000D01*
G01*
X32836000Y-33965000D01*
G75*
G02*
X32636000Y-34165000I-200000J0D01*
G01*
X32086000Y-34165000D01*
G75*
G02*
X31886000Y-33965000I0J200000D01*
G01*
X31886000Y-33565000D01*
G75*
G02*
X32086000Y-33365000I200000J0D01*
G01*
G37*
%TD.AperFunction*%
%TO.P,R1,1*%
%TO.N,Net-(R1-Pad1)*%
%TA.AperFunction,SMDPad,CuDef*%
G36*
G01*
X32086000Y-31715000D02*
X32636000Y-31715000D01*
G75*
G02*
X32836000Y-31915000I0J-200000D01*
G01*
X32836000Y-32315000D01*
G75*
G02*
X32636000Y-32515000I-200000J0D01*
G01*
X32086000Y-32515000D01*
G75*
G02*
X31886000Y-32315000I0J200000D01*
G01*
X31886000Y-31915000D01*
G75*
G02*
X32086000Y-31715000I200000J0D01*
G01*
G37*
%TD.AperFunction*%
%TD*%
%TO.P,C4,2*%
%TO.N,GND*%
%TA.AperFunction,SMDPad,CuDef*%
G36*
G01*
X15131000Y-23615000D02*
X15131000Y-24115000D01*
G75*
G02*
X14906000Y-24340000I-225000J0D01*
G01*
X14456000Y-24340000D01*
G75*
G02*
X14231000Y-24115000I0J225000D01*
G01*
X14231000Y-23615000D01*
G75*
G02*
X14456000Y-23390000I225000J0D01*
G01*
X14906000Y-23390000D01*
G75*
G02*
X15131000Y-23615000I0J-225000D01*
G01*
G37*
%TD.AperFunction*%
%TO.P,C4,1*%
%TO.N,VCC*%
%TA.AperFunction,SMDPad,CuDef*%
G36*
G01*
X16681000Y-23615000D02*
X16681000Y-24115000D01*
G75*
G02*
X16456000Y-24340000I-225000J0D01*
G01*
X16006000Y-24340000D01*
G75*
G02*
X15781000Y-24115000I0J225000D01*
G01*
X15781000Y-23615000D01*
G75*
G02*
X16006000Y-23390000I225000J0D01*
G01*
X16456000Y-23390000D01*
G75*
G02*
X16681000Y-23615000I0J-225000D01*
G01*
G37*
%TD.AperFunction*%
%TD*%
%TO.P,C3,2*%
%TO.N,GND*%
%TA.AperFunction,SMDPad,CuDef*%
G36*
G01*
X25401000Y-23615000D02*
X25401000Y-24115000D01*
G75*
G02*
X25176000Y-24340000I-225000J0D01*
G01*
X24726000Y-24340000D01*
G75*
G02*
X24501000Y-24115000I0J225000D01*
G01*
X24501000Y-23615000D01*
G75*
G02*
X24726000Y-23390000I225000J0D01*
G01*
X25176000Y-23390000D01*
G75*
G02*
X25401000Y-23615000I0J-225000D01*
G01*
G37*
%TD.AperFunction*%
%TO.P,C3,1*%
%TO.N,VCC*%
%TA.AperFunction,SMDPad,CuDef*%
G36*
G01*
X26951000Y-23615000D02*
X26951000Y-24115000D01*
G75*
G02*
X26726000Y-24340000I-225000J0D01*
G01*
X26276000Y-24340000D01*
G75*
G02*
X26051000Y-24115000I0J225000D01*
G01*
X26051000Y-23615000D01*
G75*
G02*
X26276000Y-23390000I225000J0D01*
G01*
X26726000Y-23390000D01*
G75*
G02*
X26951000Y-23615000I0J-225000D01*
G01*
G37*
%TD.AperFunction*%
%TD*%
%TO.P,C2,2*%
%TO.N,GND*%
%TA.AperFunction,SMDPad,CuDef*%
G36*
G01*
X15131000Y-12615000D02*
X15131000Y-13115000D01*
G75*
G02*
X14906000Y-13340000I-225000J0D01*
G01*
X14456000Y-13340000D01*
G75*
G02*
X14231000Y-13115000I0J225000D01*
G01*
X14231000Y-12615000D01*
G75*
G02*
X14456000Y-12390000I225000J0D01*
G01*
X14906000Y-12390000D01*
G75*
G02*
X15131000Y-12615000I0J-225000D01*
G01*
G37*
%TD.AperFunction*%
%TO.P,C2,1*%
%TO.N,VCC*%
%TA.AperFunction,SMDPad,CuDef*%
G36*
G01*
X16681000Y-12615000D02*
X16681000Y-13115000D01*
G75*
G02*
X16456000Y-13340000I-225000J0D01*
G01*
X16006000Y-13340000D01*
G75*
G02*
X15781000Y-13115000I0J225000D01*
G01*
X15781000Y-12615000D01*
G75*
G02*
X16006000Y-12390000I225000J0D01*
G01*
X16456000Y-12390000D01*
G75*
G02*
X16681000Y-12615000I0J-225000D01*
G01*
G37*
%TD.AperFunction*%
%TD*%
%TO.P,C1,2*%
%TO.N,GND*%
%TA.AperFunction,SMDPad,CuDef*%
G36*
G01*
X15131000Y-3615000D02*
X15131000Y-4115000D01*
G75*
G02*
X14906000Y-4340000I-225000J0D01*
G01*
X14456000Y-4340000D01*
G75*
G02*
X14231000Y-4115000I0J225000D01*
G01*
X14231000Y-3615000D01*
G75*
G02*
X14456000Y-3390000I225000J0D01*
G01*
X14906000Y-3390000D01*
G75*
G02*
X15131000Y-3615000I0J-225000D01*
G01*
G37*
%TD.AperFunction*%
%TO.P,C1,1*%
%TO.N,VCC*%
%TA.AperFunction,SMDPad,CuDef*%
G36*
G01*
X16681000Y-3615000D02*
X16681000Y-4115000D01*
G75*
G02*
X16456000Y-4340000I-225000J0D01*
G01*
X16006000Y-4340000D01*
G75*
G02*
X15781000Y-4115000I0J225000D01*
G01*
X15781000Y-3615000D01*
G75*
G02*
X16006000Y-3390000I225000J0D01*
G01*
X16456000Y-3390000D01*
G75*
G02*
X16681000Y-3615000I0J-225000D01*
G01*
G37*
%TD.AperFunction*%
%TD*%
D14*
%TO.P,J2,1*%
%TO.N,Net-(J2-Pad1)*%
X10456000Y-20940000D03*
D15*
%TO.P,J2,2*%
%TO.N,Net-(J2-Pad2)*%
X10456000Y-18170000D03*
%TO.P,J2,3*%
%TO.N,Net-(J2-Pad3)*%
X10456000Y-15400000D03*
%TO.P,J2,4*%
%TO.N,Net-(J2-Pad4)*%
X10456000Y-12630000D03*
%TO.P,J2,5*%
%TO.N,Net-(J2-Pad5)*%
X10456000Y-9860000D03*
%TO.P,J2,6*%
%TO.N,Net-(J2-Pad6)*%
X7616000Y-19555000D03*
%TO.P,J2,7*%
%TO.N,VCC*%
X7616000Y-16785000D03*
%TO.P,J2,8*%
%TO.N,GND*%
X7616000Y-14015000D03*
%TO.P,J2,9*%
%TO.N,Net-(J2-Pad9)*%
X7616000Y-11245000D03*
D16*
%TO.P,J2,0*%
%TO.N,N/C*%
X9036000Y-2900000D03*
X9036000Y-27900000D03*
%TD*%
D14*
%TO.P,J1,1*%
%TO.N,Net-(J1-Pad1)*%
X10456000Y-52140000D03*
D15*
%TO.P,J1,2*%
%TO.N,Net-(J1-Pad2)*%
X10456000Y-49370000D03*
%TO.P,J1,3*%
%TO.N,Net-(J1-Pad3)*%
X10456000Y-46600000D03*
%TO.P,J1,4*%
%TO.N,Net-(J1-Pad4)*%
X10456000Y-43830000D03*
%TO.P,J1,5*%
%TO.N,Net-(J1-Pad5)*%
X10456000Y-41060000D03*
%TO.P,J1,6*%
%TO.N,Net-(J1-Pad6)*%
X7616000Y-50755000D03*
%TO.P,J1,7*%
%TO.N,VCC*%
X7616000Y-47985000D03*
%TO.P,J1,8*%
%TO.N,GND*%
X7616000Y-45215000D03*
%TO.P,J1,9*%
%TO.N,Net-(J1-Pad9)*%
X7616000Y-42445000D03*
D16*
%TO.P,J1,0*%
%TO.N,N/C*%
X9036000Y-34100000D03*
X9036000Y-59100000D03*
%TD*%
D14*
%TO.P,J3,1*%
%TO.N,/GP_UP*%
X14692000Y-70580000D03*
D15*
%TO.P,J3,2*%
%TO.N,DOWN*%
X17462000Y-70580000D03*
%TO.P,J3,3*%
%TO.N,LEFT*%
X20232000Y-70580000D03*
%TO.P,J3,4*%
%TO.N,RIGHT*%
X23002000Y-70580000D03*
%TO.P,J3,5*%
%TO.N,Net-(J3-Pad5)*%
X25772000Y-70580000D03*
%TO.P,J3,6*%
%TO.N,/GP_BTN_1*%
X16077000Y-73420000D03*
%TO.P,J3,7*%
%TO.N,VCC*%
X18847000Y-73420000D03*
%TO.P,J3,8*%
%TO.N,GND*%
X21617000Y-73420000D03*
%TO.P,J3,9*%
%TO.N,/GP_BTN_2*%
X24387000Y-73420000D03*
D16*
%TO.P,J3,0*%
%TO.N,N/C*%
X7732000Y-72000000D03*
X32732000Y-72000000D03*
%TD*%
D17*
%TO.P,JP1,1*%
%TO.N,UP*%
X27656000Y-59440000D03*
D18*
%TO.P,JP1,2*%
%TO.N,/GP_UP*%
X30196000Y-59440000D03*
%TD*%
D17*
%TO.P,J4,1*%
%TO.N,/GP_BTN_2*%
X21156000Y-59440000D03*
D18*
%TO.P,J4,2*%
%TO.N,UP*%
X23696000Y-59440000D03*
%TO.P,J4,3*%
%TO.N,/GP_BTN_2*%
X21156000Y-61980000D03*
%TO.P,J4,4*%
%TO.N,FIRE*%
X23696000Y-61980000D03*
%TO.P,J4,5*%
%TO.N,/GP_BTN_2*%
X21156000Y-64520000D03*
%TO.P,J4,6*%
%TO.N,Net-(J4-Pad6)*%
X23696000Y-64520000D03*
%TD*%
D17*
%TO.P,J5,1*%
%TO.N,/GP_BTN_1*%
X14656000Y-59440000D03*
D18*
%TO.P,J5,2*%
%TO.N,UP*%
X17196000Y-59440000D03*
%TO.P,J5,3*%
%TO.N,/GP_BTN_1*%
X14656000Y-61980000D03*
%TO.P,J5,4*%
%TO.N,FIRE*%
X17196000Y-61980000D03*
%TO.P,J5,5*%
%TO.N,/GP_BTN_1*%
X14656000Y-64520000D03*
%TO.P,J5,6*%
%TO.N,Net-(J4-Pad6)*%
X17196000Y-64520000D03*
%TD*%
D17*
%TO.P,JP2,1*%
%TO.N,AUTOFIRE*%
X20456000Y-41940000D03*
D18*
%TO.P,JP2,2*%
%TO.N,Net-(JP2-Pad2)*%
X22996000Y-41940000D03*
%TO.P,JP2,3*%
%TO.N,FIRE*%
X25536000Y-41940000D03*
%TD*%
D19*
%TO.N,PORT*%
X26656000Y-45640000D03*
D20*
X31091000Y-30715000D03*
X24631000Y-11165000D03*
X24631000Y-15565000D03*
D19*
%TO.N,GND*%
X25901000Y-16315000D03*
X23901000Y-23865000D03*
X13631000Y-23865000D03*
X13631000Y-12865000D03*
X13631000Y-3865000D03*
X13631000Y-48600000D03*
X28706000Y-36940000D03*
X31091000Y-25565000D03*
X28551000Y-27315000D03*
X25901000Y-7315000D03*
X14756000Y-37940000D03*
X15756000Y-37940000D03*
D20*
%TO.N,DOWN*%
X27056000Y-20140000D03*
%TO.N,LEFT*%
X20756000Y-15140000D03*
%TO.N,RIGHT*%
X22106000Y-15190000D03*
%TO.N,UP*%
X19551000Y-7115000D03*
%TO.N,FIRE*%
X18281000Y-30715000D03*
%TO.N,Net-(J1-Pad9)*%
X20821000Y-7315000D03*
X24556000Y-20640000D03*
%TO.N,Net-(J2-Pad9)*%
X23361000Y-7315000D03*
%TO.N,ALT_FIRE*%
X22091000Y-7315000D03*
X31956000Y-35940000D03*
%TO.N,Net-(J1-Pad1)*%
X18281000Y-7315000D03*
X15556000Y-19940000D03*
%TO.N,Net-(J1-Pad2)*%
X20821000Y-19715000D03*
%TO.N,Net-(J1-Pad3)*%
X18281000Y-19715000D03*
%TO.N,Net-(J1-Pad4)*%
X16856000Y-21340000D03*
D19*
%TO.N,Net-(J1-Pad6)*%
X4856000Y-54540000D03*
D20*
%TO.N,Net-(J2-Pad1)*%
X16856000Y-9640000D03*
X13556000Y-19090000D03*
%TO.N,Net-(J2-Pad3)*%
X19551000Y-19715000D03*
%TO.N,Net-(J2-Pad4)*%
X16856000Y-10990000D03*
%TO.N,Net-(J2-Pad6)*%
X25901000Y-5765000D03*
D19*
%TO.N,Net-(JP2-Pad2)*%
X7356000Y-54540000D03*
D20*
%TO.N,Net-(R8-Pad2)*%
X19551000Y-25565000D03*
X18456000Y-34640000D03*
%TD*%
D21*
%TO.N,PORT*%
X24631000Y-12865000D02*
X25901000Y-12865000D01*
X25901000Y-12865000D02*
X27171000Y-12865000D01*
D22*
X29756000Y-21140000D02*
X28656000Y-20040000D01*
X33356000Y-21940000D02*
X32556000Y-21140000D01*
X32556000Y-21140000D02*
X29756000Y-21140000D01*
X33356000Y-25440000D02*
X33356000Y-21940000D01*
X31091000Y-27705000D02*
X33356000Y-25440000D01*
X31091000Y-29015000D02*
X31091000Y-27705000D01*
D21*
X24631000Y-3865000D02*
X25901000Y-3865000D01*
X25901000Y-3865000D02*
X27171000Y-3865000D01*
D22*
X31091000Y-29015000D02*
X31091000Y-30715000D01*
X24856000Y-47440000D02*
X26656000Y-45640000D01*
X19856000Y-47440000D02*
X24856000Y-47440000D01*
X14956000Y-45340000D02*
X17756000Y-45340000D01*
X14668500Y-45627500D02*
X14956000Y-45340000D01*
X17756000Y-45340000D02*
X19856000Y-47440000D01*
X14668500Y-46600000D02*
X14668500Y-45627500D01*
X17316000Y-15400000D02*
X17956000Y-16040000D01*
X16243500Y-15400000D02*
X17316000Y-15400000D01*
X28656000Y-12865000D02*
X28656000Y-4340000D01*
X28181000Y-3865000D02*
X27171000Y-3865000D01*
X28656000Y-4340000D02*
X28181000Y-3865000D01*
X28656000Y-20040000D02*
X28656000Y-12865000D01*
X27171000Y-12865000D02*
X28656000Y-12865000D01*
X24631000Y-11165000D02*
X24631000Y-12865000D01*
X17956000Y-16040000D02*
X22756000Y-16040000D01*
X23231000Y-15565000D02*
X24631000Y-15565000D01*
X22756000Y-16040000D02*
X23231000Y-15565000D01*
%TO.N,Net-(D1-Pad2)*%
X16281000Y-17400000D02*
X16281000Y-16665000D01*
X16281000Y-16665000D02*
X16056000Y-16440000D01*
X16056000Y-16440000D02*
X14856000Y-16440000D01*
X14856000Y-16440000D02*
X14668500Y-16252500D01*
X14668500Y-16252500D02*
X14668500Y-15400000D01*
%TO.N,Net-(D2-Pad1)*%
X16281000Y-46637500D02*
X16243500Y-46600000D01*
X16281000Y-48600000D02*
X16281000Y-46637500D01*
D23*
%TO.N,VCC*%
X16231000Y-3865000D02*
X18281000Y-3865000D01*
X16231000Y-12865000D02*
X18281000Y-12865000D01*
X18281000Y-23865000D02*
X16231000Y-23865000D01*
X28551000Y-23865000D02*
X26501000Y-23865000D01*
D22*
X30361000Y-33765000D02*
X32361000Y-33765000D01*
X22091000Y-32115000D02*
X26501000Y-32115000D01*
X22091000Y-32115000D02*
X22091000Y-29015000D01*
D21*
X5756000Y-16785000D02*
X7616000Y-16785000D01*
X5756000Y-47985000D02*
X7616000Y-47985000D01*
X5756000Y-62840000D02*
X12056000Y-69140000D01*
X12056000Y-69140000D02*
X12056000Y-74140000D01*
X12056000Y-74140000D02*
X13356000Y-75440000D01*
X13356000Y-75440000D02*
X18847000Y-75440000D01*
X18847000Y-75440000D02*
X18847000Y-73420000D01*
X5756000Y-16785000D02*
X5756000Y-47985000D01*
X26501000Y-23865000D02*
X26501000Y-32115000D01*
X26501000Y-32785000D02*
X26501000Y-32115000D01*
X32361000Y-34940000D02*
X28656000Y-34940000D01*
X28656000Y-34940000D02*
X26501000Y-32785000D01*
X16096000Y-54640000D02*
X20496000Y-50240000D01*
X8456000Y-54640000D02*
X16096000Y-54640000D01*
X5756000Y-47985000D02*
X5756000Y-51140000D01*
X8456000Y-53840000D02*
X8456000Y-54640000D01*
X5756000Y-51140000D02*
X8456000Y-53840000D01*
X5756000Y-62840000D02*
X5756000Y-57840000D01*
X8456000Y-55140000D02*
X8456000Y-54640000D01*
X5756000Y-57840000D02*
X8456000Y-55140000D01*
D22*
X32361000Y-33765000D02*
X32361000Y-34940000D01*
D21*
X7616000Y-16785000D02*
X12611000Y-16785000D01*
D22*
X14631000Y-17400000D02*
X12816000Y-17400000D01*
X12611000Y-17195000D02*
X12611000Y-16785000D01*
X12816000Y-17400000D02*
X12611000Y-17195000D01*
D21*
X13556000Y-14440000D02*
X13556000Y-16440000D01*
X13956000Y-14040000D02*
X13556000Y-14440000D01*
X15856000Y-14040000D02*
X13956000Y-14040000D01*
X16231000Y-13665000D02*
X15856000Y-14040000D01*
X13211000Y-16785000D02*
X12611000Y-16785000D01*
X13556000Y-16440000D02*
X13211000Y-16785000D01*
X16231000Y-12865000D02*
X16231000Y-13665000D01*
X16231000Y-5065000D02*
X16231000Y-3865000D01*
X13456000Y-7840000D02*
X16231000Y-5065000D01*
X6456000Y-7840000D02*
X13456000Y-7840000D01*
X5756000Y-8540000D02*
X6456000Y-7840000D01*
X5756000Y-16785000D02*
X5756000Y-8540000D01*
X16231000Y-22665000D02*
X16231000Y-23865000D01*
X16556000Y-22340000D02*
X16231000Y-22665000D01*
X26156000Y-22340000D02*
X16556000Y-22340000D01*
X26501000Y-22685000D02*
X26156000Y-22340000D01*
X26501000Y-23865000D02*
X26501000Y-22685000D01*
X32956000Y-35340000D02*
X32556000Y-34940000D01*
X32956000Y-37340000D02*
X32956000Y-35340000D01*
X28756000Y-39940000D02*
X30556000Y-38140000D01*
X28756000Y-54840000D02*
X28756000Y-39940000D01*
X31956000Y-67140000D02*
X31956000Y-58040000D01*
X32156000Y-38140000D02*
X32956000Y-37340000D01*
X30556000Y-38140000D02*
X32156000Y-38140000D01*
X28756000Y-70340000D02*
X31956000Y-67140000D01*
X32556000Y-34940000D02*
X32361000Y-34940000D01*
X31956000Y-58040000D02*
X28756000Y-54840000D01*
X28756000Y-74240000D02*
X28756000Y-70340000D01*
X27556000Y-75440000D02*
X28756000Y-74240000D01*
X18847000Y-75440000D02*
X27556000Y-75440000D01*
%TO.N,GND*%
X24631000Y-18015000D02*
X25901000Y-18015000D01*
X25901000Y-18015000D02*
X27171000Y-18015000D01*
X25901000Y-18015000D02*
X25901000Y-16315000D01*
D23*
X23901000Y-23865000D02*
X24951000Y-23865000D01*
X14681000Y-23865000D02*
X13631000Y-23865000D01*
X14681000Y-3865000D02*
X13631000Y-3865000D01*
X14681000Y-12865000D02*
X13631000Y-12865000D01*
X13631000Y-48600000D02*
X14631000Y-48600000D01*
D21*
X27706000Y-36940000D02*
X28706000Y-36940000D01*
D24*
X15256000Y-37940000D02*
X15756000Y-37940000D01*
X15256000Y-36190000D02*
X15256000Y-37940000D01*
X14756000Y-37940000D02*
X15256000Y-37940000D01*
D21*
X31091000Y-23865000D02*
X31091000Y-25565000D01*
X25901000Y-9015000D02*
X25901000Y-7315000D01*
X28551000Y-29015000D02*
X28551000Y-27315000D01*
X25901000Y-9015000D02*
X27171000Y-9015000D01*
X25901000Y-9015000D02*
X24631000Y-9015000D01*
X12481000Y-14015000D02*
X13631000Y-12865000D01*
X7616000Y-14015000D02*
X12481000Y-14015000D01*
D22*
%TO.N,DOWN*%
X22091000Y-19475000D02*
X22091000Y-18015000D01*
X22356000Y-19740000D02*
X22091000Y-19475000D01*
X26056000Y-20140000D02*
X25656000Y-19740000D01*
X25656000Y-19740000D02*
X22356000Y-19740000D01*
X27056000Y-20140000D02*
X26056000Y-20140000D01*
%TO.N,LEFT*%
X20756000Y-15140000D02*
X19906000Y-15140000D01*
X19551000Y-14785000D02*
X19551000Y-12865000D01*
X19906000Y-15140000D02*
X19551000Y-14785000D01*
%TO.N,RIGHT*%
X22106000Y-15190000D02*
X22106000Y-14590000D01*
X22106000Y-14590000D02*
X21856000Y-14340000D01*
X21856000Y-14340000D02*
X21056000Y-14340000D01*
X20821000Y-14105000D02*
X20821000Y-12865000D01*
X21056000Y-14340000D02*
X20821000Y-14105000D01*
%TO.N,UP*%
X19551000Y-3865000D02*
X19551000Y-7115000D01*
X22426000Y-58170000D02*
X23696000Y-59440000D01*
X18466000Y-58170000D02*
X22426000Y-58170000D01*
X17196000Y-59440000D02*
X18466000Y-58170000D01*
%TO.N,FIRE*%
X18281000Y-29015000D02*
X18281000Y-30715000D01*
X22426000Y-60710000D02*
X23696000Y-61980000D01*
X18466000Y-60710000D02*
X22426000Y-60710000D01*
X17196000Y-61980000D02*
X18466000Y-60710000D01*
%TO.N,Net-(J1-Pad9)*%
X20821000Y-9015000D02*
X20821000Y-7315000D01*
X7616000Y-40480000D02*
X7616000Y-42445000D01*
X11856000Y-25740000D02*
X12256000Y-26140000D01*
X11856000Y-22240000D02*
X11856000Y-25740000D01*
X15056000Y-19040000D02*
X11856000Y-22240000D01*
X16856000Y-19040000D02*
X15056000Y-19040000D01*
X17256000Y-19440000D02*
X16856000Y-19040000D01*
X17256000Y-20140000D02*
X17256000Y-19440000D01*
X17756000Y-20640000D02*
X17256000Y-20140000D01*
X9356000Y-38740000D02*
X7616000Y-40480000D01*
X11356000Y-38740000D02*
X9356000Y-38740000D01*
X12256000Y-37840000D02*
X11356000Y-38740000D01*
X12256000Y-26140000D02*
X12256000Y-37840000D01*
X24556000Y-20640000D02*
X17756000Y-20640000D01*
%TO.N,Net-(J2-Pad9)*%
X23361000Y-9015000D02*
X23361000Y-7315000D01*
%TO.N,Net-(J4-Pad6)*%
X23696000Y-63250000D02*
X23696000Y-64520000D01*
X25146000Y-63250000D02*
X23696000Y-63250000D01*
X25656000Y-57140000D02*
X25656000Y-62740000D01*
X25656000Y-62740000D02*
X25146000Y-63250000D01*
X27956000Y-54840000D02*
X25656000Y-57140000D01*
X27956000Y-41740000D02*
X27956000Y-54840000D01*
X23481000Y-37265000D02*
X27956000Y-41740000D01*
X22091000Y-37265000D02*
X23481000Y-37265000D01*
X18466000Y-63250000D02*
X17196000Y-64520000D01*
X23696000Y-63250000D02*
X18466000Y-63250000D01*
%TO.N,ALT_FIRE*%
X25581000Y-33765000D02*
X26756000Y-34940000D01*
X22091000Y-33765000D02*
X25581000Y-33765000D01*
X26756000Y-34940000D02*
X27456000Y-34940000D01*
X28456000Y-35940000D02*
X31956000Y-35940000D01*
X27456000Y-34940000D02*
X28456000Y-35940000D01*
X22031000Y-33765000D02*
X22091000Y-33765000D01*
X20181000Y-35615000D02*
X22031000Y-33765000D01*
X20091000Y-35615000D02*
X20181000Y-35615000D01*
X22091000Y-9015000D02*
X22091000Y-7315000D01*
%TO.N,Net-(R1-Pad1)*%
X32361000Y-32115000D02*
X32361000Y-29015000D01*
X32361000Y-27735000D02*
X32361000Y-29015000D01*
X34656000Y-25440000D02*
X32361000Y-27735000D01*
X34656000Y-20840000D02*
X34656000Y-25440000D01*
X33656000Y-19840000D02*
X34656000Y-20840000D01*
X33656000Y-17650000D02*
X33656000Y-19840000D01*
%TO.N,Net-(R2-Pad1)*%
X30361000Y-32115000D02*
X31186000Y-32940000D01*
X31186000Y-32940000D02*
X33356000Y-32940000D01*
X33656000Y-33240000D02*
X33656000Y-44350000D01*
X33356000Y-32940000D02*
X33656000Y-33240000D01*
X30361000Y-31545000D02*
X29821000Y-31005000D01*
X29821000Y-31005000D02*
X29821000Y-29015000D01*
X30361000Y-32115000D02*
X30361000Y-31545000D01*
%TO.N,Net-(J1-Pad1)*%
X18281000Y-9015000D02*
X18281000Y-7315000D01*
X12256000Y-50340000D02*
X10456000Y-52140000D01*
X12256000Y-47440000D02*
X12256000Y-50340000D01*
X12856000Y-25840000D02*
X12856000Y-46840000D01*
X12456000Y-25440000D02*
X12856000Y-25840000D01*
X12456000Y-23040000D02*
X12456000Y-25440000D01*
X12856000Y-46840000D02*
X12256000Y-47440000D01*
X15556000Y-19940000D02*
X12456000Y-23040000D01*
%TO.N,Net-(J1-Pad2)*%
X20821000Y-18015000D02*
X20821000Y-19715000D01*
%TO.N,Net-(J1-Pad3)*%
X18281000Y-18015000D02*
X18281000Y-19715000D01*
%TO.N,Net-(J1-Pad4)*%
X28056000Y-21140000D02*
X27556000Y-21640000D01*
X28056000Y-15540000D02*
X28056000Y-21140000D01*
X26956000Y-14440000D02*
X28056000Y-15540000D01*
X22756000Y-14440000D02*
X26956000Y-14440000D01*
X22091000Y-13775000D02*
X22756000Y-14440000D01*
X22091000Y-12865000D02*
X22091000Y-13775000D01*
X21456000Y-21340000D02*
X16856000Y-21340000D01*
X21756000Y-21640000D02*
X21456000Y-21340000D01*
X27556000Y-21640000D02*
X21756000Y-21640000D01*
%TO.N,Net-(J1-Pad6)*%
X4256000Y-53940000D02*
X4856000Y-54540000D01*
X4256000Y-7840000D02*
X4256000Y-53940000D01*
X12056000Y-4640000D02*
X10556000Y-6140000D01*
X12056000Y-1840000D02*
X12056000Y-4640000D01*
X12856000Y-1040000D02*
X12056000Y-1840000D01*
X21456000Y-1040000D02*
X12856000Y-1040000D01*
X22091000Y-1675000D02*
X21456000Y-1040000D01*
X22091000Y-3865000D02*
X22091000Y-1675000D01*
X5956000Y-6140000D02*
X4256000Y-7840000D01*
X10556000Y-6140000D02*
X5956000Y-6140000D01*
%TO.N,Net-(J2-Pad1)*%
X19551000Y-9015000D02*
X19551000Y-10145000D01*
X19551000Y-10145000D02*
X19256000Y-10440000D01*
X17656000Y-10440000D02*
X16856000Y-9640000D01*
X19256000Y-10440000D02*
X17656000Y-10440000D01*
X11706000Y-20940000D02*
X13556000Y-19090000D01*
X10456000Y-20940000D02*
X11706000Y-20940000D01*
%TO.N,Net-(J2-Pad2)*%
X13986000Y-18170000D02*
X10456000Y-18170000D01*
X17206000Y-18090000D02*
X16856000Y-18440000D01*
X17206000Y-16940000D02*
X17206000Y-18090000D01*
X17506000Y-16640000D02*
X17206000Y-16940000D01*
X23106000Y-16640000D02*
X17506000Y-16640000D01*
X23361000Y-16895000D02*
X23106000Y-16640000D01*
X14256000Y-18440000D02*
X13986000Y-18170000D01*
X16856000Y-18440000D02*
X14256000Y-18440000D01*
X23361000Y-18015000D02*
X23361000Y-16895000D01*
%TO.N,Net-(J2-Pad3)*%
X19551000Y-18015000D02*
X19551000Y-19715000D01*
%TO.N,Net-(J2-Pad4)*%
X23361000Y-11295000D02*
X23361000Y-12865000D01*
X23056000Y-10990000D02*
X23361000Y-11295000D01*
X16856000Y-10990000D02*
X23056000Y-10990000D01*
%TO.N,Net-(J2-Pad6)*%
X23361000Y-3865000D02*
X23361000Y-5245000D01*
X23881000Y-5765000D02*
X23361000Y-5245000D01*
X25901000Y-5765000D02*
X23881000Y-5765000D01*
D25*
%TO.N,/GP_BTN_1*%
X14656000Y-59440000D02*
X14656000Y-61980000D01*
X14656000Y-61980000D02*
X14656000Y-64520000D01*
D22*
X16077000Y-65941000D02*
X14656000Y-64520000D01*
X16077000Y-73420000D02*
X16077000Y-65941000D01*
%TO.N,/GP_BTN_2*%
X24387000Y-67751000D02*
X21156000Y-64520000D01*
X24387000Y-73420000D02*
X24387000Y-67751000D01*
%TO.N,AUTOFIRE*%
X20456000Y-40490000D02*
X20456000Y-41940000D01*
X17456000Y-37490000D02*
X20456000Y-40490000D01*
X17456000Y-34340000D02*
X17456000Y-37490000D01*
X18856000Y-32940000D02*
X17456000Y-34340000D01*
X20806000Y-32940000D02*
X18856000Y-32940000D01*
X21056000Y-32690000D02*
X20806000Y-32940000D01*
X21056000Y-30940000D02*
X21056000Y-32690000D01*
X20821000Y-30705000D02*
X21056000Y-30940000D01*
X20821000Y-29015000D02*
X20821000Y-30705000D01*
%TO.N,Net-(C5-Pad1)*%
X20091000Y-32115000D02*
X20091000Y-31275000D01*
X19551000Y-30735000D02*
X19551000Y-29015000D01*
X20091000Y-31275000D02*
X19551000Y-30735000D01*
X20821000Y-26175000D02*
X20821000Y-23865000D01*
X19551000Y-27445000D02*
X20821000Y-26175000D01*
X19551000Y-29015000D02*
X19551000Y-27445000D01*
X16631000Y-32115000D02*
X15256000Y-33490000D01*
X20091000Y-32115000D02*
X16631000Y-32115000D01*
%TO.N,Net-(JP2-Pad2)*%
X20356000Y-1640000D02*
X20821000Y-2105000D01*
X13056000Y-1640000D02*
X20356000Y-1640000D01*
X12656000Y-2040000D02*
X13056000Y-1640000D01*
X10856000Y-6740000D02*
X12656000Y-4940000D01*
X20821000Y-2105000D02*
X20821000Y-3865000D01*
X6156000Y-6740000D02*
X10856000Y-6740000D01*
X12656000Y-4940000D02*
X12656000Y-2040000D01*
X4856000Y-8040000D02*
X6156000Y-6740000D01*
X4856000Y-52040000D02*
X4856000Y-8040000D01*
X7356000Y-54540000D02*
X4856000Y-52040000D01*
%TO.N,Net-(R8-Pad2)*%
X21726000Y-43970000D02*
X22996000Y-45240000D01*
X21726000Y-40710000D02*
X21726000Y-43970000D01*
X18456000Y-37440000D02*
X21726000Y-40710000D01*
X18456000Y-34640000D02*
X18456000Y-37440000D01*
X19551000Y-23865000D02*
X19551000Y-25565000D01*
X19156000Y-34640000D02*
X18456000Y-34640000D01*
X20031000Y-33765000D02*
X19156000Y-34640000D01*
X20091000Y-33765000D02*
X20031000Y-33765000D01*
%TO.N,Net-(Q1-Pad1)*%
X22031000Y-35615000D02*
X22091000Y-35615000D01*
X21206000Y-36440000D02*
X22031000Y-35615000D01*
X20956000Y-36440000D02*
X21206000Y-36440000D01*
X20131000Y-37265000D02*
X20956000Y-36440000D01*
X20091000Y-37265000D02*
X20131000Y-37265000D01*
X24481000Y-35615000D02*
X25806000Y-36940000D01*
X22091000Y-35615000D02*
X24481000Y-35615000D01*
%TD*%
M02*
