%TF.GenerationSoftware,KiCad,Pcbnew,5.1.12-84ad8e8a86~92~ubuntu20.04.1*%
%TF.CreationDate,2021-12-12T16:01:27+01:00*%
%TF.ProjectId,C64 Joystick Switcher,43363420-4a6f-4797-9374-69636b205377,rev?*%
%TF.SameCoordinates,PX5b1e2c0PY21e9a40*%
%TF.FileFunction,Paste,Top*%
%TF.FilePolarity,Positive*%
%FSLAX46Y46*%
G04 Gerber Fmt 4.6, Leading zero omitted, Abs format (unit mm)*
G04 Created by KiCad (PCBNEW 5.1.12-84ad8e8a86~92~ubuntu20.04.1) date 2021-12-12 16:01:27*
%MOMM*%
%LPD*%
G01*
G04 APERTURE LIST*
%ADD10R,0.800000X0.900000*%
G04 APERTURE END LIST*
%TO.C,C5*%
G36*
G01*
X14830999Y-35490000D02*
X15681001Y-35490000D01*
G75*
G02*
X15931000Y-35739999I0J-249999D01*
G01*
X15931000Y-36640001D01*
G75*
G02*
X15681001Y-36890000I-249999J0D01*
G01*
X14830999Y-36890000D01*
G75*
G02*
X14581000Y-36640001I0J249999D01*
G01*
X14581000Y-35739999D01*
G75*
G02*
X14830999Y-35490000I249999J0D01*
G01*
G37*
G36*
G01*
X14830999Y-32790000D02*
X15681001Y-32790000D01*
G75*
G02*
X15931000Y-33039999I0J-249999D01*
G01*
X15931000Y-33940001D01*
G75*
G02*
X15681001Y-34190000I-249999J0D01*
G01*
X14830999Y-34190000D01*
G75*
G02*
X14581000Y-33940001I0J249999D01*
G01*
X14581000Y-33039999D01*
G75*
G02*
X14830999Y-32790000I249999J0D01*
G01*
G37*
%TD*%
D10*
%TO.C,Q1*%
X26756000Y-34940000D03*
X27706000Y-36940000D03*
X25806000Y-36940000D03*
%TD*%
%TO.C,D2*%
G36*
G01*
X15106000Y-46343750D02*
X15106000Y-46856250D01*
G75*
G02*
X14887250Y-47075000I-218750J0D01*
G01*
X14449750Y-47075000D01*
G75*
G02*
X14231000Y-46856250I0J218750D01*
G01*
X14231000Y-46343750D01*
G75*
G02*
X14449750Y-46125000I218750J0D01*
G01*
X14887250Y-46125000D01*
G75*
G02*
X15106000Y-46343750I0J-218750D01*
G01*
G37*
G36*
G01*
X16681000Y-46343750D02*
X16681000Y-46856250D01*
G75*
G02*
X16462250Y-47075000I-218750J0D01*
G01*
X16024750Y-47075000D01*
G75*
G02*
X15806000Y-46856250I0J218750D01*
G01*
X15806000Y-46343750D01*
G75*
G02*
X16024750Y-46125000I218750J0D01*
G01*
X16462250Y-46125000D01*
G75*
G02*
X16681000Y-46343750I0J-218750D01*
G01*
G37*
%TD*%
%TO.C,D1*%
G36*
G01*
X15106000Y-15143750D02*
X15106000Y-15656250D01*
G75*
G02*
X14887250Y-15875000I-218750J0D01*
G01*
X14449750Y-15875000D01*
G75*
G02*
X14231000Y-15656250I0J218750D01*
G01*
X14231000Y-15143750D01*
G75*
G02*
X14449750Y-14925000I218750J0D01*
G01*
X14887250Y-14925000D01*
G75*
G02*
X15106000Y-15143750I0J-218750D01*
G01*
G37*
G36*
G01*
X16681000Y-15143750D02*
X16681000Y-15656250D01*
G75*
G02*
X16462250Y-15875000I-218750J0D01*
G01*
X16024750Y-15875000D01*
G75*
G02*
X15806000Y-15656250I0J218750D01*
G01*
X15806000Y-15143750D01*
G75*
G02*
X16024750Y-14925000I218750J0D01*
G01*
X16462250Y-14925000D01*
G75*
G02*
X16681000Y-15143750I0J-218750D01*
G01*
G37*
%TD*%
%TO.C,U4*%
G36*
G01*
X18431000Y-24740000D02*
X18131000Y-24740000D01*
G75*
G02*
X17981000Y-24590000I0J150000D01*
G01*
X17981000Y-23140000D01*
G75*
G02*
X18131000Y-22990000I150000J0D01*
G01*
X18431000Y-22990000D01*
G75*
G02*
X18581000Y-23140000I0J-150000D01*
G01*
X18581000Y-24590000D01*
G75*
G02*
X18431000Y-24740000I-150000J0D01*
G01*
G37*
G36*
G01*
X19701000Y-24740000D02*
X19401000Y-24740000D01*
G75*
G02*
X19251000Y-24590000I0J150000D01*
G01*
X19251000Y-23140000D01*
G75*
G02*
X19401000Y-22990000I150000J0D01*
G01*
X19701000Y-22990000D01*
G75*
G02*
X19851000Y-23140000I0J-150000D01*
G01*
X19851000Y-24590000D01*
G75*
G02*
X19701000Y-24740000I-150000J0D01*
G01*
G37*
G36*
G01*
X20971000Y-24740000D02*
X20671000Y-24740000D01*
G75*
G02*
X20521000Y-24590000I0J150000D01*
G01*
X20521000Y-23140000D01*
G75*
G02*
X20671000Y-22990000I150000J0D01*
G01*
X20971000Y-22990000D01*
G75*
G02*
X21121000Y-23140000I0J-150000D01*
G01*
X21121000Y-24590000D01*
G75*
G02*
X20971000Y-24740000I-150000J0D01*
G01*
G37*
G36*
G01*
X22241000Y-24740000D02*
X21941000Y-24740000D01*
G75*
G02*
X21791000Y-24590000I0J150000D01*
G01*
X21791000Y-23140000D01*
G75*
G02*
X21941000Y-22990000I150000J0D01*
G01*
X22241000Y-22990000D01*
G75*
G02*
X22391000Y-23140000I0J-150000D01*
G01*
X22391000Y-24590000D01*
G75*
G02*
X22241000Y-24740000I-150000J0D01*
G01*
G37*
G36*
G01*
X22241000Y-29890000D02*
X21941000Y-29890000D01*
G75*
G02*
X21791000Y-29740000I0J150000D01*
G01*
X21791000Y-28290000D01*
G75*
G02*
X21941000Y-28140000I150000J0D01*
G01*
X22241000Y-28140000D01*
G75*
G02*
X22391000Y-28290000I0J-150000D01*
G01*
X22391000Y-29740000D01*
G75*
G02*
X22241000Y-29890000I-150000J0D01*
G01*
G37*
G36*
G01*
X20971000Y-29890000D02*
X20671000Y-29890000D01*
G75*
G02*
X20521000Y-29740000I0J150000D01*
G01*
X20521000Y-28290000D01*
G75*
G02*
X20671000Y-28140000I150000J0D01*
G01*
X20971000Y-28140000D01*
G75*
G02*
X21121000Y-28290000I0J-150000D01*
G01*
X21121000Y-29740000D01*
G75*
G02*
X20971000Y-29890000I-150000J0D01*
G01*
G37*
G36*
G01*
X19701000Y-29890000D02*
X19401000Y-29890000D01*
G75*
G02*
X19251000Y-29740000I0J150000D01*
G01*
X19251000Y-28290000D01*
G75*
G02*
X19401000Y-28140000I150000J0D01*
G01*
X19701000Y-28140000D01*
G75*
G02*
X19851000Y-28290000I0J-150000D01*
G01*
X19851000Y-29740000D01*
G75*
G02*
X19701000Y-29890000I-150000J0D01*
G01*
G37*
G36*
G01*
X18431000Y-29890000D02*
X18131000Y-29890000D01*
G75*
G02*
X17981000Y-29740000I0J150000D01*
G01*
X17981000Y-28290000D01*
G75*
G02*
X18131000Y-28140000I150000J0D01*
G01*
X18431000Y-28140000D01*
G75*
G02*
X18581000Y-28290000I0J-150000D01*
G01*
X18581000Y-29740000D01*
G75*
G02*
X18431000Y-29890000I-150000J0D01*
G01*
G37*
%TD*%
%TO.C,U3*%
G36*
G01*
X28701000Y-24740000D02*
X28401000Y-24740000D01*
G75*
G02*
X28251000Y-24590000I0J150000D01*
G01*
X28251000Y-23140000D01*
G75*
G02*
X28401000Y-22990000I150000J0D01*
G01*
X28701000Y-22990000D01*
G75*
G02*
X28851000Y-23140000I0J-150000D01*
G01*
X28851000Y-24590000D01*
G75*
G02*
X28701000Y-24740000I-150000J0D01*
G01*
G37*
G36*
G01*
X29971000Y-24740000D02*
X29671000Y-24740000D01*
G75*
G02*
X29521000Y-24590000I0J150000D01*
G01*
X29521000Y-23140000D01*
G75*
G02*
X29671000Y-22990000I150000J0D01*
G01*
X29971000Y-22990000D01*
G75*
G02*
X30121000Y-23140000I0J-150000D01*
G01*
X30121000Y-24590000D01*
G75*
G02*
X29971000Y-24740000I-150000J0D01*
G01*
G37*
G36*
G01*
X31241000Y-24740000D02*
X30941000Y-24740000D01*
G75*
G02*
X30791000Y-24590000I0J150000D01*
G01*
X30791000Y-23140000D01*
G75*
G02*
X30941000Y-22990000I150000J0D01*
G01*
X31241000Y-22990000D01*
G75*
G02*
X31391000Y-23140000I0J-150000D01*
G01*
X31391000Y-24590000D01*
G75*
G02*
X31241000Y-24740000I-150000J0D01*
G01*
G37*
G36*
G01*
X32511000Y-24740000D02*
X32211000Y-24740000D01*
G75*
G02*
X32061000Y-24590000I0J150000D01*
G01*
X32061000Y-23140000D01*
G75*
G02*
X32211000Y-22990000I150000J0D01*
G01*
X32511000Y-22990000D01*
G75*
G02*
X32661000Y-23140000I0J-150000D01*
G01*
X32661000Y-24590000D01*
G75*
G02*
X32511000Y-24740000I-150000J0D01*
G01*
G37*
G36*
G01*
X32511000Y-29890000D02*
X32211000Y-29890000D01*
G75*
G02*
X32061000Y-29740000I0J150000D01*
G01*
X32061000Y-28290000D01*
G75*
G02*
X32211000Y-28140000I150000J0D01*
G01*
X32511000Y-28140000D01*
G75*
G02*
X32661000Y-28290000I0J-150000D01*
G01*
X32661000Y-29740000D01*
G75*
G02*
X32511000Y-29890000I-150000J0D01*
G01*
G37*
G36*
G01*
X31241000Y-29890000D02*
X30941000Y-29890000D01*
G75*
G02*
X30791000Y-29740000I0J150000D01*
G01*
X30791000Y-28290000D01*
G75*
G02*
X30941000Y-28140000I150000J0D01*
G01*
X31241000Y-28140000D01*
G75*
G02*
X31391000Y-28290000I0J-150000D01*
G01*
X31391000Y-29740000D01*
G75*
G02*
X31241000Y-29890000I-150000J0D01*
G01*
G37*
G36*
G01*
X29971000Y-29890000D02*
X29671000Y-29890000D01*
G75*
G02*
X29521000Y-29740000I0J150000D01*
G01*
X29521000Y-28290000D01*
G75*
G02*
X29671000Y-28140000I150000J0D01*
G01*
X29971000Y-28140000D01*
G75*
G02*
X30121000Y-28290000I0J-150000D01*
G01*
X30121000Y-29740000D01*
G75*
G02*
X29971000Y-29890000I-150000J0D01*
G01*
G37*
G36*
G01*
X28701000Y-29890000D02*
X28401000Y-29890000D01*
G75*
G02*
X28251000Y-29740000I0J150000D01*
G01*
X28251000Y-28290000D01*
G75*
G02*
X28401000Y-28140000I150000J0D01*
G01*
X28701000Y-28140000D01*
G75*
G02*
X28851000Y-28290000I0J-150000D01*
G01*
X28851000Y-29740000D01*
G75*
G02*
X28701000Y-29890000I-150000J0D01*
G01*
G37*
%TD*%
%TO.C,U2*%
G36*
G01*
X18431000Y-4740000D02*
X18131000Y-4740000D01*
G75*
G02*
X17981000Y-4590000I0J150000D01*
G01*
X17981000Y-3140000D01*
G75*
G02*
X18131000Y-2990000I150000J0D01*
G01*
X18431000Y-2990000D01*
G75*
G02*
X18581000Y-3140000I0J-150000D01*
G01*
X18581000Y-4590000D01*
G75*
G02*
X18431000Y-4740000I-150000J0D01*
G01*
G37*
G36*
G01*
X19701000Y-4740000D02*
X19401000Y-4740000D01*
G75*
G02*
X19251000Y-4590000I0J150000D01*
G01*
X19251000Y-3140000D01*
G75*
G02*
X19401000Y-2990000I150000J0D01*
G01*
X19701000Y-2990000D01*
G75*
G02*
X19851000Y-3140000I0J-150000D01*
G01*
X19851000Y-4590000D01*
G75*
G02*
X19701000Y-4740000I-150000J0D01*
G01*
G37*
G36*
G01*
X20971000Y-4740000D02*
X20671000Y-4740000D01*
G75*
G02*
X20521000Y-4590000I0J150000D01*
G01*
X20521000Y-3140000D01*
G75*
G02*
X20671000Y-2990000I150000J0D01*
G01*
X20971000Y-2990000D01*
G75*
G02*
X21121000Y-3140000I0J-150000D01*
G01*
X21121000Y-4590000D01*
G75*
G02*
X20971000Y-4740000I-150000J0D01*
G01*
G37*
G36*
G01*
X22241000Y-4740000D02*
X21941000Y-4740000D01*
G75*
G02*
X21791000Y-4590000I0J150000D01*
G01*
X21791000Y-3140000D01*
G75*
G02*
X21941000Y-2990000I150000J0D01*
G01*
X22241000Y-2990000D01*
G75*
G02*
X22391000Y-3140000I0J-150000D01*
G01*
X22391000Y-4590000D01*
G75*
G02*
X22241000Y-4740000I-150000J0D01*
G01*
G37*
G36*
G01*
X23511000Y-4740000D02*
X23211000Y-4740000D01*
G75*
G02*
X23061000Y-4590000I0J150000D01*
G01*
X23061000Y-3140000D01*
G75*
G02*
X23211000Y-2990000I150000J0D01*
G01*
X23511000Y-2990000D01*
G75*
G02*
X23661000Y-3140000I0J-150000D01*
G01*
X23661000Y-4590000D01*
G75*
G02*
X23511000Y-4740000I-150000J0D01*
G01*
G37*
G36*
G01*
X24781000Y-4740000D02*
X24481000Y-4740000D01*
G75*
G02*
X24331000Y-4590000I0J150000D01*
G01*
X24331000Y-3140000D01*
G75*
G02*
X24481000Y-2990000I150000J0D01*
G01*
X24781000Y-2990000D01*
G75*
G02*
X24931000Y-3140000I0J-150000D01*
G01*
X24931000Y-4590000D01*
G75*
G02*
X24781000Y-4740000I-150000J0D01*
G01*
G37*
G36*
G01*
X26051000Y-4740000D02*
X25751000Y-4740000D01*
G75*
G02*
X25601000Y-4590000I0J150000D01*
G01*
X25601000Y-3140000D01*
G75*
G02*
X25751000Y-2990000I150000J0D01*
G01*
X26051000Y-2990000D01*
G75*
G02*
X26201000Y-3140000I0J-150000D01*
G01*
X26201000Y-4590000D01*
G75*
G02*
X26051000Y-4740000I-150000J0D01*
G01*
G37*
G36*
G01*
X27321000Y-4740000D02*
X27021000Y-4740000D01*
G75*
G02*
X26871000Y-4590000I0J150000D01*
G01*
X26871000Y-3140000D01*
G75*
G02*
X27021000Y-2990000I150000J0D01*
G01*
X27321000Y-2990000D01*
G75*
G02*
X27471000Y-3140000I0J-150000D01*
G01*
X27471000Y-4590000D01*
G75*
G02*
X27321000Y-4740000I-150000J0D01*
G01*
G37*
G36*
G01*
X27321000Y-9890000D02*
X27021000Y-9890000D01*
G75*
G02*
X26871000Y-9740000I0J150000D01*
G01*
X26871000Y-8290000D01*
G75*
G02*
X27021000Y-8140000I150000J0D01*
G01*
X27321000Y-8140000D01*
G75*
G02*
X27471000Y-8290000I0J-150000D01*
G01*
X27471000Y-9740000D01*
G75*
G02*
X27321000Y-9890000I-150000J0D01*
G01*
G37*
G36*
G01*
X26051000Y-9890000D02*
X25751000Y-9890000D01*
G75*
G02*
X25601000Y-9740000I0J150000D01*
G01*
X25601000Y-8290000D01*
G75*
G02*
X25751000Y-8140000I150000J0D01*
G01*
X26051000Y-8140000D01*
G75*
G02*
X26201000Y-8290000I0J-150000D01*
G01*
X26201000Y-9740000D01*
G75*
G02*
X26051000Y-9890000I-150000J0D01*
G01*
G37*
G36*
G01*
X24781000Y-9890000D02*
X24481000Y-9890000D01*
G75*
G02*
X24331000Y-9740000I0J150000D01*
G01*
X24331000Y-8290000D01*
G75*
G02*
X24481000Y-8140000I150000J0D01*
G01*
X24781000Y-8140000D01*
G75*
G02*
X24931000Y-8290000I0J-150000D01*
G01*
X24931000Y-9740000D01*
G75*
G02*
X24781000Y-9890000I-150000J0D01*
G01*
G37*
G36*
G01*
X23511000Y-9890000D02*
X23211000Y-9890000D01*
G75*
G02*
X23061000Y-9740000I0J150000D01*
G01*
X23061000Y-8290000D01*
G75*
G02*
X23211000Y-8140000I150000J0D01*
G01*
X23511000Y-8140000D01*
G75*
G02*
X23661000Y-8290000I0J-150000D01*
G01*
X23661000Y-9740000D01*
G75*
G02*
X23511000Y-9890000I-150000J0D01*
G01*
G37*
G36*
G01*
X22241000Y-9890000D02*
X21941000Y-9890000D01*
G75*
G02*
X21791000Y-9740000I0J150000D01*
G01*
X21791000Y-8290000D01*
G75*
G02*
X21941000Y-8140000I150000J0D01*
G01*
X22241000Y-8140000D01*
G75*
G02*
X22391000Y-8290000I0J-150000D01*
G01*
X22391000Y-9740000D01*
G75*
G02*
X22241000Y-9890000I-150000J0D01*
G01*
G37*
G36*
G01*
X20971000Y-9890000D02*
X20671000Y-9890000D01*
G75*
G02*
X20521000Y-9740000I0J150000D01*
G01*
X20521000Y-8290000D01*
G75*
G02*
X20671000Y-8140000I150000J0D01*
G01*
X20971000Y-8140000D01*
G75*
G02*
X21121000Y-8290000I0J-150000D01*
G01*
X21121000Y-9740000D01*
G75*
G02*
X20971000Y-9890000I-150000J0D01*
G01*
G37*
G36*
G01*
X19701000Y-9890000D02*
X19401000Y-9890000D01*
G75*
G02*
X19251000Y-9740000I0J150000D01*
G01*
X19251000Y-8290000D01*
G75*
G02*
X19401000Y-8140000I150000J0D01*
G01*
X19701000Y-8140000D01*
G75*
G02*
X19851000Y-8290000I0J-150000D01*
G01*
X19851000Y-9740000D01*
G75*
G02*
X19701000Y-9890000I-150000J0D01*
G01*
G37*
G36*
G01*
X18431000Y-9890000D02*
X18131000Y-9890000D01*
G75*
G02*
X17981000Y-9740000I0J150000D01*
G01*
X17981000Y-8290000D01*
G75*
G02*
X18131000Y-8140000I150000J0D01*
G01*
X18431000Y-8140000D01*
G75*
G02*
X18581000Y-8290000I0J-150000D01*
G01*
X18581000Y-9740000D01*
G75*
G02*
X18431000Y-9890000I-150000J0D01*
G01*
G37*
%TD*%
%TO.C,U1*%
G36*
G01*
X18431000Y-13740000D02*
X18131000Y-13740000D01*
G75*
G02*
X17981000Y-13590000I0J150000D01*
G01*
X17981000Y-12140000D01*
G75*
G02*
X18131000Y-11990000I150000J0D01*
G01*
X18431000Y-11990000D01*
G75*
G02*
X18581000Y-12140000I0J-150000D01*
G01*
X18581000Y-13590000D01*
G75*
G02*
X18431000Y-13740000I-150000J0D01*
G01*
G37*
G36*
G01*
X19701000Y-13740000D02*
X19401000Y-13740000D01*
G75*
G02*
X19251000Y-13590000I0J150000D01*
G01*
X19251000Y-12140000D01*
G75*
G02*
X19401000Y-11990000I150000J0D01*
G01*
X19701000Y-11990000D01*
G75*
G02*
X19851000Y-12140000I0J-150000D01*
G01*
X19851000Y-13590000D01*
G75*
G02*
X19701000Y-13740000I-150000J0D01*
G01*
G37*
G36*
G01*
X20971000Y-13740000D02*
X20671000Y-13740000D01*
G75*
G02*
X20521000Y-13590000I0J150000D01*
G01*
X20521000Y-12140000D01*
G75*
G02*
X20671000Y-11990000I150000J0D01*
G01*
X20971000Y-11990000D01*
G75*
G02*
X21121000Y-12140000I0J-150000D01*
G01*
X21121000Y-13590000D01*
G75*
G02*
X20971000Y-13740000I-150000J0D01*
G01*
G37*
G36*
G01*
X22241000Y-13740000D02*
X21941000Y-13740000D01*
G75*
G02*
X21791000Y-13590000I0J150000D01*
G01*
X21791000Y-12140000D01*
G75*
G02*
X21941000Y-11990000I150000J0D01*
G01*
X22241000Y-11990000D01*
G75*
G02*
X22391000Y-12140000I0J-150000D01*
G01*
X22391000Y-13590000D01*
G75*
G02*
X22241000Y-13740000I-150000J0D01*
G01*
G37*
G36*
G01*
X23511000Y-13740000D02*
X23211000Y-13740000D01*
G75*
G02*
X23061000Y-13590000I0J150000D01*
G01*
X23061000Y-12140000D01*
G75*
G02*
X23211000Y-11990000I150000J0D01*
G01*
X23511000Y-11990000D01*
G75*
G02*
X23661000Y-12140000I0J-150000D01*
G01*
X23661000Y-13590000D01*
G75*
G02*
X23511000Y-13740000I-150000J0D01*
G01*
G37*
G36*
G01*
X24781000Y-13740000D02*
X24481000Y-13740000D01*
G75*
G02*
X24331000Y-13590000I0J150000D01*
G01*
X24331000Y-12140000D01*
G75*
G02*
X24481000Y-11990000I150000J0D01*
G01*
X24781000Y-11990000D01*
G75*
G02*
X24931000Y-12140000I0J-150000D01*
G01*
X24931000Y-13590000D01*
G75*
G02*
X24781000Y-13740000I-150000J0D01*
G01*
G37*
G36*
G01*
X26051000Y-13740000D02*
X25751000Y-13740000D01*
G75*
G02*
X25601000Y-13590000I0J150000D01*
G01*
X25601000Y-12140000D01*
G75*
G02*
X25751000Y-11990000I150000J0D01*
G01*
X26051000Y-11990000D01*
G75*
G02*
X26201000Y-12140000I0J-150000D01*
G01*
X26201000Y-13590000D01*
G75*
G02*
X26051000Y-13740000I-150000J0D01*
G01*
G37*
G36*
G01*
X27321000Y-13740000D02*
X27021000Y-13740000D01*
G75*
G02*
X26871000Y-13590000I0J150000D01*
G01*
X26871000Y-12140000D01*
G75*
G02*
X27021000Y-11990000I150000J0D01*
G01*
X27321000Y-11990000D01*
G75*
G02*
X27471000Y-12140000I0J-150000D01*
G01*
X27471000Y-13590000D01*
G75*
G02*
X27321000Y-13740000I-150000J0D01*
G01*
G37*
G36*
G01*
X27321000Y-18890000D02*
X27021000Y-18890000D01*
G75*
G02*
X26871000Y-18740000I0J150000D01*
G01*
X26871000Y-17290000D01*
G75*
G02*
X27021000Y-17140000I150000J0D01*
G01*
X27321000Y-17140000D01*
G75*
G02*
X27471000Y-17290000I0J-150000D01*
G01*
X27471000Y-18740000D01*
G75*
G02*
X27321000Y-18890000I-150000J0D01*
G01*
G37*
G36*
G01*
X26051000Y-18890000D02*
X25751000Y-18890000D01*
G75*
G02*
X25601000Y-18740000I0J150000D01*
G01*
X25601000Y-17290000D01*
G75*
G02*
X25751000Y-17140000I150000J0D01*
G01*
X26051000Y-17140000D01*
G75*
G02*
X26201000Y-17290000I0J-150000D01*
G01*
X26201000Y-18740000D01*
G75*
G02*
X26051000Y-18890000I-150000J0D01*
G01*
G37*
G36*
G01*
X24781000Y-18890000D02*
X24481000Y-18890000D01*
G75*
G02*
X24331000Y-18740000I0J150000D01*
G01*
X24331000Y-17290000D01*
G75*
G02*
X24481000Y-17140000I150000J0D01*
G01*
X24781000Y-17140000D01*
G75*
G02*
X24931000Y-17290000I0J-150000D01*
G01*
X24931000Y-18740000D01*
G75*
G02*
X24781000Y-18890000I-150000J0D01*
G01*
G37*
G36*
G01*
X23511000Y-18890000D02*
X23211000Y-18890000D01*
G75*
G02*
X23061000Y-18740000I0J150000D01*
G01*
X23061000Y-17290000D01*
G75*
G02*
X23211000Y-17140000I150000J0D01*
G01*
X23511000Y-17140000D01*
G75*
G02*
X23661000Y-17290000I0J-150000D01*
G01*
X23661000Y-18740000D01*
G75*
G02*
X23511000Y-18890000I-150000J0D01*
G01*
G37*
G36*
G01*
X22241000Y-18890000D02*
X21941000Y-18890000D01*
G75*
G02*
X21791000Y-18740000I0J150000D01*
G01*
X21791000Y-17290000D01*
G75*
G02*
X21941000Y-17140000I150000J0D01*
G01*
X22241000Y-17140000D01*
G75*
G02*
X22391000Y-17290000I0J-150000D01*
G01*
X22391000Y-18740000D01*
G75*
G02*
X22241000Y-18890000I-150000J0D01*
G01*
G37*
G36*
G01*
X20971000Y-18890000D02*
X20671000Y-18890000D01*
G75*
G02*
X20521000Y-18740000I0J150000D01*
G01*
X20521000Y-17290000D01*
G75*
G02*
X20671000Y-17140000I150000J0D01*
G01*
X20971000Y-17140000D01*
G75*
G02*
X21121000Y-17290000I0J-150000D01*
G01*
X21121000Y-18740000D01*
G75*
G02*
X20971000Y-18890000I-150000J0D01*
G01*
G37*
G36*
G01*
X19701000Y-18890000D02*
X19401000Y-18890000D01*
G75*
G02*
X19251000Y-18740000I0J150000D01*
G01*
X19251000Y-17290000D01*
G75*
G02*
X19401000Y-17140000I150000J0D01*
G01*
X19701000Y-17140000D01*
G75*
G02*
X19851000Y-17290000I0J-150000D01*
G01*
X19851000Y-18740000D01*
G75*
G02*
X19701000Y-18890000I-150000J0D01*
G01*
G37*
G36*
G01*
X18431000Y-18890000D02*
X18131000Y-18890000D01*
G75*
G02*
X17981000Y-18740000I0J150000D01*
G01*
X17981000Y-17290000D01*
G75*
G02*
X18131000Y-17140000I150000J0D01*
G01*
X18431000Y-17140000D01*
G75*
G02*
X18581000Y-17290000I0J-150000D01*
G01*
X18581000Y-18740000D01*
G75*
G02*
X18431000Y-18890000I-150000J0D01*
G01*
G37*
%TD*%
%TO.C,R8*%
G36*
G01*
X19816000Y-33365000D02*
X20366000Y-33365000D01*
G75*
G02*
X20566000Y-33565000I0J-200000D01*
G01*
X20566000Y-33965000D01*
G75*
G02*
X20366000Y-34165000I-200000J0D01*
G01*
X19816000Y-34165000D01*
G75*
G02*
X19616000Y-33965000I0J200000D01*
G01*
X19616000Y-33565000D01*
G75*
G02*
X19816000Y-33365000I200000J0D01*
G01*
G37*
G36*
G01*
X19816000Y-31715000D02*
X20366000Y-31715000D01*
G75*
G02*
X20566000Y-31915000I0J-200000D01*
G01*
X20566000Y-32315000D01*
G75*
G02*
X20366000Y-32515000I-200000J0D01*
G01*
X19816000Y-32515000D01*
G75*
G02*
X19616000Y-32315000I0J200000D01*
G01*
X19616000Y-31915000D01*
G75*
G02*
X19816000Y-31715000I200000J0D01*
G01*
G37*
%TD*%
%TO.C,R7*%
G36*
G01*
X22366000Y-36015000D02*
X21816000Y-36015000D01*
G75*
G02*
X21616000Y-35815000I0J200000D01*
G01*
X21616000Y-35415000D01*
G75*
G02*
X21816000Y-35215000I200000J0D01*
G01*
X22366000Y-35215000D01*
G75*
G02*
X22566000Y-35415000I0J-200000D01*
G01*
X22566000Y-35815000D01*
G75*
G02*
X22366000Y-36015000I-200000J0D01*
G01*
G37*
G36*
G01*
X22366000Y-37665000D02*
X21816000Y-37665000D01*
G75*
G02*
X21616000Y-37465000I0J200000D01*
G01*
X21616000Y-37065000D01*
G75*
G02*
X21816000Y-36865000I200000J0D01*
G01*
X22366000Y-36865000D01*
G75*
G02*
X22566000Y-37065000I0J-200000D01*
G01*
X22566000Y-37465000D01*
G75*
G02*
X22366000Y-37665000I-200000J0D01*
G01*
G37*
%TD*%
%TO.C,R6*%
G36*
G01*
X19816000Y-36865000D02*
X20366000Y-36865000D01*
G75*
G02*
X20566000Y-37065000I0J-200000D01*
G01*
X20566000Y-37465000D01*
G75*
G02*
X20366000Y-37665000I-200000J0D01*
G01*
X19816000Y-37665000D01*
G75*
G02*
X19616000Y-37465000I0J200000D01*
G01*
X19616000Y-37065000D01*
G75*
G02*
X19816000Y-36865000I200000J0D01*
G01*
G37*
G36*
G01*
X19816000Y-35215000D02*
X20366000Y-35215000D01*
G75*
G02*
X20566000Y-35415000I0J-200000D01*
G01*
X20566000Y-35815000D01*
G75*
G02*
X20366000Y-36015000I-200000J0D01*
G01*
X19816000Y-36015000D01*
G75*
G02*
X19616000Y-35815000I0J200000D01*
G01*
X19616000Y-35415000D01*
G75*
G02*
X19816000Y-35215000I200000J0D01*
G01*
G37*
%TD*%
%TO.C,R5*%
G36*
G01*
X22366000Y-32515000D02*
X21816000Y-32515000D01*
G75*
G02*
X21616000Y-32315000I0J200000D01*
G01*
X21616000Y-31915000D01*
G75*
G02*
X21816000Y-31715000I200000J0D01*
G01*
X22366000Y-31715000D01*
G75*
G02*
X22566000Y-31915000I0J-200000D01*
G01*
X22566000Y-32315000D01*
G75*
G02*
X22366000Y-32515000I-200000J0D01*
G01*
G37*
G36*
G01*
X22366000Y-34165000D02*
X21816000Y-34165000D01*
G75*
G02*
X21616000Y-33965000I0J200000D01*
G01*
X21616000Y-33565000D01*
G75*
G02*
X21816000Y-33365000I200000J0D01*
G01*
X22366000Y-33365000D01*
G75*
G02*
X22566000Y-33565000I0J-200000D01*
G01*
X22566000Y-33965000D01*
G75*
G02*
X22366000Y-34165000I-200000J0D01*
G01*
G37*
%TD*%
%TO.C,R4*%
G36*
G01*
X15881000Y-48875000D02*
X15881000Y-48325000D01*
G75*
G02*
X16081000Y-48125000I200000J0D01*
G01*
X16481000Y-48125000D01*
G75*
G02*
X16681000Y-48325000I0J-200000D01*
G01*
X16681000Y-48875000D01*
G75*
G02*
X16481000Y-49075000I-200000J0D01*
G01*
X16081000Y-49075000D01*
G75*
G02*
X15881000Y-48875000I0J200000D01*
G01*
G37*
G36*
G01*
X14231000Y-48875000D02*
X14231000Y-48325000D01*
G75*
G02*
X14431000Y-48125000I200000J0D01*
G01*
X14831000Y-48125000D01*
G75*
G02*
X15031000Y-48325000I0J-200000D01*
G01*
X15031000Y-48875000D01*
G75*
G02*
X14831000Y-49075000I-200000J0D01*
G01*
X14431000Y-49075000D01*
G75*
G02*
X14231000Y-48875000I0J200000D01*
G01*
G37*
%TD*%
%TO.C,R3*%
G36*
G01*
X15031000Y-17125000D02*
X15031000Y-17675000D01*
G75*
G02*
X14831000Y-17875000I-200000J0D01*
G01*
X14431000Y-17875000D01*
G75*
G02*
X14231000Y-17675000I0J200000D01*
G01*
X14231000Y-17125000D01*
G75*
G02*
X14431000Y-16925000I200000J0D01*
G01*
X14831000Y-16925000D01*
G75*
G02*
X15031000Y-17125000I0J-200000D01*
G01*
G37*
G36*
G01*
X16681000Y-17125000D02*
X16681000Y-17675000D01*
G75*
G02*
X16481000Y-17875000I-200000J0D01*
G01*
X16081000Y-17875000D01*
G75*
G02*
X15881000Y-17675000I0J200000D01*
G01*
X15881000Y-17125000D01*
G75*
G02*
X16081000Y-16925000I200000J0D01*
G01*
X16481000Y-16925000D01*
G75*
G02*
X16681000Y-17125000I0J-200000D01*
G01*
G37*
%TD*%
%TO.C,R2*%
G36*
G01*
X30086000Y-33365000D02*
X30636000Y-33365000D01*
G75*
G02*
X30836000Y-33565000I0J-200000D01*
G01*
X30836000Y-33965000D01*
G75*
G02*
X30636000Y-34165000I-200000J0D01*
G01*
X30086000Y-34165000D01*
G75*
G02*
X29886000Y-33965000I0J200000D01*
G01*
X29886000Y-33565000D01*
G75*
G02*
X30086000Y-33365000I200000J0D01*
G01*
G37*
G36*
G01*
X30086000Y-31715000D02*
X30636000Y-31715000D01*
G75*
G02*
X30836000Y-31915000I0J-200000D01*
G01*
X30836000Y-32315000D01*
G75*
G02*
X30636000Y-32515000I-200000J0D01*
G01*
X30086000Y-32515000D01*
G75*
G02*
X29886000Y-32315000I0J200000D01*
G01*
X29886000Y-31915000D01*
G75*
G02*
X30086000Y-31715000I200000J0D01*
G01*
G37*
%TD*%
%TO.C,R1*%
G36*
G01*
X32086000Y-33365000D02*
X32636000Y-33365000D01*
G75*
G02*
X32836000Y-33565000I0J-200000D01*
G01*
X32836000Y-33965000D01*
G75*
G02*
X32636000Y-34165000I-200000J0D01*
G01*
X32086000Y-34165000D01*
G75*
G02*
X31886000Y-33965000I0J200000D01*
G01*
X31886000Y-33565000D01*
G75*
G02*
X32086000Y-33365000I200000J0D01*
G01*
G37*
G36*
G01*
X32086000Y-31715000D02*
X32636000Y-31715000D01*
G75*
G02*
X32836000Y-31915000I0J-200000D01*
G01*
X32836000Y-32315000D01*
G75*
G02*
X32636000Y-32515000I-200000J0D01*
G01*
X32086000Y-32515000D01*
G75*
G02*
X31886000Y-32315000I0J200000D01*
G01*
X31886000Y-31915000D01*
G75*
G02*
X32086000Y-31715000I200000J0D01*
G01*
G37*
%TD*%
%TO.C,C4*%
G36*
G01*
X15131000Y-23615000D02*
X15131000Y-24115000D01*
G75*
G02*
X14906000Y-24340000I-225000J0D01*
G01*
X14456000Y-24340000D01*
G75*
G02*
X14231000Y-24115000I0J225000D01*
G01*
X14231000Y-23615000D01*
G75*
G02*
X14456000Y-23390000I225000J0D01*
G01*
X14906000Y-23390000D01*
G75*
G02*
X15131000Y-23615000I0J-225000D01*
G01*
G37*
G36*
G01*
X16681000Y-23615000D02*
X16681000Y-24115000D01*
G75*
G02*
X16456000Y-24340000I-225000J0D01*
G01*
X16006000Y-24340000D01*
G75*
G02*
X15781000Y-24115000I0J225000D01*
G01*
X15781000Y-23615000D01*
G75*
G02*
X16006000Y-23390000I225000J0D01*
G01*
X16456000Y-23390000D01*
G75*
G02*
X16681000Y-23615000I0J-225000D01*
G01*
G37*
%TD*%
%TO.C,C3*%
G36*
G01*
X25401000Y-23615000D02*
X25401000Y-24115000D01*
G75*
G02*
X25176000Y-24340000I-225000J0D01*
G01*
X24726000Y-24340000D01*
G75*
G02*
X24501000Y-24115000I0J225000D01*
G01*
X24501000Y-23615000D01*
G75*
G02*
X24726000Y-23390000I225000J0D01*
G01*
X25176000Y-23390000D01*
G75*
G02*
X25401000Y-23615000I0J-225000D01*
G01*
G37*
G36*
G01*
X26951000Y-23615000D02*
X26951000Y-24115000D01*
G75*
G02*
X26726000Y-24340000I-225000J0D01*
G01*
X26276000Y-24340000D01*
G75*
G02*
X26051000Y-24115000I0J225000D01*
G01*
X26051000Y-23615000D01*
G75*
G02*
X26276000Y-23390000I225000J0D01*
G01*
X26726000Y-23390000D01*
G75*
G02*
X26951000Y-23615000I0J-225000D01*
G01*
G37*
%TD*%
%TO.C,C2*%
G36*
G01*
X15131000Y-12615000D02*
X15131000Y-13115000D01*
G75*
G02*
X14906000Y-13340000I-225000J0D01*
G01*
X14456000Y-13340000D01*
G75*
G02*
X14231000Y-13115000I0J225000D01*
G01*
X14231000Y-12615000D01*
G75*
G02*
X14456000Y-12390000I225000J0D01*
G01*
X14906000Y-12390000D01*
G75*
G02*
X15131000Y-12615000I0J-225000D01*
G01*
G37*
G36*
G01*
X16681000Y-12615000D02*
X16681000Y-13115000D01*
G75*
G02*
X16456000Y-13340000I-225000J0D01*
G01*
X16006000Y-13340000D01*
G75*
G02*
X15781000Y-13115000I0J225000D01*
G01*
X15781000Y-12615000D01*
G75*
G02*
X16006000Y-12390000I225000J0D01*
G01*
X16456000Y-12390000D01*
G75*
G02*
X16681000Y-12615000I0J-225000D01*
G01*
G37*
%TD*%
%TO.C,C1*%
G36*
G01*
X15131000Y-3615000D02*
X15131000Y-4115000D01*
G75*
G02*
X14906000Y-4340000I-225000J0D01*
G01*
X14456000Y-4340000D01*
G75*
G02*
X14231000Y-4115000I0J225000D01*
G01*
X14231000Y-3615000D01*
G75*
G02*
X14456000Y-3390000I225000J0D01*
G01*
X14906000Y-3390000D01*
G75*
G02*
X15131000Y-3615000I0J-225000D01*
G01*
G37*
G36*
G01*
X16681000Y-3615000D02*
X16681000Y-4115000D01*
G75*
G02*
X16456000Y-4340000I-225000J0D01*
G01*
X16006000Y-4340000D01*
G75*
G02*
X15781000Y-4115000I0J225000D01*
G01*
X15781000Y-3615000D01*
G75*
G02*
X16006000Y-3390000I225000J0D01*
G01*
X16456000Y-3390000D01*
G75*
G02*
X16681000Y-3615000I0J-225000D01*
G01*
G37*
%TD*%
M02*
