%TF.GenerationSoftware,KiCad,Pcbnew,5.1.12-84ad8e8a86~92~ubuntu20.04.1*%
%TF.CreationDate,2021-12-12T16:01:27+01:00*%
%TF.ProjectId,C64 Joystick Switcher,43363420-4a6f-4797-9374-69636b205377,rev?*%
%TF.SameCoordinates,PX5b1e2c0PY21e9a40*%
%TF.FileFunction,Legend,Bot*%
%TF.FilePolarity,Positive*%
%FSLAX46Y46*%
G04 Gerber Fmt 4.6, Leading zero omitted, Abs format (unit mm)*
G04 Created by KiCad (PCBNEW 5.1.12-84ad8e8a86~92~ubuntu20.04.1) date 2021-12-12 16:01:27*
%MOMM*%
%LPD*%
G01*
G04 APERTURE LIST*
%ADD10C,0.200000*%
%ADD11C,0.150000*%
%ADD12C,1.152000*%
%ADD13C,1.620000*%
%ADD14C,2.100000*%
%ADD15C,1.750000*%
%ADD16R,1.600000X1.600000*%
%ADD17C,1.600000*%
%ADD18C,4.800000*%
%ADD19R,1.700000X1.700000*%
%ADD20O,1.700000X1.700000*%
G04 APERTURE END LIST*
D10*
X27656000Y-58140000D02*
X27656000Y-58420000D01*
X30196000Y-58140000D02*
X27656000Y-58140000D01*
X30196000Y-58420000D02*
X30196000Y-58140000D01*
X23701000Y-63220000D02*
X23701000Y-63500000D01*
X21161000Y-63220000D02*
X23701000Y-63220000D01*
X21161000Y-63500000D02*
X21161000Y-63220000D01*
X17196000Y-60680000D02*
X17196000Y-60960000D01*
X14656000Y-60680000D02*
X17196000Y-60680000D01*
X14656000Y-60960000D02*
X14656000Y-60680000D01*
D11*
X26496000Y-39068571D02*
X26162666Y-39068571D01*
X26019809Y-39592380D02*
X26496000Y-39592380D01*
X26496000Y-38592380D01*
X26019809Y-38592380D01*
X25591238Y-38925714D02*
X25591238Y-39592380D01*
X25591238Y-39020952D02*
X25543619Y-38973333D01*
X25448380Y-38925714D01*
X25305523Y-38925714D01*
X25210285Y-38973333D01*
X25162666Y-39068571D01*
X25162666Y-39592380D01*
X24257904Y-39592380D02*
X24257904Y-39068571D01*
X24305523Y-38973333D01*
X24400761Y-38925714D01*
X24591238Y-38925714D01*
X24686476Y-38973333D01*
X24257904Y-39544761D02*
X24353142Y-39592380D01*
X24591238Y-39592380D01*
X24686476Y-39544761D01*
X24734095Y-39449523D01*
X24734095Y-39354285D01*
X24686476Y-39259047D01*
X24591238Y-39211428D01*
X24353142Y-39211428D01*
X24257904Y-39163809D01*
X23781714Y-39592380D02*
X23781714Y-38592380D01*
X23781714Y-38973333D02*
X23686476Y-38925714D01*
X23496000Y-38925714D01*
X23400761Y-38973333D01*
X23353142Y-39020952D01*
X23305523Y-39116190D01*
X23305523Y-39401904D01*
X23353142Y-39497142D01*
X23400761Y-39544761D01*
X23496000Y-39592380D01*
X23686476Y-39592380D01*
X23781714Y-39544761D01*
X22734095Y-39592380D02*
X22829333Y-39544761D01*
X22876952Y-39449523D01*
X22876952Y-38592380D01*
X21972190Y-39544761D02*
X22067428Y-39592380D01*
X22257904Y-39592380D01*
X22353142Y-39544761D01*
X22400761Y-39449523D01*
X22400761Y-39068571D01*
X22353142Y-38973333D01*
X22257904Y-38925714D01*
X22067428Y-38925714D01*
X21972190Y-38973333D01*
X21924571Y-39068571D01*
X21924571Y-39163809D01*
X22400761Y-39259047D01*
X20781714Y-39306666D02*
X20305523Y-39306666D01*
X20876952Y-39592380D02*
X20543619Y-38592380D01*
X20210285Y-39592380D01*
X19543619Y-39068571D02*
X19876952Y-39068571D01*
X19876952Y-39592380D02*
X19876952Y-38592380D01*
X19400761Y-38592380D01*
D10*
X27441000Y-40035000D02*
X27441000Y-43845000D01*
X18551000Y-40035000D02*
X27441000Y-40035000D01*
X22996000Y-40640000D02*
X22996000Y-40920000D01*
X20456000Y-40640000D02*
X22996000Y-40640000D01*
X20456000Y-40920000D02*
X20456000Y-40640000D01*
X18551000Y-43845000D02*
X18551000Y-40035000D01*
X27441000Y-43845000D02*
X18551000Y-43845000D01*
D11*
X32017714Y-76297142D02*
X32065333Y-76344761D01*
X32208190Y-76392380D01*
X32303428Y-76392380D01*
X32446285Y-76344761D01*
X32541523Y-76249523D01*
X32589142Y-76154285D01*
X32636761Y-75963809D01*
X32636761Y-75820952D01*
X32589142Y-75630476D01*
X32541523Y-75535238D01*
X32446285Y-75440000D01*
X32303428Y-75392380D01*
X32208190Y-75392380D01*
X32065333Y-75440000D01*
X32017714Y-75487619D01*
X31446285Y-76392380D02*
X31541523Y-76344761D01*
X31589142Y-76297142D01*
X31636761Y-76201904D01*
X31636761Y-75916190D01*
X31589142Y-75820952D01*
X31541523Y-75773333D01*
X31446285Y-75725714D01*
X31303428Y-75725714D01*
X31208190Y-75773333D01*
X31160571Y-75820952D01*
X31112952Y-75916190D01*
X31112952Y-76201904D01*
X31160571Y-76297142D01*
X31208190Y-76344761D01*
X31303428Y-76392380D01*
X31446285Y-76392380D01*
X30684380Y-76392380D02*
X30684380Y-75725714D01*
X30684380Y-75820952D02*
X30636761Y-75773333D01*
X30541523Y-75725714D01*
X30398666Y-75725714D01*
X30303428Y-75773333D01*
X30255809Y-75868571D01*
X30255809Y-76392380D01*
X30255809Y-75868571D02*
X30208190Y-75773333D01*
X30112952Y-75725714D01*
X29970095Y-75725714D01*
X29874857Y-75773333D01*
X29827238Y-75868571D01*
X29827238Y-76392380D01*
X29351047Y-76392380D02*
X29351047Y-75725714D01*
X29351047Y-75820952D02*
X29303428Y-75773333D01*
X29208190Y-75725714D01*
X29065333Y-75725714D01*
X28970095Y-75773333D01*
X28922476Y-75868571D01*
X28922476Y-76392380D01*
X28922476Y-75868571D02*
X28874857Y-75773333D01*
X28779619Y-75725714D01*
X28636761Y-75725714D01*
X28541523Y-75773333D01*
X28493904Y-75868571D01*
X28493904Y-76392380D01*
X27874857Y-76392380D02*
X27970095Y-76344761D01*
X28017714Y-76297142D01*
X28065333Y-76201904D01*
X28065333Y-75916190D01*
X28017714Y-75820952D01*
X27970095Y-75773333D01*
X27874857Y-75725714D01*
X27732000Y-75725714D01*
X27636761Y-75773333D01*
X27589142Y-75820952D01*
X27541523Y-75916190D01*
X27541523Y-76201904D01*
X27589142Y-76297142D01*
X27636761Y-76344761D01*
X27732000Y-76392380D01*
X27874857Y-76392380D01*
X26684380Y-76392380D02*
X26684380Y-75392380D01*
X26684380Y-76344761D02*
X26779619Y-76392380D01*
X26970095Y-76392380D01*
X27065333Y-76344761D01*
X27112952Y-76297142D01*
X27160571Y-76201904D01*
X27160571Y-75916190D01*
X27112952Y-75820952D01*
X27065333Y-75773333D01*
X26970095Y-75725714D01*
X26779619Y-75725714D01*
X26684380Y-75773333D01*
X26065333Y-76392380D02*
X26160571Y-76344761D01*
X26208190Y-76297142D01*
X26255809Y-76201904D01*
X26255809Y-75916190D01*
X26208190Y-75820952D01*
X26160571Y-75773333D01*
X26065333Y-75725714D01*
X25922476Y-75725714D01*
X25827238Y-75773333D01*
X25779619Y-75820952D01*
X25732000Y-75916190D01*
X25732000Y-76201904D01*
X25779619Y-76297142D01*
X25827238Y-76344761D01*
X25922476Y-76392380D01*
X26065333Y-76392380D01*
X25303428Y-76392380D02*
X25303428Y-75725714D01*
X25303428Y-75916190D02*
X25255809Y-75820952D01*
X25208190Y-75773333D01*
X25112952Y-75725714D01*
X25017714Y-75725714D01*
X24303428Y-76344761D02*
X24398666Y-76392380D01*
X24589142Y-76392380D01*
X24684380Y-76344761D01*
X24732000Y-76249523D01*
X24732000Y-75868571D01*
X24684380Y-75773333D01*
X24589142Y-75725714D01*
X24398666Y-75725714D01*
X24303428Y-75773333D01*
X24255809Y-75868571D01*
X24255809Y-75963809D01*
X24732000Y-76059047D01*
X22636761Y-75392380D02*
X22827238Y-75392380D01*
X22922476Y-75440000D01*
X22970095Y-75487619D01*
X23065333Y-75630476D01*
X23112952Y-75820952D01*
X23112952Y-76201904D01*
X23065333Y-76297142D01*
X23017714Y-76344761D01*
X22922476Y-76392380D01*
X22732000Y-76392380D01*
X22636761Y-76344761D01*
X22589142Y-76297142D01*
X22541523Y-76201904D01*
X22541523Y-75963809D01*
X22589142Y-75868571D01*
X22636761Y-75820952D01*
X22732000Y-75773333D01*
X22922476Y-75773333D01*
X23017714Y-75820952D01*
X23065333Y-75868571D01*
X23112952Y-75963809D01*
X21684380Y-75725714D02*
X21684380Y-76392380D01*
X21922476Y-75344761D02*
X22160571Y-76059047D01*
X21541523Y-76059047D01*
X20112952Y-75392380D02*
X20112952Y-76106666D01*
X20160571Y-76249523D01*
X20255809Y-76344761D01*
X20398666Y-76392380D01*
X20493904Y-76392380D01*
X19493904Y-76392380D02*
X19589142Y-76344761D01*
X19636761Y-76297142D01*
X19684380Y-76201904D01*
X19684380Y-75916190D01*
X19636761Y-75820952D01*
X19589142Y-75773333D01*
X19493904Y-75725714D01*
X19351047Y-75725714D01*
X19255809Y-75773333D01*
X19208190Y-75820952D01*
X19160571Y-75916190D01*
X19160571Y-76201904D01*
X19208190Y-76297142D01*
X19255809Y-76344761D01*
X19351047Y-76392380D01*
X19493904Y-76392380D01*
X18827238Y-75725714D02*
X18589142Y-76392380D01*
X18351047Y-75725714D02*
X18589142Y-76392380D01*
X18684380Y-76630476D01*
X18732000Y-76678095D01*
X18827238Y-76725714D01*
X18017714Y-76344761D02*
X17922476Y-76392380D01*
X17732000Y-76392380D01*
X17636761Y-76344761D01*
X17589142Y-76249523D01*
X17589142Y-76201904D01*
X17636761Y-76106666D01*
X17732000Y-76059047D01*
X17874857Y-76059047D01*
X17970095Y-76011428D01*
X18017714Y-75916190D01*
X18017714Y-75868571D01*
X17970095Y-75773333D01*
X17874857Y-75725714D01*
X17732000Y-75725714D01*
X17636761Y-75773333D01*
X17303428Y-75725714D02*
X16922476Y-75725714D01*
X17160571Y-75392380D02*
X17160571Y-76249523D01*
X17112952Y-76344761D01*
X17017714Y-76392380D01*
X16922476Y-76392380D01*
X16589142Y-76392380D02*
X16589142Y-75725714D01*
X16589142Y-75392380D02*
X16636761Y-75440000D01*
X16589142Y-75487619D01*
X16541523Y-75440000D01*
X16589142Y-75392380D01*
X16589142Y-75487619D01*
X15684380Y-76344761D02*
X15779619Y-76392380D01*
X15970095Y-76392380D01*
X16065333Y-76344761D01*
X16112952Y-76297142D01*
X16160571Y-76201904D01*
X16160571Y-75916190D01*
X16112952Y-75820952D01*
X16065333Y-75773333D01*
X15970095Y-75725714D01*
X15779619Y-75725714D01*
X15684380Y-75773333D01*
X15255809Y-76392380D02*
X15255809Y-75392380D01*
X15160571Y-76011428D02*
X14874857Y-76392380D01*
X14874857Y-75725714D02*
X15255809Y-76106666D01*
X13732000Y-76344761D02*
X13589142Y-76392380D01*
X13351047Y-76392380D01*
X13255809Y-76344761D01*
X13208190Y-76297142D01*
X13160571Y-76201904D01*
X13160571Y-76106666D01*
X13208190Y-76011428D01*
X13255809Y-75963809D01*
X13351047Y-75916190D01*
X13541523Y-75868571D01*
X13636761Y-75820952D01*
X13684380Y-75773333D01*
X13732000Y-75678095D01*
X13732000Y-75582857D01*
X13684380Y-75487619D01*
X13636761Y-75440000D01*
X13541523Y-75392380D01*
X13303428Y-75392380D01*
X13160571Y-75440000D01*
X12827238Y-75725714D02*
X12636761Y-76392380D01*
X12446285Y-75916190D01*
X12255809Y-76392380D01*
X12065333Y-75725714D01*
X11684380Y-76392380D02*
X11684380Y-75725714D01*
X11684380Y-75392380D02*
X11732000Y-75440000D01*
X11684380Y-75487619D01*
X11636761Y-75440000D01*
X11684380Y-75392380D01*
X11684380Y-75487619D01*
X11351047Y-75725714D02*
X10970095Y-75725714D01*
X11208190Y-75392380D02*
X11208190Y-76249523D01*
X11160571Y-76344761D01*
X11065333Y-76392380D01*
X10970095Y-76392380D01*
X10208190Y-76344761D02*
X10303428Y-76392380D01*
X10493904Y-76392380D01*
X10589142Y-76344761D01*
X10636761Y-76297142D01*
X10684380Y-76201904D01*
X10684380Y-75916190D01*
X10636761Y-75820952D01*
X10589142Y-75773333D01*
X10493904Y-75725714D01*
X10303428Y-75725714D01*
X10208190Y-75773333D01*
X9779619Y-76392380D02*
X9779619Y-75392380D01*
X9351047Y-76392380D02*
X9351047Y-75868571D01*
X9398666Y-75773333D01*
X9493904Y-75725714D01*
X9636761Y-75725714D01*
X9732000Y-75773333D01*
X9779619Y-75820952D01*
X8493904Y-76344761D02*
X8589142Y-76392380D01*
X8779619Y-76392380D01*
X8874857Y-76344761D01*
X8922476Y-76249523D01*
X8922476Y-75868571D01*
X8874857Y-75773333D01*
X8779619Y-75725714D01*
X8589142Y-75725714D01*
X8493904Y-75773333D01*
X8446285Y-75868571D01*
X8446285Y-75963809D01*
X8922476Y-76059047D01*
X8017714Y-76392380D02*
X8017714Y-75725714D01*
X8017714Y-75916190D02*
X7970095Y-75820952D01*
X7922476Y-75773333D01*
X7827238Y-75725714D01*
X7732000Y-75725714D01*
D10*
X18606000Y-64520000D02*
X19756000Y-64520000D01*
X18606000Y-61980000D02*
X19756000Y-61980000D01*
X18606000Y-59440000D02*
X19756000Y-59440000D01*
X25106000Y-59440000D02*
X26256000Y-59440000D01*
D11*
X33398666Y-77867380D02*
X33208190Y-77867380D01*
X33112952Y-77915000D01*
X33017714Y-78010238D01*
X32970095Y-78200714D01*
X32970095Y-78534047D01*
X33017714Y-78724523D01*
X33112952Y-78819761D01*
X33208190Y-78867380D01*
X33398666Y-78867380D01*
X33493904Y-78819761D01*
X33589142Y-78724523D01*
X33636761Y-78534047D01*
X33636761Y-78200714D01*
X33589142Y-78010238D01*
X33493904Y-77915000D01*
X33398666Y-77867380D01*
X32541523Y-78867380D02*
X32541523Y-78200714D01*
X32541523Y-78391190D02*
X32493904Y-78295952D01*
X32446285Y-78248333D01*
X32351047Y-78200714D01*
X32255809Y-78200714D01*
X31922476Y-78867380D02*
X31922476Y-78200714D01*
X31922476Y-77867380D02*
X31970095Y-77915000D01*
X31922476Y-77962619D01*
X31874857Y-77915000D01*
X31922476Y-77867380D01*
X31922476Y-77962619D01*
X31017714Y-78200714D02*
X31017714Y-79010238D01*
X31065333Y-79105476D01*
X31112952Y-79153095D01*
X31208190Y-79200714D01*
X31351047Y-79200714D01*
X31446285Y-79153095D01*
X31017714Y-78819761D02*
X31112952Y-78867380D01*
X31303428Y-78867380D01*
X31398666Y-78819761D01*
X31446285Y-78772142D01*
X31493904Y-78676904D01*
X31493904Y-78391190D01*
X31446285Y-78295952D01*
X31398666Y-78248333D01*
X31303428Y-78200714D01*
X31112952Y-78200714D01*
X31017714Y-78248333D01*
X30541523Y-78867380D02*
X30541523Y-78200714D01*
X30541523Y-77867380D02*
X30589142Y-77915000D01*
X30541523Y-77962619D01*
X30493904Y-77915000D01*
X30541523Y-77867380D01*
X30541523Y-77962619D01*
X30065333Y-78200714D02*
X30065333Y-78867380D01*
X30065333Y-78295952D02*
X30017714Y-78248333D01*
X29922476Y-78200714D01*
X29779619Y-78200714D01*
X29684380Y-78248333D01*
X29636761Y-78343571D01*
X29636761Y-78867380D01*
X28732000Y-78867380D02*
X28732000Y-78343571D01*
X28779619Y-78248333D01*
X28874857Y-78200714D01*
X29065333Y-78200714D01*
X29160571Y-78248333D01*
X28732000Y-78819761D02*
X28827238Y-78867380D01*
X29065333Y-78867380D01*
X29160571Y-78819761D01*
X29208190Y-78724523D01*
X29208190Y-78629285D01*
X29160571Y-78534047D01*
X29065333Y-78486428D01*
X28827238Y-78486428D01*
X28732000Y-78438809D01*
X28112952Y-78867380D02*
X28208190Y-78819761D01*
X28255809Y-78724523D01*
X28255809Y-77867380D01*
X26541523Y-78819761D02*
X26636761Y-78867380D01*
X26827238Y-78867380D01*
X26922476Y-78819761D01*
X26970095Y-78772142D01*
X27017714Y-78676904D01*
X27017714Y-78391190D01*
X26970095Y-78295952D01*
X26922476Y-78248333D01*
X26827238Y-78200714D01*
X26636761Y-78200714D01*
X26541523Y-78248333D01*
X26112952Y-78867380D02*
X26112952Y-78200714D01*
X26112952Y-77867380D02*
X26160571Y-77915000D01*
X26112952Y-77962619D01*
X26065333Y-77915000D01*
X26112952Y-77867380D01*
X26112952Y-77962619D01*
X25636761Y-78867380D02*
X25636761Y-78200714D01*
X25636761Y-78391190D02*
X25589142Y-78295952D01*
X25541523Y-78248333D01*
X25446285Y-78200714D01*
X25351047Y-78200714D01*
X24589142Y-78819761D02*
X24684380Y-78867380D01*
X24874857Y-78867380D01*
X24970095Y-78819761D01*
X25017714Y-78772142D01*
X25065333Y-78676904D01*
X25065333Y-78391190D01*
X25017714Y-78295952D01*
X24970095Y-78248333D01*
X24874857Y-78200714D01*
X24684380Y-78200714D01*
X24589142Y-78248333D01*
X23732000Y-78200714D02*
X23732000Y-78867380D01*
X24160571Y-78200714D02*
X24160571Y-78724523D01*
X24112952Y-78819761D01*
X24017714Y-78867380D01*
X23874857Y-78867380D01*
X23779619Y-78819761D01*
X23732000Y-78772142D01*
X23255809Y-78867380D02*
X23255809Y-78200714D01*
X23255809Y-77867380D02*
X23303428Y-77915000D01*
X23255809Y-77962619D01*
X23208190Y-77915000D01*
X23255809Y-77867380D01*
X23255809Y-77962619D01*
X22922476Y-78200714D02*
X22541523Y-78200714D01*
X22779619Y-77867380D02*
X22779619Y-78724523D01*
X22732000Y-78819761D01*
X22636761Y-78867380D01*
X22541523Y-78867380D01*
X21446285Y-78867380D02*
X21446285Y-77867380D01*
X21446285Y-78248333D02*
X21351047Y-78200714D01*
X21160571Y-78200714D01*
X21065333Y-78248333D01*
X21017714Y-78295952D01*
X20970095Y-78391190D01*
X20970095Y-78676904D01*
X21017714Y-78772142D01*
X21065333Y-78819761D01*
X21160571Y-78867380D01*
X21351047Y-78867380D01*
X21446285Y-78819761D01*
X20636761Y-78200714D02*
X20398666Y-78867380D01*
X20160571Y-78200714D02*
X20398666Y-78867380D01*
X20493904Y-79105476D01*
X20541523Y-79153095D01*
X20636761Y-79200714D01*
X19779619Y-78772142D02*
X19732000Y-78819761D01*
X19779619Y-78867380D01*
X19827238Y-78819761D01*
X19779619Y-78772142D01*
X19779619Y-78867380D01*
X19779619Y-78248333D02*
X19732000Y-78295952D01*
X19779619Y-78343571D01*
X19827238Y-78295952D01*
X19779619Y-78248333D01*
X19779619Y-78343571D01*
X18112952Y-78200714D02*
X18112952Y-79010238D01*
X18160571Y-79105476D01*
X18208190Y-79153095D01*
X18303428Y-79200714D01*
X18446285Y-79200714D01*
X18541523Y-79153095D01*
X18112952Y-78819761D02*
X18208190Y-78867380D01*
X18398666Y-78867380D01*
X18493904Y-78819761D01*
X18541523Y-78772142D01*
X18589142Y-78676904D01*
X18589142Y-78391190D01*
X18541523Y-78295952D01*
X18493904Y-78248333D01*
X18398666Y-78200714D01*
X18208190Y-78200714D01*
X18112952Y-78248333D01*
X17636761Y-78867380D02*
X17636761Y-78200714D01*
X17636761Y-77867380D02*
X17684380Y-77915000D01*
X17636761Y-77962619D01*
X17589142Y-77915000D01*
X17636761Y-77867380D01*
X17636761Y-77962619D01*
X17303428Y-78200714D02*
X16922476Y-78200714D01*
X17160571Y-77867380D02*
X17160571Y-78724523D01*
X17112952Y-78819761D01*
X17017714Y-78867380D01*
X16922476Y-78867380D01*
X16589142Y-78867380D02*
X16589142Y-77867380D01*
X16160571Y-78867380D02*
X16160571Y-78343571D01*
X16208190Y-78248333D01*
X16303428Y-78200714D01*
X16446285Y-78200714D01*
X16541523Y-78248333D01*
X16589142Y-78295952D01*
X15255809Y-78200714D02*
X15255809Y-78867380D01*
X15684380Y-78200714D02*
X15684380Y-78724523D01*
X15636761Y-78819761D01*
X15541523Y-78867380D01*
X15398666Y-78867380D01*
X15303428Y-78819761D01*
X15255809Y-78772142D01*
X14779619Y-78867380D02*
X14779619Y-77867380D01*
X14779619Y-78248333D02*
X14684380Y-78200714D01*
X14493904Y-78200714D01*
X14398666Y-78248333D01*
X14351047Y-78295952D01*
X14303428Y-78391190D01*
X14303428Y-78676904D01*
X14351047Y-78772142D01*
X14398666Y-78819761D01*
X14493904Y-78867380D01*
X14684380Y-78867380D01*
X14779619Y-78819761D01*
X13874857Y-78772142D02*
X13827238Y-78819761D01*
X13874857Y-78867380D01*
X13922476Y-78819761D01*
X13874857Y-78772142D01*
X13874857Y-78867380D01*
X12970095Y-78819761D02*
X13065333Y-78867380D01*
X13255809Y-78867380D01*
X13351047Y-78819761D01*
X13398666Y-78772142D01*
X13446285Y-78676904D01*
X13446285Y-78391190D01*
X13398666Y-78295952D01*
X13351047Y-78248333D01*
X13255809Y-78200714D01*
X13065333Y-78200714D01*
X12970095Y-78248333D01*
X12398666Y-78867380D02*
X12493904Y-78819761D01*
X12541523Y-78772142D01*
X12589142Y-78676904D01*
X12589142Y-78391190D01*
X12541523Y-78295952D01*
X12493904Y-78248333D01*
X12398666Y-78200714D01*
X12255809Y-78200714D01*
X12160571Y-78248333D01*
X12112952Y-78295952D01*
X12065333Y-78391190D01*
X12065333Y-78676904D01*
X12112952Y-78772142D01*
X12160571Y-78819761D01*
X12255809Y-78867380D01*
X12398666Y-78867380D01*
X11636761Y-78867380D02*
X11636761Y-78200714D01*
X11636761Y-78295952D02*
X11589142Y-78248333D01*
X11493904Y-78200714D01*
X11351047Y-78200714D01*
X11255809Y-78248333D01*
X11208190Y-78343571D01*
X11208190Y-78867380D01*
X11208190Y-78343571D02*
X11160571Y-78248333D01*
X11065333Y-78200714D01*
X10922476Y-78200714D01*
X10827238Y-78248333D01*
X10779619Y-78343571D01*
X10779619Y-78867380D01*
X9589142Y-77819761D02*
X10446285Y-79105476D01*
X9398666Y-78200714D02*
X9017714Y-78200714D01*
X9255809Y-77867380D02*
X9255809Y-78724523D01*
X9208190Y-78819761D01*
X9112952Y-78867380D01*
X9017714Y-78867380D01*
X8303428Y-78819761D02*
X8398666Y-78867380D01*
X8589142Y-78867380D01*
X8684380Y-78819761D01*
X8732000Y-78724523D01*
X8732000Y-78343571D01*
X8684380Y-78248333D01*
X8589142Y-78200714D01*
X8398666Y-78200714D01*
X8303428Y-78248333D01*
X8255809Y-78343571D01*
X8255809Y-78438809D01*
X8732000Y-78534047D01*
X7827238Y-78867380D02*
X7827238Y-77867380D01*
X7827238Y-78248333D02*
X7732000Y-78200714D01*
X7541523Y-78200714D01*
X7446285Y-78248333D01*
X7398666Y-78295952D01*
X7351047Y-78391190D01*
X7351047Y-78676904D01*
X7398666Y-78772142D01*
X7446285Y-78819761D01*
X7541523Y-78867380D01*
X7732000Y-78867380D01*
X7827238Y-78819761D01*
X6779619Y-78867380D02*
X6874857Y-78819761D01*
X6922476Y-78724523D01*
X6922476Y-77867380D01*
X34636761Y-80469761D02*
X34493904Y-80517380D01*
X34255809Y-80517380D01*
X34160571Y-80469761D01*
X34112952Y-80422142D01*
X34065333Y-80326904D01*
X34065333Y-80231666D01*
X34112952Y-80136428D01*
X34160571Y-80088809D01*
X34255809Y-80041190D01*
X34446285Y-79993571D01*
X34541523Y-79945952D01*
X34589142Y-79898333D01*
X34636761Y-79803095D01*
X34636761Y-79707857D01*
X34589142Y-79612619D01*
X34541523Y-79565000D01*
X34446285Y-79517380D01*
X34208190Y-79517380D01*
X34065333Y-79565000D01*
X33636761Y-80517380D02*
X33636761Y-79517380D01*
X33303428Y-80231666D01*
X32970095Y-79517380D01*
X32970095Y-80517380D01*
X32493904Y-80517380D02*
X32493904Y-79517380D01*
X32255809Y-79517380D01*
X32112952Y-79565000D01*
X32017714Y-79660238D01*
X31970095Y-79755476D01*
X31922476Y-79945952D01*
X31922476Y-80088809D01*
X31970095Y-80279285D01*
X32017714Y-80374523D01*
X32112952Y-80469761D01*
X32255809Y-80517380D01*
X32493904Y-80517380D01*
X31493904Y-80136428D02*
X30732000Y-80136428D01*
X30255809Y-80517380D02*
X30255809Y-79517380D01*
X29874857Y-79517380D01*
X29779619Y-79565000D01*
X29732000Y-79612619D01*
X29684380Y-79707857D01*
X29684380Y-79850714D01*
X29732000Y-79945952D01*
X29779619Y-79993571D01*
X29874857Y-80041190D01*
X30255809Y-80041190D01*
X28684380Y-80422142D02*
X28732000Y-80469761D01*
X28874857Y-80517380D01*
X28970095Y-80517380D01*
X29112952Y-80469761D01*
X29208190Y-80374523D01*
X29255809Y-80279285D01*
X29303428Y-80088809D01*
X29303428Y-79945952D01*
X29255809Y-79755476D01*
X29208190Y-79660238D01*
X29112952Y-79565000D01*
X28970095Y-79517380D01*
X28874857Y-79517380D01*
X28732000Y-79565000D01*
X28684380Y-79612619D01*
X27922476Y-79993571D02*
X27779619Y-80041190D01*
X27732000Y-80088809D01*
X27684380Y-80184047D01*
X27684380Y-80326904D01*
X27732000Y-80422142D01*
X27779619Y-80469761D01*
X27874857Y-80517380D01*
X28255809Y-80517380D01*
X28255809Y-79517380D01*
X27922476Y-79517380D01*
X27827238Y-79565000D01*
X27779619Y-79612619D01*
X27732000Y-79707857D01*
X27732000Y-79803095D01*
X27779619Y-79898333D01*
X27827238Y-79945952D01*
X27922476Y-79993571D01*
X28255809Y-79993571D01*
X26493904Y-80517380D02*
X26493904Y-79517380D01*
X26493904Y-79898333D02*
X26398666Y-79850714D01*
X26208190Y-79850714D01*
X26112952Y-79898333D01*
X26065333Y-79945952D01*
X26017714Y-80041190D01*
X26017714Y-80326904D01*
X26065333Y-80422142D01*
X26112952Y-80469761D01*
X26208190Y-80517380D01*
X26398666Y-80517380D01*
X26493904Y-80469761D01*
X25684380Y-79850714D02*
X25446285Y-80517380D01*
X25208190Y-79850714D02*
X25446285Y-80517380D01*
X25541523Y-80755476D01*
X25589142Y-80803095D01*
X25684380Y-80850714D01*
X24827238Y-80422142D02*
X24779619Y-80469761D01*
X24827238Y-80517380D01*
X24874857Y-80469761D01*
X24827238Y-80422142D01*
X24827238Y-80517380D01*
X24827238Y-79898333D02*
X24779619Y-79945952D01*
X24827238Y-79993571D01*
X24874857Y-79945952D01*
X24827238Y-79898333D01*
X24827238Y-79993571D01*
X23160571Y-79850714D02*
X23160571Y-80660238D01*
X23208190Y-80755476D01*
X23255809Y-80803095D01*
X23351047Y-80850714D01*
X23493904Y-80850714D01*
X23589142Y-80803095D01*
X23160571Y-80469761D02*
X23255809Y-80517380D01*
X23446285Y-80517380D01*
X23541523Y-80469761D01*
X23589142Y-80422142D01*
X23636761Y-80326904D01*
X23636761Y-80041190D01*
X23589142Y-79945952D01*
X23541523Y-79898333D01*
X23446285Y-79850714D01*
X23255809Y-79850714D01*
X23160571Y-79898333D01*
X22684380Y-80517380D02*
X22684380Y-79850714D01*
X22684380Y-79517380D02*
X22732000Y-79565000D01*
X22684380Y-79612619D01*
X22636761Y-79565000D01*
X22684380Y-79517380D01*
X22684380Y-79612619D01*
X22351047Y-79850714D02*
X21970095Y-79850714D01*
X22208190Y-79517380D02*
X22208190Y-80374523D01*
X22160571Y-80469761D01*
X22065333Y-80517380D01*
X21970095Y-80517380D01*
X21636761Y-80517380D02*
X21636761Y-79517380D01*
X21208190Y-80517380D02*
X21208190Y-79993571D01*
X21255809Y-79898333D01*
X21351047Y-79850714D01*
X21493904Y-79850714D01*
X21589142Y-79898333D01*
X21636761Y-79945952D01*
X20303428Y-79850714D02*
X20303428Y-80517380D01*
X20732000Y-79850714D02*
X20732000Y-80374523D01*
X20684380Y-80469761D01*
X20589142Y-80517380D01*
X20446285Y-80517380D01*
X20351047Y-80469761D01*
X20303428Y-80422142D01*
X19827238Y-80517380D02*
X19827238Y-79517380D01*
X19827238Y-79898333D02*
X19732000Y-79850714D01*
X19541523Y-79850714D01*
X19446285Y-79898333D01*
X19398666Y-79945952D01*
X19351047Y-80041190D01*
X19351047Y-80326904D01*
X19398666Y-80422142D01*
X19446285Y-80469761D01*
X19541523Y-80517380D01*
X19732000Y-80517380D01*
X19827238Y-80469761D01*
X18922476Y-80422142D02*
X18874857Y-80469761D01*
X18922476Y-80517380D01*
X18970095Y-80469761D01*
X18922476Y-80422142D01*
X18922476Y-80517380D01*
X18017714Y-80469761D02*
X18112952Y-80517380D01*
X18303428Y-80517380D01*
X18398666Y-80469761D01*
X18446285Y-80422142D01*
X18493904Y-80326904D01*
X18493904Y-80041190D01*
X18446285Y-79945952D01*
X18398666Y-79898333D01*
X18303428Y-79850714D01*
X18112952Y-79850714D01*
X18017714Y-79898333D01*
X17446285Y-80517380D02*
X17541523Y-80469761D01*
X17589142Y-80422142D01*
X17636761Y-80326904D01*
X17636761Y-80041190D01*
X17589142Y-79945952D01*
X17541523Y-79898333D01*
X17446285Y-79850714D01*
X17303428Y-79850714D01*
X17208190Y-79898333D01*
X17160571Y-79945952D01*
X17112952Y-80041190D01*
X17112952Y-80326904D01*
X17160571Y-80422142D01*
X17208190Y-80469761D01*
X17303428Y-80517380D01*
X17446285Y-80517380D01*
X16684380Y-80517380D02*
X16684380Y-79850714D01*
X16684380Y-79945952D02*
X16636761Y-79898333D01*
X16541523Y-79850714D01*
X16398666Y-79850714D01*
X16303428Y-79898333D01*
X16255809Y-79993571D01*
X16255809Y-80517380D01*
X16255809Y-79993571D02*
X16208190Y-79898333D01*
X16112952Y-79850714D01*
X15970095Y-79850714D01*
X15874857Y-79898333D01*
X15827238Y-79993571D01*
X15827238Y-80517380D01*
X14636761Y-79469761D02*
X15493904Y-80755476D01*
X14446285Y-79850714D02*
X14065333Y-79850714D01*
X14303428Y-79517380D02*
X14303428Y-80374523D01*
X14255809Y-80469761D01*
X14160571Y-80517380D01*
X14065333Y-80517380D01*
X13874857Y-79850714D02*
X13493904Y-79850714D01*
X13732000Y-79517380D02*
X13732000Y-80374523D01*
X13684380Y-80469761D01*
X13589142Y-80517380D01*
X13493904Y-80517380D01*
X12732000Y-80517380D02*
X12732000Y-79993571D01*
X12779619Y-79898333D01*
X12874857Y-79850714D01*
X13065333Y-79850714D01*
X13160571Y-79898333D01*
X12732000Y-80469761D02*
X12827238Y-80517380D01*
X13065333Y-80517380D01*
X13160571Y-80469761D01*
X13208190Y-80374523D01*
X13208190Y-80279285D01*
X13160571Y-80184047D01*
X13065333Y-80136428D01*
X12827238Y-80136428D01*
X12732000Y-80088809D01*
X12255809Y-80517380D02*
X12255809Y-79517380D01*
X11827238Y-80517380D02*
X11827238Y-79993571D01*
X11874857Y-79898333D01*
X11970095Y-79850714D01*
X12112952Y-79850714D01*
X12208190Y-79898333D01*
X12255809Y-79945952D01*
X11398666Y-80469761D02*
X11303428Y-80517380D01*
X11112952Y-80517380D01*
X11017714Y-80469761D01*
X10970095Y-80374523D01*
X10970095Y-80326904D01*
X11017714Y-80231666D01*
X11112952Y-80184047D01*
X11255809Y-80184047D01*
X11351047Y-80136428D01*
X11398666Y-80041190D01*
X11398666Y-79993571D01*
X11351047Y-79898333D01*
X11255809Y-79850714D01*
X11112952Y-79850714D01*
X11017714Y-79898333D01*
X10541523Y-80517380D02*
X10541523Y-79850714D01*
X10541523Y-79517380D02*
X10589142Y-79565000D01*
X10541523Y-79612619D01*
X10493904Y-79565000D01*
X10541523Y-79517380D01*
X10541523Y-79612619D01*
X10065333Y-79850714D02*
X10065333Y-80517380D01*
X10065333Y-79945952D02*
X10017714Y-79898333D01*
X9922476Y-79850714D01*
X9779619Y-79850714D01*
X9684380Y-79898333D01*
X9636761Y-79993571D01*
X9636761Y-80517380D01*
X9160571Y-80136428D02*
X8398666Y-80136428D01*
X7922476Y-80517380D02*
X7922476Y-79517380D01*
X7922476Y-79898333D02*
X7827238Y-79850714D01*
X7636761Y-79850714D01*
X7541523Y-79898333D01*
X7493904Y-79945952D01*
X7446285Y-80041190D01*
X7446285Y-80326904D01*
X7493904Y-80422142D01*
X7541523Y-80469761D01*
X7636761Y-80517380D01*
X7827238Y-80517380D01*
X7922476Y-80469761D01*
X6636761Y-80469761D02*
X6732000Y-80517380D01*
X6922476Y-80517380D01*
X7017714Y-80469761D01*
X7065333Y-80374523D01*
X7065333Y-79993571D01*
X7017714Y-79898333D01*
X6922476Y-79850714D01*
X6732000Y-79850714D01*
X6636761Y-79898333D01*
X6589142Y-79993571D01*
X6589142Y-80088809D01*
X7065333Y-80184047D01*
X6255809Y-79850714D02*
X6017714Y-80517380D01*
X5779619Y-79850714D02*
X6017714Y-80517380D01*
X6112952Y-80755476D01*
X6160571Y-80803095D01*
X6255809Y-80850714D01*
X34368023Y-2844761D02*
X34225166Y-2892380D01*
X33987071Y-2892380D01*
X33891833Y-2844761D01*
X33844214Y-2797142D01*
X33796595Y-2701904D01*
X33796595Y-2606666D01*
X33844214Y-2511428D01*
X33891833Y-2463809D01*
X33987071Y-2416190D01*
X34177547Y-2368571D01*
X34272785Y-2320952D01*
X34320404Y-2273333D01*
X34368023Y-2178095D01*
X34368023Y-2082857D01*
X34320404Y-1987619D01*
X34272785Y-1940000D01*
X34177547Y-1892380D01*
X33939452Y-1892380D01*
X33796595Y-1940000D01*
X33368023Y-2892380D02*
X33368023Y-1892380D01*
X33034690Y-2606666D01*
X32701357Y-1892380D01*
X32701357Y-2892380D01*
X32225166Y-2892380D02*
X32225166Y-1892380D01*
X31987071Y-1892380D01*
X31844214Y-1940000D01*
X31748976Y-2035238D01*
X31701357Y-2130476D01*
X31653738Y-2320952D01*
X31653738Y-2463809D01*
X31701357Y-2654285D01*
X31748976Y-2749523D01*
X31844214Y-2844761D01*
X31987071Y-2892380D01*
X32225166Y-2892380D01*
X31225166Y-2511428D02*
X30463261Y-2511428D01*
X29415642Y-2892380D02*
X29748976Y-2416190D01*
X29987071Y-2892380D02*
X29987071Y-1892380D01*
X29606119Y-1892380D01*
X29510880Y-1940000D01*
X29463261Y-1987619D01*
X29415642Y-2082857D01*
X29415642Y-2225714D01*
X29463261Y-2320952D01*
X29510880Y-2368571D01*
X29606119Y-2416190D01*
X29987071Y-2416190D01*
X28606119Y-2844761D02*
X28701357Y-2892380D01*
X28891833Y-2892380D01*
X28987071Y-2844761D01*
X29034690Y-2749523D01*
X29034690Y-2368571D01*
X28987071Y-2273333D01*
X28891833Y-2225714D01*
X28701357Y-2225714D01*
X28606119Y-2273333D01*
X28558500Y-2368571D01*
X28558500Y-2463809D01*
X29034690Y-2559047D01*
X28225166Y-2225714D02*
X27987071Y-2892380D01*
X27748976Y-2225714D01*
X27368023Y-2797142D02*
X27320404Y-2844761D01*
X27368023Y-2892380D01*
X27415642Y-2844761D01*
X27368023Y-2797142D01*
X27368023Y-2892380D01*
X26177547Y-2606666D02*
X25701357Y-2606666D01*
X26272785Y-2892380D02*
X25939452Y-1892380D01*
X25606119Y-2892380D01*
D10*
X12656000Y-66520000D02*
X32196000Y-66520000D01*
X12656000Y-57440000D02*
X12656000Y-66520000D01*
X32196000Y-57440000D02*
X12656000Y-57440000D01*
X32196000Y-66520000D02*
X32196000Y-57440000D01*
D11*
X30235523Y-53342380D02*
X30235523Y-52342380D01*
X29997428Y-52342380D01*
X29854571Y-52390000D01*
X29759333Y-52485238D01*
X29711714Y-52580476D01*
X29664095Y-52770952D01*
X29664095Y-52913809D01*
X29711714Y-53104285D01*
X29759333Y-53199523D01*
X29854571Y-53294761D01*
X29997428Y-53342380D01*
X30235523Y-53342380D01*
X29092666Y-53342380D02*
X29187904Y-53294761D01*
X29235523Y-53247142D01*
X29283142Y-53151904D01*
X29283142Y-52866190D01*
X29235523Y-52770952D01*
X29187904Y-52723333D01*
X29092666Y-52675714D01*
X28949809Y-52675714D01*
X28854571Y-52723333D01*
X28806952Y-52770952D01*
X28759333Y-52866190D01*
X28759333Y-53151904D01*
X28806952Y-53247142D01*
X28854571Y-53294761D01*
X28949809Y-53342380D01*
X29092666Y-53342380D01*
X27568857Y-53342380D02*
X27568857Y-52342380D01*
X26997428Y-53342380D01*
X26997428Y-52342380D01*
X26330761Y-52342380D02*
X26140285Y-52342380D01*
X26045047Y-52390000D01*
X25949809Y-52485238D01*
X25902190Y-52675714D01*
X25902190Y-53009047D01*
X25949809Y-53199523D01*
X26045047Y-53294761D01*
X26140285Y-53342380D01*
X26330761Y-53342380D01*
X26426000Y-53294761D01*
X26521238Y-53199523D01*
X26568857Y-53009047D01*
X26568857Y-52675714D01*
X26521238Y-52485238D01*
X26426000Y-52390000D01*
X26330761Y-52342380D01*
X25616476Y-52342380D02*
X25045047Y-52342380D01*
X25330761Y-53342380D02*
X25330761Y-52342380D01*
X23521238Y-53294761D02*
X23616476Y-53342380D01*
X23806952Y-53342380D01*
X23902190Y-53294761D01*
X23949809Y-53247142D01*
X23997428Y-53151904D01*
X23997428Y-52866190D01*
X23949809Y-52770952D01*
X23902190Y-52723333D01*
X23806952Y-52675714D01*
X23616476Y-52675714D01*
X23521238Y-52723333D01*
X23092666Y-53342380D02*
X23092666Y-52342380D01*
X22664095Y-53342380D02*
X22664095Y-52818571D01*
X22711714Y-52723333D01*
X22806952Y-52675714D01*
X22949809Y-52675714D01*
X23045047Y-52723333D01*
X23092666Y-52770952D01*
X21759333Y-53342380D02*
X21759333Y-52818571D01*
X21806952Y-52723333D01*
X21902190Y-52675714D01*
X22092666Y-52675714D01*
X22187904Y-52723333D01*
X21759333Y-53294761D02*
X21854571Y-53342380D01*
X22092666Y-53342380D01*
X22187904Y-53294761D01*
X22235523Y-53199523D01*
X22235523Y-53104285D01*
X22187904Y-53009047D01*
X22092666Y-52961428D01*
X21854571Y-52961428D01*
X21759333Y-52913809D01*
X21283142Y-52675714D02*
X21283142Y-53342380D01*
X21283142Y-52770952D02*
X21235523Y-52723333D01*
X21140285Y-52675714D01*
X20997428Y-52675714D01*
X20902190Y-52723333D01*
X20854571Y-52818571D01*
X20854571Y-53342380D01*
X19949809Y-52675714D02*
X19949809Y-53485238D01*
X19997428Y-53580476D01*
X20045047Y-53628095D01*
X20140285Y-53675714D01*
X20283142Y-53675714D01*
X20378380Y-53628095D01*
X19949809Y-53294761D02*
X20045047Y-53342380D01*
X20235523Y-53342380D01*
X20330761Y-53294761D01*
X20378380Y-53247142D01*
X20426000Y-53151904D01*
X20426000Y-52866190D01*
X20378380Y-52770952D01*
X20330761Y-52723333D01*
X20235523Y-52675714D01*
X20045047Y-52675714D01*
X19949809Y-52723333D01*
X19092666Y-53294761D02*
X19187904Y-53342380D01*
X19378380Y-53342380D01*
X19473619Y-53294761D01*
X19521238Y-53199523D01*
X19521238Y-52818571D01*
X19473619Y-52723333D01*
X19378380Y-52675714D01*
X19187904Y-52675714D01*
X19092666Y-52723333D01*
X19045047Y-52818571D01*
X19045047Y-52913809D01*
X19521238Y-53009047D01*
X17949809Y-52675714D02*
X17759333Y-53342380D01*
X17568857Y-52866190D01*
X17378380Y-53342380D01*
X17187904Y-52675714D01*
X16806952Y-53342380D02*
X16806952Y-52342380D01*
X16378380Y-53342380D02*
X16378380Y-52818571D01*
X16426000Y-52723333D01*
X16521238Y-52675714D01*
X16664095Y-52675714D01*
X16759333Y-52723333D01*
X16806952Y-52770952D01*
X15521238Y-53294761D02*
X15616476Y-53342380D01*
X15806952Y-53342380D01*
X15902190Y-53294761D01*
X15949809Y-53199523D01*
X15949809Y-52818571D01*
X15902190Y-52723333D01*
X15806952Y-52675714D01*
X15616476Y-52675714D01*
X15521238Y-52723333D01*
X15473619Y-52818571D01*
X15473619Y-52913809D01*
X15949809Y-53009047D01*
X15045047Y-52675714D02*
X15045047Y-53342380D01*
X15045047Y-52770952D02*
X14997428Y-52723333D01*
X14902190Y-52675714D01*
X14759333Y-52675714D01*
X14664095Y-52723333D01*
X14616476Y-52818571D01*
X14616476Y-53342380D01*
X31259333Y-54325714D02*
X31259333Y-55325714D01*
X31259333Y-54373333D02*
X31164095Y-54325714D01*
X30973619Y-54325714D01*
X30878380Y-54373333D01*
X30830761Y-54420952D01*
X30783142Y-54516190D01*
X30783142Y-54801904D01*
X30830761Y-54897142D01*
X30878380Y-54944761D01*
X30973619Y-54992380D01*
X31164095Y-54992380D01*
X31259333Y-54944761D01*
X30211714Y-54992380D02*
X30306952Y-54944761D01*
X30354571Y-54897142D01*
X30402190Y-54801904D01*
X30402190Y-54516190D01*
X30354571Y-54420952D01*
X30306952Y-54373333D01*
X30211714Y-54325714D01*
X30068857Y-54325714D01*
X29973619Y-54373333D01*
X29926000Y-54420952D01*
X29878380Y-54516190D01*
X29878380Y-54801904D01*
X29926000Y-54897142D01*
X29973619Y-54944761D01*
X30068857Y-54992380D01*
X30211714Y-54992380D01*
X29545047Y-54325714D02*
X29354571Y-54992380D01*
X29164095Y-54516190D01*
X28973619Y-54992380D01*
X28783142Y-54325714D01*
X28021238Y-54944761D02*
X28116476Y-54992380D01*
X28306952Y-54992380D01*
X28402190Y-54944761D01*
X28449809Y-54849523D01*
X28449809Y-54468571D01*
X28402190Y-54373333D01*
X28306952Y-54325714D01*
X28116476Y-54325714D01*
X28021238Y-54373333D01*
X27973619Y-54468571D01*
X27973619Y-54563809D01*
X28449809Y-54659047D01*
X27545047Y-54992380D02*
X27545047Y-54325714D01*
X27545047Y-54516190D02*
X27497428Y-54420952D01*
X27449809Y-54373333D01*
X27354571Y-54325714D01*
X27259333Y-54325714D01*
X26545047Y-54944761D02*
X26640285Y-54992380D01*
X26830761Y-54992380D01*
X26926000Y-54944761D01*
X26973619Y-54849523D01*
X26973619Y-54468571D01*
X26926000Y-54373333D01*
X26830761Y-54325714D01*
X26640285Y-54325714D01*
X26545047Y-54373333D01*
X26497428Y-54468571D01*
X26497428Y-54563809D01*
X26973619Y-54659047D01*
X25640285Y-54992380D02*
X25640285Y-53992380D01*
X25640285Y-54944761D02*
X25735523Y-54992380D01*
X25926000Y-54992380D01*
X26021238Y-54944761D01*
X26068857Y-54897142D01*
X26116476Y-54801904D01*
X26116476Y-54516190D01*
X26068857Y-54420952D01*
X26021238Y-54373333D01*
X25926000Y-54325714D01*
X25735523Y-54325714D01*
X25640285Y-54373333D01*
X25116476Y-54944761D02*
X25116476Y-54992380D01*
X25164095Y-55087619D01*
X25211714Y-55135238D01*
X23497428Y-54992380D02*
X23497428Y-53992380D01*
X23497428Y-54944761D02*
X23592666Y-54992380D01*
X23783142Y-54992380D01*
X23878380Y-54944761D01*
X23926000Y-54897142D01*
X23973619Y-54801904D01*
X23973619Y-54516190D01*
X23926000Y-54420952D01*
X23878380Y-54373333D01*
X23783142Y-54325714D01*
X23592666Y-54325714D01*
X23497428Y-54373333D01*
X22878380Y-54992380D02*
X22973619Y-54944761D01*
X23021238Y-54897142D01*
X23068857Y-54801904D01*
X23068857Y-54516190D01*
X23021238Y-54420952D01*
X22973619Y-54373333D01*
X22878380Y-54325714D01*
X22735523Y-54325714D01*
X22640285Y-54373333D01*
X22592666Y-54420952D01*
X22545047Y-54516190D01*
X22545047Y-54801904D01*
X22592666Y-54897142D01*
X22640285Y-54944761D01*
X22735523Y-54992380D01*
X22878380Y-54992380D01*
X21354571Y-54325714D02*
X21354571Y-54992380D01*
X21354571Y-54420952D02*
X21306952Y-54373333D01*
X21211714Y-54325714D01*
X21068857Y-54325714D01*
X20973619Y-54373333D01*
X20926000Y-54468571D01*
X20926000Y-54992380D01*
X20306952Y-54992380D02*
X20402190Y-54944761D01*
X20449809Y-54897142D01*
X20497428Y-54801904D01*
X20497428Y-54516190D01*
X20449809Y-54420952D01*
X20402190Y-54373333D01*
X20306952Y-54325714D01*
X20164095Y-54325714D01*
X20068857Y-54373333D01*
X20021238Y-54420952D01*
X19973619Y-54516190D01*
X19973619Y-54801904D01*
X20021238Y-54897142D01*
X20068857Y-54944761D01*
X20164095Y-54992380D01*
X20306952Y-54992380D01*
X19687904Y-54325714D02*
X19306952Y-54325714D01*
X19545047Y-53992380D02*
X19545047Y-54849523D01*
X19497428Y-54944761D01*
X19402190Y-54992380D01*
X19306952Y-54992380D01*
X18211714Y-54325714D02*
X18211714Y-55182857D01*
X18259333Y-55278095D01*
X18354571Y-55325714D01*
X18402190Y-55325714D01*
X18211714Y-53992380D02*
X18259333Y-54040000D01*
X18211714Y-54087619D01*
X18164095Y-54040000D01*
X18211714Y-53992380D01*
X18211714Y-54087619D01*
X17306952Y-54325714D02*
X17306952Y-54992380D01*
X17735523Y-54325714D02*
X17735523Y-54849523D01*
X17687904Y-54944761D01*
X17592666Y-54992380D01*
X17449809Y-54992380D01*
X17354571Y-54944761D01*
X17306952Y-54897142D01*
X16830761Y-54992380D02*
X16830761Y-54325714D01*
X16830761Y-54420952D02*
X16783142Y-54373333D01*
X16687904Y-54325714D01*
X16545047Y-54325714D01*
X16449809Y-54373333D01*
X16402190Y-54468571D01*
X16402190Y-54992380D01*
X16402190Y-54468571D02*
X16354571Y-54373333D01*
X16259333Y-54325714D01*
X16116476Y-54325714D01*
X16021238Y-54373333D01*
X15973619Y-54468571D01*
X15973619Y-54992380D01*
X15497428Y-54325714D02*
X15497428Y-55325714D01*
X15497428Y-54373333D02*
X15402190Y-54325714D01*
X15211714Y-54325714D01*
X15116476Y-54373333D01*
X15068857Y-54420952D01*
X15021238Y-54516190D01*
X15021238Y-54801904D01*
X15068857Y-54897142D01*
X15116476Y-54944761D01*
X15211714Y-54992380D01*
X15402190Y-54992380D01*
X15497428Y-54944761D01*
X14211714Y-54944761D02*
X14306952Y-54992380D01*
X14497428Y-54992380D01*
X14592666Y-54944761D01*
X14640285Y-54849523D01*
X14640285Y-54468571D01*
X14592666Y-54373333D01*
X14497428Y-54325714D01*
X14306952Y-54325714D01*
X14211714Y-54373333D01*
X14164095Y-54468571D01*
X14164095Y-54563809D01*
X14640285Y-54659047D01*
X13735523Y-54992380D02*
X13735523Y-54325714D01*
X13735523Y-54516190D02*
X13687904Y-54420952D01*
X13640285Y-54373333D01*
X13545047Y-54325714D01*
X13449809Y-54325714D01*
X31354571Y-56642380D02*
X31354571Y-55975714D01*
X31354571Y-56070952D02*
X31306952Y-56023333D01*
X31211714Y-55975714D01*
X31068857Y-55975714D01*
X30973619Y-56023333D01*
X30926000Y-56118571D01*
X30926000Y-56642380D01*
X30926000Y-56118571D02*
X30878380Y-56023333D01*
X30783142Y-55975714D01*
X30640285Y-55975714D01*
X30545047Y-56023333D01*
X30497428Y-56118571D01*
X30497428Y-56642380D01*
X29878380Y-56642380D02*
X29973619Y-56594761D01*
X30021238Y-56547142D01*
X30068857Y-56451904D01*
X30068857Y-56166190D01*
X30021238Y-56070952D01*
X29973619Y-56023333D01*
X29878380Y-55975714D01*
X29735523Y-55975714D01*
X29640285Y-56023333D01*
X29592666Y-56070952D01*
X29545047Y-56166190D01*
X29545047Y-56451904D01*
X29592666Y-56547142D01*
X29640285Y-56594761D01*
X29735523Y-56642380D01*
X29878380Y-56642380D01*
X29116476Y-56642380D02*
X29116476Y-55975714D01*
X29116476Y-56166190D02*
X29068857Y-56070952D01*
X29021238Y-56023333D01*
X28926000Y-55975714D01*
X28830761Y-55975714D01*
X28116476Y-56594761D02*
X28211714Y-56642380D01*
X28402190Y-56642380D01*
X28497428Y-56594761D01*
X28545047Y-56499523D01*
X28545047Y-56118571D01*
X28497428Y-56023333D01*
X28402190Y-55975714D01*
X28211714Y-55975714D01*
X28116476Y-56023333D01*
X28068857Y-56118571D01*
X28068857Y-56213809D01*
X28545047Y-56309047D01*
X27021238Y-55975714D02*
X26640285Y-55975714D01*
X26878380Y-55642380D02*
X26878380Y-56499523D01*
X26830761Y-56594761D01*
X26735523Y-56642380D01*
X26640285Y-56642380D01*
X26306952Y-56642380D02*
X26306952Y-55642380D01*
X25878380Y-56642380D02*
X25878380Y-56118571D01*
X25926000Y-56023333D01*
X26021238Y-55975714D01*
X26164095Y-55975714D01*
X26259333Y-56023333D01*
X26306952Y-56070952D01*
X24973619Y-56642380D02*
X24973619Y-56118571D01*
X25021238Y-56023333D01*
X25116476Y-55975714D01*
X25306952Y-55975714D01*
X25402190Y-56023333D01*
X24973619Y-56594761D02*
X25068857Y-56642380D01*
X25306952Y-56642380D01*
X25402190Y-56594761D01*
X25449809Y-56499523D01*
X25449809Y-56404285D01*
X25402190Y-56309047D01*
X25306952Y-56261428D01*
X25068857Y-56261428D01*
X24973619Y-56213809D01*
X24497428Y-55975714D02*
X24497428Y-56642380D01*
X24497428Y-56070952D02*
X24449809Y-56023333D01*
X24354571Y-55975714D01*
X24211714Y-55975714D01*
X24116476Y-56023333D01*
X24068857Y-56118571D01*
X24068857Y-56642380D01*
X22687904Y-56642380D02*
X22783142Y-56594761D01*
X22830761Y-56547142D01*
X22878380Y-56451904D01*
X22878380Y-56166190D01*
X22830761Y-56070952D01*
X22783142Y-56023333D01*
X22687904Y-55975714D01*
X22545047Y-55975714D01*
X22449809Y-56023333D01*
X22402190Y-56070952D01*
X22354571Y-56166190D01*
X22354571Y-56451904D01*
X22402190Y-56547142D01*
X22449809Y-56594761D01*
X22545047Y-56642380D01*
X22687904Y-56642380D01*
X21926000Y-55975714D02*
X21926000Y-56642380D01*
X21926000Y-56070952D02*
X21878380Y-56023333D01*
X21783142Y-55975714D01*
X21640285Y-55975714D01*
X21545047Y-56023333D01*
X21497428Y-56118571D01*
X21497428Y-56642380D01*
X20640285Y-56594761D02*
X20735523Y-56642380D01*
X20926000Y-56642380D01*
X21021238Y-56594761D01*
X21068857Y-56499523D01*
X21068857Y-56118571D01*
X21021238Y-56023333D01*
X20926000Y-55975714D01*
X20735523Y-55975714D01*
X20640285Y-56023333D01*
X20592666Y-56118571D01*
X20592666Y-56213809D01*
X21068857Y-56309047D01*
X19402190Y-55975714D02*
X19402190Y-56975714D01*
X19402190Y-56023333D02*
X19306952Y-55975714D01*
X19116476Y-55975714D01*
X19021238Y-56023333D01*
X18973619Y-56070952D01*
X18926000Y-56166190D01*
X18926000Y-56451904D01*
X18973619Y-56547142D01*
X19021238Y-56594761D01*
X19116476Y-56642380D01*
X19306952Y-56642380D01*
X19402190Y-56594761D01*
X18116476Y-56594761D02*
X18211714Y-56642380D01*
X18402190Y-56642380D01*
X18497428Y-56594761D01*
X18545047Y-56499523D01*
X18545047Y-56118571D01*
X18497428Y-56023333D01*
X18402190Y-55975714D01*
X18211714Y-55975714D01*
X18116476Y-56023333D01*
X18068857Y-56118571D01*
X18068857Y-56213809D01*
X18545047Y-56309047D01*
X17640285Y-56642380D02*
X17640285Y-55975714D01*
X17640285Y-56166190D02*
X17592666Y-56070952D01*
X17545047Y-56023333D01*
X17449809Y-55975714D01*
X17354571Y-55975714D01*
X16116476Y-56642380D02*
X16211714Y-56594761D01*
X16259333Y-56499523D01*
X16259333Y-55642380D01*
X15735523Y-56642380D02*
X15735523Y-55975714D01*
X15735523Y-55642380D02*
X15783142Y-55690000D01*
X15735523Y-55737619D01*
X15687904Y-55690000D01*
X15735523Y-55642380D01*
X15735523Y-55737619D01*
X15259333Y-55975714D02*
X15259333Y-56642380D01*
X15259333Y-56070952D02*
X15211714Y-56023333D01*
X15116476Y-55975714D01*
X14973619Y-55975714D01*
X14878380Y-56023333D01*
X14830761Y-56118571D01*
X14830761Y-56642380D01*
X13973619Y-56594761D02*
X14068857Y-56642380D01*
X14259333Y-56642380D01*
X14354571Y-56594761D01*
X14402190Y-56499523D01*
X14402190Y-56118571D01*
X14354571Y-56023333D01*
X14259333Y-55975714D01*
X14068857Y-55975714D01*
X13973619Y-56023333D01*
X13926000Y-56118571D01*
X13926000Y-56213809D01*
X14402190Y-56309047D01*
X13497428Y-56547142D02*
X13449809Y-56594761D01*
X13497428Y-56642380D01*
X13545047Y-56594761D01*
X13497428Y-56547142D01*
X13497428Y-56642380D01*
X13497428Y-56261428D02*
X13545047Y-55690000D01*
X13497428Y-55642380D01*
X13449809Y-55690000D01*
X13497428Y-56261428D01*
X13497428Y-55642380D01*
%LPC*%
D12*
%TO.C,TH*%
X27256000Y-73440000D03*
%TD*%
%TO.C,TH*%
X3556000Y-3940000D03*
%TD*%
D13*
%TO.C,RV1*%
X25496000Y-50240000D03*
X22996000Y-45240000D03*
X20496000Y-50240000D03*
%TD*%
D14*
%TO.C,SW2*%
X31166000Y-11900000D03*
D15*
X33656000Y-13150000D03*
X33656000Y-17650000D03*
D14*
X31166000Y-18910000D03*
%TD*%
%TO.C,SW1*%
X31166000Y-43100000D03*
D15*
X33656000Y-44350000D03*
X33656000Y-48850000D03*
D14*
X31166000Y-50110000D03*
%TD*%
D16*
%TO.C,J2*%
X10456000Y-20940000D03*
D17*
X10456000Y-18170000D03*
X10456000Y-15400000D03*
X10456000Y-12630000D03*
X10456000Y-9860000D03*
X7616000Y-19555000D03*
X7616000Y-16785000D03*
X7616000Y-14015000D03*
X7616000Y-11245000D03*
D18*
X9036000Y-2900000D03*
X9036000Y-27900000D03*
%TD*%
D16*
%TO.C,J1*%
X10456000Y-52140000D03*
D17*
X10456000Y-49370000D03*
X10456000Y-46600000D03*
X10456000Y-43830000D03*
X10456000Y-41060000D03*
X7616000Y-50755000D03*
X7616000Y-47985000D03*
X7616000Y-45215000D03*
X7616000Y-42445000D03*
D18*
X9036000Y-34100000D03*
X9036000Y-59100000D03*
%TD*%
D16*
%TO.C,J3*%
X14692000Y-70580000D03*
D17*
X17462000Y-70580000D03*
X20232000Y-70580000D03*
X23002000Y-70580000D03*
X25772000Y-70580000D03*
X16077000Y-73420000D03*
X18847000Y-73420000D03*
X21617000Y-73420000D03*
X24387000Y-73420000D03*
D18*
X7732000Y-72000000D03*
X32732000Y-72000000D03*
%TD*%
D19*
%TO.C,JP1*%
X27656000Y-59440000D03*
D20*
X30196000Y-59440000D03*
%TD*%
D19*
%TO.C,J4*%
X21156000Y-59440000D03*
D20*
X23696000Y-59440000D03*
X21156000Y-61980000D03*
X23696000Y-61980000D03*
X21156000Y-64520000D03*
X23696000Y-64520000D03*
%TD*%
D19*
%TO.C,J5*%
X14656000Y-59440000D03*
D20*
X17196000Y-59440000D03*
X14656000Y-61980000D03*
X17196000Y-61980000D03*
X14656000Y-64520000D03*
X17196000Y-64520000D03*
%TD*%
D19*
%TO.C,JP2*%
X20456000Y-41940000D03*
D20*
X22996000Y-41940000D03*
X25536000Y-41940000D03*
%TD*%
M02*
