%TF.GenerationSoftware,KiCad,Pcbnew,5.1.12-84ad8e8a86~92~ubuntu20.04.1*%
%TF.CreationDate,2021-12-12T16:01:27+01:00*%
%TF.ProjectId,C64 Joystick Switcher,43363420-4a6f-4797-9374-69636b205377,rev?*%
%TF.SameCoordinates,PX5b1e2c0PY21e9a40*%
%TF.FileFunction,Copper,L2,Bot*%
%TF.FilePolarity,Positive*%
%FSLAX46Y46*%
G04 Gerber Fmt 4.6, Leading zero omitted, Abs format (unit mm)*
G04 Created by KiCad (PCBNEW 5.1.12-84ad8e8a86~92~ubuntu20.04.1) date 2021-12-12 16:01:27*
%MOMM*%
%LPD*%
G01*
G04 APERTURE LIST*
%TA.AperFunction,ComponentPad*%
%ADD10C,1.620000*%
%TD*%
%TA.AperFunction,ComponentPad*%
%ADD11C,2.100000*%
%TD*%
%TA.AperFunction,ComponentPad*%
%ADD12C,1.750000*%
%TD*%
%TA.AperFunction,ComponentPad*%
%ADD13R,1.600000X1.600000*%
%TD*%
%TA.AperFunction,ComponentPad*%
%ADD14C,1.600000*%
%TD*%
%TA.AperFunction,ComponentPad*%
%ADD15C,4.800000*%
%TD*%
%TA.AperFunction,ComponentPad*%
%ADD16R,1.700000X1.700000*%
%TD*%
%TA.AperFunction,ComponentPad*%
%ADD17O,1.700000X1.700000*%
%TD*%
%TA.AperFunction,ViaPad*%
%ADD18C,0.900000*%
%TD*%
%TA.AperFunction,ViaPad*%
%ADD19C,0.800000*%
%TD*%
%TA.AperFunction,Conductor*%
%ADD20C,0.250000*%
%TD*%
%TA.AperFunction,Conductor*%
%ADD21C,0.500000*%
%TD*%
%TA.AperFunction,Conductor*%
%ADD22C,0.100000*%
%TD*%
G04 APERTURE END LIST*
D10*
%TO.P,RV1,1*%
%TO.N,Net-(RV1-Pad1)*%
X25496000Y-50240000D03*
%TO.P,RV1,2*%
%TO.N,Net-(R8-Pad2)*%
X22996000Y-45240000D03*
%TO.P,RV1,3*%
%TO.N,VCC*%
X20496000Y-50240000D03*
%TD*%
D11*
%TO.P,SW2,*%
%TO.N,*%
X31166000Y-11900000D03*
D12*
%TO.P,SW2,1*%
%TO.N,GND*%
X33656000Y-13150000D03*
%TO.P,SW2,2*%
%TO.N,Net-(R1-Pad1)*%
X33656000Y-17650000D03*
D11*
%TO.P,SW2,*%
%TO.N,*%
X31166000Y-18910000D03*
%TD*%
%TO.P,SW1,*%
%TO.N,*%
X31166000Y-43100000D03*
D12*
%TO.P,SW1,1*%
%TO.N,Net-(R2-Pad1)*%
X33656000Y-44350000D03*
%TO.P,SW1,2*%
%TO.N,GND*%
X33656000Y-48850000D03*
D11*
%TO.P,SW1,*%
%TO.N,*%
X31166000Y-50110000D03*
%TD*%
D13*
%TO.P,J2,1*%
%TO.N,Net-(J2-Pad1)*%
X10456000Y-20940000D03*
D14*
%TO.P,J2,2*%
%TO.N,Net-(J2-Pad2)*%
X10456000Y-18170000D03*
%TO.P,J2,3*%
%TO.N,Net-(J2-Pad3)*%
X10456000Y-15400000D03*
%TO.P,J2,4*%
%TO.N,Net-(J2-Pad4)*%
X10456000Y-12630000D03*
%TO.P,J2,5*%
%TO.N,Net-(J2-Pad5)*%
X10456000Y-9860000D03*
%TO.P,J2,6*%
%TO.N,Net-(J2-Pad6)*%
X7616000Y-19555000D03*
%TO.P,J2,7*%
%TO.N,VCC*%
X7616000Y-16785000D03*
%TO.P,J2,8*%
%TO.N,GND*%
X7616000Y-14015000D03*
%TO.P,J2,9*%
%TO.N,Net-(J2-Pad9)*%
X7616000Y-11245000D03*
D15*
%TO.P,J2,0*%
%TO.N,N/C*%
X9036000Y-2900000D03*
X9036000Y-27900000D03*
%TD*%
D13*
%TO.P,J1,1*%
%TO.N,Net-(J1-Pad1)*%
X10456000Y-52140000D03*
D14*
%TO.P,J1,2*%
%TO.N,Net-(J1-Pad2)*%
X10456000Y-49370000D03*
%TO.P,J1,3*%
%TO.N,Net-(J1-Pad3)*%
X10456000Y-46600000D03*
%TO.P,J1,4*%
%TO.N,Net-(J1-Pad4)*%
X10456000Y-43830000D03*
%TO.P,J1,5*%
%TO.N,Net-(J1-Pad5)*%
X10456000Y-41060000D03*
%TO.P,J1,6*%
%TO.N,Net-(J1-Pad6)*%
X7616000Y-50755000D03*
%TO.P,J1,7*%
%TO.N,VCC*%
X7616000Y-47985000D03*
%TO.P,J1,8*%
%TO.N,GND*%
X7616000Y-45215000D03*
%TO.P,J1,9*%
%TO.N,Net-(J1-Pad9)*%
X7616000Y-42445000D03*
D15*
%TO.P,J1,0*%
%TO.N,N/C*%
X9036000Y-34100000D03*
X9036000Y-59100000D03*
%TD*%
D13*
%TO.P,J3,1*%
%TO.N,/GP_UP*%
X14692000Y-70580000D03*
D14*
%TO.P,J3,2*%
%TO.N,DOWN*%
X17462000Y-70580000D03*
%TO.P,J3,3*%
%TO.N,LEFT*%
X20232000Y-70580000D03*
%TO.P,J3,4*%
%TO.N,RIGHT*%
X23002000Y-70580000D03*
%TO.P,J3,5*%
%TO.N,Net-(J3-Pad5)*%
X25772000Y-70580000D03*
%TO.P,J3,6*%
%TO.N,/GP_BTN_1*%
X16077000Y-73420000D03*
%TO.P,J3,7*%
%TO.N,VCC*%
X18847000Y-73420000D03*
%TO.P,J3,8*%
%TO.N,GND*%
X21617000Y-73420000D03*
%TO.P,J3,9*%
%TO.N,/GP_BTN_2*%
X24387000Y-73420000D03*
D15*
%TO.P,J3,0*%
%TO.N,N/C*%
X7732000Y-72000000D03*
X32732000Y-72000000D03*
%TD*%
D16*
%TO.P,JP1,1*%
%TO.N,UP*%
X27656000Y-59440000D03*
D17*
%TO.P,JP1,2*%
%TO.N,/GP_UP*%
X30196000Y-59440000D03*
%TD*%
D16*
%TO.P,J4,1*%
%TO.N,/GP_BTN_2*%
X21156000Y-59440000D03*
D17*
%TO.P,J4,2*%
%TO.N,UP*%
X23696000Y-59440000D03*
%TO.P,J4,3*%
%TO.N,/GP_BTN_2*%
X21156000Y-61980000D03*
%TO.P,J4,4*%
%TO.N,FIRE*%
X23696000Y-61980000D03*
%TO.P,J4,5*%
%TO.N,/GP_BTN_2*%
X21156000Y-64520000D03*
%TO.P,J4,6*%
%TO.N,Net-(J4-Pad6)*%
X23696000Y-64520000D03*
%TD*%
D16*
%TO.P,J5,1*%
%TO.N,/GP_BTN_1*%
X14656000Y-59440000D03*
D17*
%TO.P,J5,2*%
%TO.N,UP*%
X17196000Y-59440000D03*
%TO.P,J5,3*%
%TO.N,/GP_BTN_1*%
X14656000Y-61980000D03*
%TO.P,J5,4*%
%TO.N,FIRE*%
X17196000Y-61980000D03*
%TO.P,J5,5*%
%TO.N,/GP_BTN_1*%
X14656000Y-64520000D03*
%TO.P,J5,6*%
%TO.N,Net-(J4-Pad6)*%
X17196000Y-64520000D03*
%TD*%
D16*
%TO.P,JP2,1*%
%TO.N,AUTOFIRE*%
X20456000Y-41940000D03*
D17*
%TO.P,JP2,2*%
%TO.N,Net-(JP2-Pad2)*%
X22996000Y-41940000D03*
%TO.P,JP2,3*%
%TO.N,FIRE*%
X25536000Y-41940000D03*
%TD*%
D18*
%TO.N,PORT*%
X26656000Y-45640000D03*
D19*
X31091000Y-30715000D03*
X24631000Y-11165000D03*
X24631000Y-15565000D03*
D18*
%TO.N,GND*%
X25901000Y-16315000D03*
X23901000Y-23865000D03*
X13631000Y-23865000D03*
X13631000Y-12865000D03*
X13631000Y-3865000D03*
X13631000Y-48600000D03*
X28706000Y-36940000D03*
X31091000Y-25565000D03*
X28551000Y-27315000D03*
X25901000Y-7315000D03*
X14756000Y-37940000D03*
X15756000Y-37940000D03*
D19*
%TO.N,DOWN*%
X27056000Y-20140000D03*
%TO.N,LEFT*%
X20756000Y-15140000D03*
%TO.N,RIGHT*%
X22106000Y-15190000D03*
%TO.N,UP*%
X19551000Y-7115000D03*
%TO.N,FIRE*%
X18281000Y-30715000D03*
%TO.N,Net-(J1-Pad9)*%
X20821000Y-7315000D03*
X24556000Y-20640000D03*
%TO.N,Net-(J2-Pad9)*%
X23361000Y-7315000D03*
%TO.N,ALT_FIRE*%
X22091000Y-7315000D03*
X31956000Y-35940000D03*
%TO.N,Net-(J1-Pad1)*%
X18281000Y-7315000D03*
X15556000Y-19940000D03*
%TO.N,Net-(J1-Pad2)*%
X20821000Y-19715000D03*
%TO.N,Net-(J1-Pad3)*%
X18281000Y-19715000D03*
%TO.N,Net-(J1-Pad4)*%
X16856000Y-21340000D03*
D18*
%TO.N,Net-(J1-Pad6)*%
X4856000Y-54540000D03*
D19*
%TO.N,Net-(J2-Pad1)*%
X16856000Y-9640000D03*
X13556000Y-19090000D03*
%TO.N,Net-(J2-Pad3)*%
X19551000Y-19715000D03*
%TO.N,Net-(J2-Pad4)*%
X16856000Y-10990000D03*
%TO.N,Net-(J2-Pad6)*%
X25901000Y-5765000D03*
D18*
%TO.N,Net-(JP2-Pad2)*%
X7356000Y-54540000D03*
D19*
%TO.N,Net-(R8-Pad2)*%
X19551000Y-25565000D03*
X18456000Y-34640000D03*
%TD*%
D20*
%TO.N,PORT*%
X30156000Y-38240000D02*
X30156000Y-31650000D01*
X30156000Y-31650000D02*
X31091000Y-30715000D01*
X27056000Y-41340000D02*
X30156000Y-38240000D01*
X27056000Y-44240000D02*
X27056000Y-41340000D01*
X26656000Y-44640000D02*
X27056000Y-44240000D01*
X26656000Y-45640000D02*
X26656000Y-44640000D01*
X24631000Y-11165000D02*
X24631000Y-15565000D01*
%TO.N,DOWN*%
X30581000Y-22415000D02*
X28306000Y-20140000D01*
X31531000Y-22415000D02*
X30581000Y-22415000D01*
X33331000Y-24215000D02*
X31531000Y-22415000D01*
X33331000Y-36665000D02*
X33331000Y-24215000D01*
X28256000Y-53740000D02*
X28256000Y-41740000D01*
X28306000Y-20140000D02*
X27056000Y-20140000D01*
X32156000Y-57640000D02*
X28256000Y-53740000D01*
X32156000Y-64040000D02*
X32156000Y-57640000D01*
X28856000Y-67340000D02*
X32156000Y-64040000D01*
X28256000Y-41740000D02*
X33331000Y-36665000D01*
X19156000Y-67340000D02*
X28856000Y-67340000D01*
X17462000Y-69034000D02*
X19156000Y-67340000D01*
X17462000Y-70580000D02*
X17462000Y-69034000D01*
%TO.N,LEFT*%
X20232000Y-70580000D02*
X20232000Y-70279000D01*
X20232000Y-69164000D02*
X20232000Y-70580000D01*
X20756000Y-15140000D02*
X24656000Y-19040000D01*
X28006000Y-19040000D02*
X30781000Y-21815000D01*
X33931000Y-36865000D02*
X28856000Y-41940000D01*
X30781000Y-21815000D02*
X31731000Y-21815000D01*
X31731000Y-21815000D02*
X33931000Y-24015000D01*
X33931000Y-24015000D02*
X33931000Y-36865000D01*
X21456000Y-67940000D02*
X20232000Y-69164000D01*
X28856000Y-41940000D02*
X28856000Y-53440000D01*
X29156000Y-67940000D02*
X21456000Y-67940000D01*
X24656000Y-19040000D02*
X28006000Y-19040000D01*
X32756000Y-64340000D02*
X29156000Y-67940000D01*
X28856000Y-53440000D02*
X32756000Y-57340000D01*
X32756000Y-57340000D02*
X32756000Y-64340000D01*
%TO.N,RIGHT*%
X23002000Y-70580000D02*
X23002000Y-70049000D01*
X22806000Y-15890000D02*
X22106000Y-15190000D01*
X23002000Y-70580000D02*
X23002000Y-69094000D01*
X23002000Y-69094000D02*
X23556000Y-68540000D01*
X24906000Y-18490000D02*
X22806000Y-16390000D01*
X34531000Y-23715000D02*
X32031000Y-21215000D01*
X29456000Y-68540000D02*
X33356000Y-64640000D01*
X23556000Y-68540000D02*
X29456000Y-68540000D01*
X33356000Y-64640000D02*
X33356000Y-57040000D01*
X29456000Y-42140000D02*
X34531000Y-37065000D01*
X33356000Y-57040000D02*
X29456000Y-53140000D01*
X34531000Y-37065000D02*
X34531000Y-23715000D01*
X32031000Y-21215000D02*
X30981000Y-21215000D01*
X30981000Y-21215000D02*
X28256000Y-18490000D01*
X22806000Y-16390000D02*
X22806000Y-15890000D01*
X29456000Y-53140000D02*
X29456000Y-42140000D01*
X28256000Y-18490000D02*
X24906000Y-18490000D01*
D21*
%TO.N,UP*%
X23696000Y-59440000D02*
X27656000Y-59440000D01*
D20*
X27656000Y-41540000D02*
X27656000Y-59440000D01*
X30756000Y-32640000D02*
X30756000Y-38440000D01*
X32131000Y-31265000D02*
X30756000Y-32640000D01*
X19551000Y-7115000D02*
X19551000Y-12445000D01*
X18356000Y-13640000D02*
X18356000Y-16640000D01*
X28656000Y-22240000D02*
X30056000Y-23640000D01*
X30056000Y-23640000D02*
X31006000Y-23640000D01*
X23056000Y-20240000D02*
X23056000Y-20840000D01*
X30756000Y-38440000D02*
X27656000Y-41540000D01*
X19956000Y-18240000D02*
X21056000Y-18240000D01*
X21056000Y-18240000D02*
X23056000Y-20240000D01*
X31006000Y-23640000D02*
X32131000Y-24765000D01*
X19551000Y-12445000D02*
X18356000Y-13640000D01*
X23056000Y-20840000D02*
X24456000Y-22240000D01*
X24456000Y-22240000D02*
X28656000Y-22240000D01*
X18356000Y-16640000D02*
X19956000Y-18240000D01*
X32131000Y-24765000D02*
X32131000Y-31265000D01*
%TO.N,FIRE*%
X25536000Y-37970000D02*
X18281000Y-30715000D01*
X25536000Y-41940000D02*
X25536000Y-37970000D01*
X18816000Y-61980000D02*
X17196000Y-61980000D01*
X19156000Y-61640000D02*
X18816000Y-61980000D01*
X23056000Y-53540000D02*
X19156000Y-57440000D01*
X19156000Y-57440000D02*
X19156000Y-61640000D01*
X23056000Y-49440000D02*
X23056000Y-53540000D01*
X25536000Y-41940000D02*
X25536000Y-46960000D01*
X23056000Y-49440000D02*
X25536000Y-46960000D01*
%TO.N,Net-(J1-Pad9)*%
X20821000Y-12075000D02*
X20821000Y-7315000D01*
X18956000Y-13940000D02*
X20821000Y-12075000D01*
X20256000Y-17640000D02*
X18956000Y-16340000D01*
X21556000Y-17640000D02*
X20256000Y-17640000D01*
X18956000Y-16340000D02*
X18956000Y-13940000D01*
X24556000Y-20640000D02*
X21556000Y-17640000D01*
%TO.N,Net-(J2-Pad9)*%
X23361000Y-6445000D02*
X23361000Y-7315000D01*
X13906000Y-10440000D02*
X18306000Y-6040000D01*
X22956000Y-6040000D02*
X23361000Y-6445000D01*
X12856000Y-10440000D02*
X13906000Y-10440000D01*
X18306000Y-6040000D02*
X22956000Y-6040000D01*
X12051000Y-11245000D02*
X12856000Y-10440000D01*
X7616000Y-11245000D02*
X12051000Y-11245000D01*
%TO.N,ALT_FIRE*%
X19556000Y-14240000D02*
X22091000Y-11705000D01*
X20556000Y-17040000D02*
X19556000Y-16040000D01*
X28956000Y-21640000D02*
X26956000Y-21640000D01*
X19556000Y-16040000D02*
X19556000Y-14240000D01*
X30356000Y-23040000D02*
X28956000Y-21640000D01*
X31256000Y-23040000D02*
X30356000Y-23040000D01*
X32731000Y-24515000D02*
X31256000Y-23040000D01*
X32731000Y-31515000D02*
X32731000Y-24515000D01*
X31956000Y-32290000D02*
X32731000Y-31515000D01*
X22091000Y-11705000D02*
X22091000Y-7315000D01*
X31956000Y-35940000D02*
X31956000Y-32290000D01*
X24556000Y-19740000D02*
X21856000Y-17040000D01*
X21856000Y-17040000D02*
X20556000Y-17040000D01*
X25056000Y-19740000D02*
X24556000Y-19740000D01*
X26956000Y-21640000D02*
X25056000Y-19740000D01*
%TO.N,Net-(J1-Pad1)*%
X18281000Y-8565000D02*
X18281000Y-7315000D01*
X18756000Y-9040000D02*
X18281000Y-8565000D01*
X18756000Y-12340000D02*
X18756000Y-9040000D01*
X17756000Y-13340000D02*
X18756000Y-12340000D01*
X17756000Y-17740000D02*
X17756000Y-13340000D01*
X15556000Y-19940000D02*
X17756000Y-17740000D01*
%TO.N,Net-(J1-Pad2)*%
X13456000Y-46370000D02*
X10456000Y-49370000D01*
X13456000Y-28440000D02*
X13456000Y-46370000D01*
X20821000Y-21075000D02*
X20821000Y-19715000D01*
X13456000Y-28440000D02*
X20821000Y-21075000D01*
%TO.N,Net-(J1-Pad3)*%
X12856000Y-28240000D02*
X18281000Y-22815000D01*
X12856000Y-45540000D02*
X12856000Y-28240000D01*
X18281000Y-22815000D02*
X18281000Y-19715000D01*
X11796000Y-46600000D02*
X12856000Y-45540000D01*
X10456000Y-46600000D02*
X11796000Y-46600000D01*
%TO.N,Net-(J1-Pad4)*%
X12256000Y-43340000D02*
X12256000Y-28040000D01*
X11766000Y-43830000D02*
X12256000Y-43340000D01*
X10456000Y-43830000D02*
X11766000Y-43830000D01*
X16856000Y-23440000D02*
X16856000Y-21340000D01*
X12256000Y-28040000D02*
X16856000Y-23440000D01*
%TO.N,Net-(J1-Pad6)*%
X4856000Y-54540000D02*
X4856000Y-51440000D01*
X5541000Y-50755000D02*
X7616000Y-50755000D01*
X4856000Y-51440000D02*
X5541000Y-50755000D01*
%TO.N,Net-(J2-Pad1)*%
X17556000Y-9640000D02*
X16856000Y-9640000D01*
X17856000Y-9940000D02*
X17556000Y-9640000D01*
X17856000Y-12340000D02*
X17856000Y-9940000D01*
X17156000Y-13040000D02*
X17856000Y-12340000D01*
X17156000Y-15490000D02*
X17156000Y-13040000D01*
X13556000Y-19090000D02*
X17156000Y-15490000D01*
%TO.N,Net-(J2-Pad3)*%
X19551000Y-19035000D02*
X19551000Y-19715000D01*
X19256000Y-18740000D02*
X19551000Y-19035000D01*
X17656000Y-18740000D02*
X19256000Y-18740000D01*
X16956000Y-19440000D02*
X17656000Y-18740000D01*
X16956000Y-19890000D02*
X16956000Y-19440000D01*
X16006000Y-20840000D02*
X16956000Y-19890000D01*
X13056000Y-20840000D02*
X16006000Y-20840000D01*
X12056000Y-19840000D02*
X13056000Y-20840000D01*
X12056000Y-15840000D02*
X12056000Y-19840000D01*
X11616000Y-15400000D02*
X12056000Y-15840000D01*
X10456000Y-15400000D02*
X11616000Y-15400000D01*
%TO.N,Net-(J2-Pad4)*%
X11566000Y-12630000D02*
X13206000Y-10990000D01*
X10456000Y-12630000D02*
X11566000Y-12630000D01*
X16856000Y-10990000D02*
X13206000Y-10990000D01*
%TO.N,Net-(J2-Pad6)*%
X17106000Y-3440000D02*
X23576000Y-3440000D01*
X13306000Y-7240000D02*
X17106000Y-3440000D01*
X23576000Y-3440000D02*
X25901000Y-5765000D01*
X6106000Y-7240000D02*
X13306000Y-7240000D01*
X5106000Y-8240000D02*
X6106000Y-7240000D01*
X5106000Y-18990000D02*
X5106000Y-8240000D01*
X5671000Y-19555000D02*
X5106000Y-18990000D01*
X7616000Y-19555000D02*
X5671000Y-19555000D01*
D21*
%TO.N,/GP_UP*%
X14692000Y-67104000D02*
X14692000Y-70580000D01*
X15456000Y-66340000D02*
X14692000Y-67104000D01*
X15456000Y-66340000D02*
X28356000Y-66340000D01*
X30196000Y-64500000D02*
X30196000Y-59440000D01*
X28356000Y-66340000D02*
X30196000Y-64500000D01*
%TO.N,/GP_BTN_2*%
X21156000Y-64520000D02*
X21156000Y-61980000D01*
X21156000Y-59440000D02*
X21156000Y-61980000D01*
D20*
%TO.N,Net-(JP2-Pad2)*%
X22356000Y-49040000D02*
X24756000Y-46640000D01*
X22356000Y-53040000D02*
X22356000Y-49040000D01*
X20856000Y-54540000D02*
X22356000Y-53040000D01*
X7356000Y-54540000D02*
X20856000Y-54540000D01*
X24756000Y-43700000D02*
X22996000Y-41940000D01*
X24756000Y-46640000D02*
X24756000Y-43700000D01*
%TO.N,Net-(R8-Pad2)*%
X15756000Y-31940000D02*
X18456000Y-34640000D01*
X15756000Y-29360000D02*
X19551000Y-25565000D01*
X15756000Y-31940000D02*
X15756000Y-29360000D01*
%TD*%
%TO.N,GND*%
X7171421Y-628004D02*
X6764004Y-1035421D01*
X6443898Y-1514493D01*
X6223406Y-2046809D01*
X6111000Y-2611913D01*
X6111000Y-3188087D01*
X6223406Y-3753191D01*
X6443898Y-4285507D01*
X6764004Y-4764579D01*
X7171421Y-5171996D01*
X7650493Y-5492102D01*
X8182809Y-5712594D01*
X8747913Y-5825000D01*
X9324087Y-5825000D01*
X9889191Y-5712594D01*
X10421507Y-5492102D01*
X10900579Y-5171996D01*
X11307996Y-4764579D01*
X11628102Y-4285507D01*
X11848594Y-3753191D01*
X11961000Y-3188087D01*
X11961000Y-2611913D01*
X11848594Y-2046809D01*
X11628102Y-1514493D01*
X11307996Y-1035421D01*
X10900579Y-628004D01*
X10858668Y-600000D01*
X35013659Y-600000D01*
X35172577Y-615582D01*
X35297219Y-653214D01*
X35412179Y-714339D01*
X35513079Y-796630D01*
X35596068Y-896946D01*
X35657996Y-1011481D01*
X35696498Y-1135859D01*
X35713000Y-1292871D01*
X35713001Y-80615649D01*
X35697418Y-80774576D01*
X35659786Y-80899220D01*
X35598661Y-81014180D01*
X35516368Y-81115080D01*
X35416051Y-81198070D01*
X35301520Y-81259995D01*
X35177141Y-81298498D01*
X35020129Y-81315000D01*
X5450341Y-81315000D01*
X5291424Y-81299418D01*
X5166780Y-81261786D01*
X5051820Y-81200661D01*
X4950920Y-81118368D01*
X4867930Y-81018051D01*
X4806005Y-80903520D01*
X4767502Y-80779141D01*
X4751000Y-80622129D01*
X4751000Y-71711913D01*
X4807000Y-71711913D01*
X4807000Y-72288087D01*
X4919406Y-72853191D01*
X5139898Y-73385507D01*
X5460004Y-73864579D01*
X5867421Y-74271996D01*
X6346493Y-74592102D01*
X6878809Y-74812594D01*
X7443913Y-74925000D01*
X8020087Y-74925000D01*
X8585191Y-74812594D01*
X9117507Y-74592102D01*
X9596579Y-74271996D01*
X10003996Y-73864579D01*
X10324102Y-73385507D01*
X10363869Y-73289499D01*
X14752000Y-73289499D01*
X14752000Y-73550501D01*
X14802919Y-73806488D01*
X14902800Y-74047623D01*
X15047805Y-74264638D01*
X15232362Y-74449195D01*
X15449377Y-74594200D01*
X15690512Y-74694081D01*
X15946499Y-74745000D01*
X16207501Y-74745000D01*
X16463488Y-74694081D01*
X16704623Y-74594200D01*
X16921638Y-74449195D01*
X17106195Y-74264638D01*
X17251200Y-74047623D01*
X17351081Y-73806488D01*
X17402000Y-73550501D01*
X17402000Y-73289499D01*
X17522000Y-73289499D01*
X17522000Y-73550501D01*
X17572919Y-73806488D01*
X17672800Y-74047623D01*
X17817805Y-74264638D01*
X18002362Y-74449195D01*
X18219377Y-74594200D01*
X18460512Y-74694081D01*
X18716499Y-74745000D01*
X18977501Y-74745000D01*
X19233488Y-74694081D01*
X19474623Y-74594200D01*
X19691638Y-74449195D01*
X19820817Y-74320016D01*
X20823050Y-74320016D01*
X20896334Y-74539508D01*
X21128586Y-74658592D01*
X21379608Y-74730077D01*
X21639753Y-74751217D01*
X21899023Y-74721199D01*
X22147455Y-74641177D01*
X22337666Y-74539508D01*
X22410950Y-74320016D01*
X21617000Y-73526066D01*
X20823050Y-74320016D01*
X19820817Y-74320016D01*
X19876195Y-74264638D01*
X20021200Y-74047623D01*
X20121081Y-73806488D01*
X20172000Y-73550501D01*
X20172000Y-73442753D01*
X20285783Y-73442753D01*
X20315801Y-73702023D01*
X20395823Y-73950455D01*
X20497492Y-74140666D01*
X20716984Y-74213950D01*
X21510934Y-73420000D01*
X21723066Y-73420000D01*
X22517016Y-74213950D01*
X22736508Y-74140666D01*
X22855592Y-73908414D01*
X22927077Y-73657392D01*
X22948217Y-73397247D01*
X22935743Y-73289499D01*
X23062000Y-73289499D01*
X23062000Y-73550501D01*
X23112919Y-73806488D01*
X23212800Y-74047623D01*
X23357805Y-74264638D01*
X23542362Y-74449195D01*
X23759377Y-74594200D01*
X24000512Y-74694081D01*
X24256499Y-74745000D01*
X24517501Y-74745000D01*
X24773488Y-74694081D01*
X25014623Y-74594200D01*
X25231638Y-74449195D01*
X25416195Y-74264638D01*
X25561200Y-74047623D01*
X25661081Y-73806488D01*
X25712000Y-73550501D01*
X25712000Y-73331561D01*
X26155000Y-73331561D01*
X26155000Y-73548439D01*
X26197311Y-73761150D01*
X26280307Y-73961519D01*
X26400798Y-74141846D01*
X26554154Y-74295202D01*
X26734481Y-74415693D01*
X26934850Y-74498689D01*
X27147561Y-74541000D01*
X27364439Y-74541000D01*
X27577150Y-74498689D01*
X27777519Y-74415693D01*
X27957846Y-74295202D01*
X28111202Y-74141846D01*
X28231693Y-73961519D01*
X28314689Y-73761150D01*
X28357000Y-73548439D01*
X28357000Y-73331561D01*
X28314689Y-73118850D01*
X28231693Y-72918481D01*
X28111202Y-72738154D01*
X27957846Y-72584798D01*
X27777519Y-72464307D01*
X27577150Y-72381311D01*
X27364439Y-72339000D01*
X27147561Y-72339000D01*
X26934850Y-72381311D01*
X26734481Y-72464307D01*
X26554154Y-72584798D01*
X26400798Y-72738154D01*
X26280307Y-72918481D01*
X26197311Y-73118850D01*
X26155000Y-73331561D01*
X25712000Y-73331561D01*
X25712000Y-73289499D01*
X25661081Y-73033512D01*
X25561200Y-72792377D01*
X25416195Y-72575362D01*
X25231638Y-72390805D01*
X25014623Y-72245800D01*
X24773488Y-72145919D01*
X24517501Y-72095000D01*
X24256499Y-72095000D01*
X24000512Y-72145919D01*
X23759377Y-72245800D01*
X23542362Y-72390805D01*
X23357805Y-72575362D01*
X23212800Y-72792377D01*
X23112919Y-73033512D01*
X23062000Y-73289499D01*
X22935743Y-73289499D01*
X22918199Y-73137977D01*
X22838177Y-72889545D01*
X22736508Y-72699334D01*
X22517016Y-72626050D01*
X21723066Y-73420000D01*
X21510934Y-73420000D01*
X20716984Y-72626050D01*
X20497492Y-72699334D01*
X20378408Y-72931586D01*
X20306923Y-73182608D01*
X20285783Y-73442753D01*
X20172000Y-73442753D01*
X20172000Y-73289499D01*
X20121081Y-73033512D01*
X20021200Y-72792377D01*
X19876195Y-72575362D01*
X19820817Y-72519984D01*
X20823050Y-72519984D01*
X21617000Y-73313934D01*
X22410950Y-72519984D01*
X22337666Y-72300492D01*
X22105414Y-72181408D01*
X21854392Y-72109923D01*
X21594247Y-72088783D01*
X21334977Y-72118801D01*
X21086545Y-72198823D01*
X20896334Y-72300492D01*
X20823050Y-72519984D01*
X19820817Y-72519984D01*
X19691638Y-72390805D01*
X19474623Y-72245800D01*
X19233488Y-72145919D01*
X18977501Y-72095000D01*
X18716499Y-72095000D01*
X18460512Y-72145919D01*
X18219377Y-72245800D01*
X18002362Y-72390805D01*
X17817805Y-72575362D01*
X17672800Y-72792377D01*
X17572919Y-73033512D01*
X17522000Y-73289499D01*
X17402000Y-73289499D01*
X17351081Y-73033512D01*
X17251200Y-72792377D01*
X17106195Y-72575362D01*
X16921638Y-72390805D01*
X16704623Y-72245800D01*
X16463488Y-72145919D01*
X16207501Y-72095000D01*
X15946499Y-72095000D01*
X15690512Y-72145919D01*
X15449377Y-72245800D01*
X15232362Y-72390805D01*
X15047805Y-72575362D01*
X14902800Y-72792377D01*
X14802919Y-73033512D01*
X14752000Y-73289499D01*
X10363869Y-73289499D01*
X10544594Y-72853191D01*
X10657000Y-72288087D01*
X10657000Y-71711913D01*
X10544594Y-71146809D01*
X10324102Y-70614493D01*
X10003996Y-70135421D01*
X9596579Y-69728004D01*
X9117507Y-69407898D01*
X8585191Y-69187406D01*
X8020087Y-69075000D01*
X7443913Y-69075000D01*
X6878809Y-69187406D01*
X6346493Y-69407898D01*
X5867421Y-69728004D01*
X5460004Y-70135421D01*
X5139898Y-70614493D01*
X4919406Y-71146809D01*
X4807000Y-71711913D01*
X4751000Y-71711913D01*
X4751000Y-62005473D01*
X4753903Y-61976000D01*
X4742318Y-61858379D01*
X4708010Y-61745279D01*
X4652296Y-61641045D01*
X4577317Y-61549683D01*
X4485955Y-61474704D01*
X4381721Y-61418990D01*
X4268621Y-61384682D01*
X4180474Y-61376000D01*
X4151000Y-61373097D01*
X4121526Y-61376000D01*
X600000Y-61376000D01*
X600000Y-58811913D01*
X6111000Y-58811913D01*
X6111000Y-59388087D01*
X6223406Y-59953191D01*
X6443898Y-60485507D01*
X6764004Y-60964579D01*
X7171421Y-61371996D01*
X7650493Y-61692102D01*
X8182809Y-61912594D01*
X8747913Y-62025000D01*
X9324087Y-62025000D01*
X9889191Y-61912594D01*
X10421507Y-61692102D01*
X10900579Y-61371996D01*
X11307996Y-60964579D01*
X11628102Y-60485507D01*
X11848594Y-59953191D01*
X11961000Y-59388087D01*
X11961000Y-58811913D01*
X11848594Y-58246809D01*
X11628102Y-57714493D01*
X11307996Y-57235421D01*
X10900579Y-56828004D01*
X10421507Y-56507898D01*
X9889191Y-56287406D01*
X9324087Y-56175000D01*
X8747913Y-56175000D01*
X8182809Y-56287406D01*
X7650493Y-56507898D01*
X7171421Y-56828004D01*
X6764004Y-57235421D01*
X6443898Y-57714493D01*
X6223406Y-58246809D01*
X6111000Y-58811913D01*
X600000Y-58811913D01*
X600000Y-54443971D01*
X3881000Y-54443971D01*
X3881000Y-54636029D01*
X3918468Y-54824397D01*
X3991966Y-55001836D01*
X4098668Y-55161527D01*
X4234473Y-55297332D01*
X4394164Y-55404034D01*
X4571603Y-55477532D01*
X4759971Y-55515000D01*
X4952029Y-55515000D01*
X5140397Y-55477532D01*
X5317836Y-55404034D01*
X5477527Y-55297332D01*
X5613332Y-55161527D01*
X5720034Y-55001836D01*
X5793532Y-54824397D01*
X5831000Y-54636029D01*
X5831000Y-54443971D01*
X5793532Y-54255603D01*
X5720034Y-54078164D01*
X5613332Y-53918473D01*
X5506000Y-53811141D01*
X5506000Y-51709238D01*
X5810239Y-51405000D01*
X6456752Y-51405000D01*
X6586805Y-51599638D01*
X6771362Y-51784195D01*
X6988377Y-51929200D01*
X7229512Y-52029081D01*
X7485499Y-52080000D01*
X7746501Y-52080000D01*
X8002488Y-52029081D01*
X8243623Y-51929200D01*
X8460638Y-51784195D01*
X8645195Y-51599638D01*
X8790200Y-51382623D01*
X8807854Y-51340000D01*
X9128460Y-51340000D01*
X9128460Y-52940000D01*
X9138597Y-53042918D01*
X9168617Y-53141881D01*
X9217367Y-53233086D01*
X9282973Y-53313027D01*
X9362914Y-53378633D01*
X9454119Y-53427383D01*
X9553082Y-53457403D01*
X9656000Y-53467540D01*
X11256000Y-53467540D01*
X11358918Y-53457403D01*
X11457881Y-53427383D01*
X11549086Y-53378633D01*
X11629027Y-53313027D01*
X11694633Y-53233086D01*
X11743383Y-53141881D01*
X11773403Y-53042918D01*
X11783540Y-52940000D01*
X11783540Y-51340000D01*
X11773403Y-51237082D01*
X11743383Y-51138119D01*
X11694633Y-51046914D01*
X11629027Y-50966973D01*
X11549086Y-50901367D01*
X11457881Y-50852617D01*
X11358918Y-50822597D01*
X11256000Y-50812460D01*
X9656000Y-50812460D01*
X9553082Y-50822597D01*
X9454119Y-50852617D01*
X9362914Y-50901367D01*
X9282973Y-50966973D01*
X9217367Y-51046914D01*
X9168617Y-51138119D01*
X9138597Y-51237082D01*
X9128460Y-51340000D01*
X8807854Y-51340000D01*
X8890081Y-51141488D01*
X8941000Y-50885501D01*
X8941000Y-50624499D01*
X8890081Y-50368512D01*
X8790200Y-50127377D01*
X8645195Y-49910362D01*
X8460638Y-49725805D01*
X8243623Y-49580800D01*
X8002488Y-49480919D01*
X7746501Y-49430000D01*
X7485499Y-49430000D01*
X7229512Y-49480919D01*
X6988377Y-49580800D01*
X6771362Y-49725805D01*
X6586805Y-49910362D01*
X6456752Y-50105000D01*
X5572920Y-50105000D01*
X5540999Y-50101856D01*
X5509078Y-50105000D01*
X5509068Y-50105000D01*
X5413578Y-50114405D01*
X5291052Y-50151573D01*
X5178132Y-50211930D01*
X5178130Y-50211931D01*
X5178131Y-50211931D01*
X5103959Y-50272802D01*
X5103957Y-50272804D01*
X5079157Y-50293157D01*
X5058804Y-50317957D01*
X4418957Y-50957805D01*
X4394158Y-50978157D01*
X4373805Y-51002957D01*
X4373802Y-51002960D01*
X4312930Y-51077132D01*
X4252573Y-51190053D01*
X4226210Y-51276962D01*
X4215406Y-51312578D01*
X4207230Y-51395595D01*
X4202856Y-51440000D01*
X4206001Y-51471931D01*
X4206000Y-53811141D01*
X4098668Y-53918473D01*
X3991966Y-54078164D01*
X3918468Y-54255603D01*
X3881000Y-54443971D01*
X600000Y-54443971D01*
X600000Y-47854499D01*
X6291000Y-47854499D01*
X6291000Y-48115501D01*
X6341919Y-48371488D01*
X6441800Y-48612623D01*
X6586805Y-48829638D01*
X6771362Y-49014195D01*
X6988377Y-49159200D01*
X7229512Y-49259081D01*
X7485499Y-49310000D01*
X7746501Y-49310000D01*
X8002488Y-49259081D01*
X8243623Y-49159200D01*
X8460638Y-49014195D01*
X8645195Y-48829638D01*
X8790200Y-48612623D01*
X8890081Y-48371488D01*
X8941000Y-48115501D01*
X8941000Y-47854499D01*
X8890081Y-47598512D01*
X8790200Y-47357377D01*
X8645195Y-47140362D01*
X8460638Y-46955805D01*
X8243623Y-46810800D01*
X8002488Y-46710919D01*
X7746501Y-46660000D01*
X7485499Y-46660000D01*
X7229512Y-46710919D01*
X6988377Y-46810800D01*
X6771362Y-46955805D01*
X6586805Y-47140362D01*
X6441800Y-47357377D01*
X6341919Y-47598512D01*
X6291000Y-47854499D01*
X600000Y-47854499D01*
X600000Y-46115016D01*
X6822050Y-46115016D01*
X6895334Y-46334508D01*
X7127586Y-46453592D01*
X7378608Y-46525077D01*
X7638753Y-46546217D01*
X7898023Y-46516199D01*
X8146455Y-46436177D01*
X8336666Y-46334508D01*
X8409950Y-46115016D01*
X7616000Y-45321066D01*
X6822050Y-46115016D01*
X600000Y-46115016D01*
X600000Y-45237753D01*
X6284783Y-45237753D01*
X6314801Y-45497023D01*
X6394823Y-45745455D01*
X6496492Y-45935666D01*
X6715984Y-46008950D01*
X7509934Y-45215000D01*
X7722066Y-45215000D01*
X8516016Y-46008950D01*
X8735508Y-45935666D01*
X8854592Y-45703414D01*
X8926077Y-45452392D01*
X8947217Y-45192247D01*
X8917199Y-44932977D01*
X8837177Y-44684545D01*
X8735508Y-44494334D01*
X8516016Y-44421050D01*
X7722066Y-45215000D01*
X7509934Y-45215000D01*
X6715984Y-44421050D01*
X6496492Y-44494334D01*
X6377408Y-44726586D01*
X6305923Y-44977608D01*
X6284783Y-45237753D01*
X600000Y-45237753D01*
X600000Y-44314984D01*
X6822050Y-44314984D01*
X7616000Y-45108934D01*
X8409950Y-44314984D01*
X8336666Y-44095492D01*
X8104414Y-43976408D01*
X7853392Y-43904923D01*
X7593247Y-43883783D01*
X7333977Y-43913801D01*
X7085545Y-43993823D01*
X6895334Y-44095492D01*
X6822050Y-44314984D01*
X600000Y-44314984D01*
X600000Y-42314499D01*
X6291000Y-42314499D01*
X6291000Y-42575501D01*
X6341919Y-42831488D01*
X6441800Y-43072623D01*
X6586805Y-43289638D01*
X6771362Y-43474195D01*
X6988377Y-43619200D01*
X7229512Y-43719081D01*
X7485499Y-43770000D01*
X7746501Y-43770000D01*
X8002488Y-43719081D01*
X8243623Y-43619200D01*
X8460638Y-43474195D01*
X8645195Y-43289638D01*
X8790200Y-43072623D01*
X8890081Y-42831488D01*
X8941000Y-42575501D01*
X8941000Y-42314499D01*
X8890081Y-42058512D01*
X8790200Y-41817377D01*
X8645195Y-41600362D01*
X8460638Y-41415805D01*
X8243623Y-41270800D01*
X8002488Y-41170919D01*
X7746501Y-41120000D01*
X7485499Y-41120000D01*
X7229512Y-41170919D01*
X6988377Y-41270800D01*
X6771362Y-41415805D01*
X6586805Y-41600362D01*
X6441800Y-41817377D01*
X6341919Y-42058512D01*
X6291000Y-42314499D01*
X600000Y-42314499D01*
X600000Y-27611913D01*
X6111000Y-27611913D01*
X6111000Y-28188087D01*
X6223406Y-28753191D01*
X6443898Y-29285507D01*
X6764004Y-29764579D01*
X7171421Y-30171996D01*
X7650493Y-30492102D01*
X8182809Y-30712594D01*
X8747913Y-30825000D01*
X9324087Y-30825000D01*
X9889191Y-30712594D01*
X10421507Y-30492102D01*
X10900579Y-30171996D01*
X11307996Y-29764579D01*
X11606001Y-29318584D01*
X11606001Y-32681416D01*
X11307996Y-32235421D01*
X10900579Y-31828004D01*
X10421507Y-31507898D01*
X9889191Y-31287406D01*
X9324087Y-31175000D01*
X8747913Y-31175000D01*
X8182809Y-31287406D01*
X7650493Y-31507898D01*
X7171421Y-31828004D01*
X6764004Y-32235421D01*
X6443898Y-32714493D01*
X6223406Y-33246809D01*
X6111000Y-33811913D01*
X6111000Y-34388087D01*
X6223406Y-34953191D01*
X6443898Y-35485507D01*
X6764004Y-35964579D01*
X7171421Y-36371996D01*
X7650493Y-36692102D01*
X8182809Y-36912594D01*
X8747913Y-37025000D01*
X9324087Y-37025000D01*
X9889191Y-36912594D01*
X10421507Y-36692102D01*
X10900579Y-36371996D01*
X11307996Y-35964579D01*
X11606001Y-35518584D01*
X11606000Y-40396159D01*
X11485195Y-40215362D01*
X11300638Y-40030805D01*
X11083623Y-39885800D01*
X10842488Y-39785919D01*
X10586501Y-39735000D01*
X10325499Y-39735000D01*
X10069512Y-39785919D01*
X9828377Y-39885800D01*
X9611362Y-40030805D01*
X9426805Y-40215362D01*
X9281800Y-40432377D01*
X9181919Y-40673512D01*
X9131000Y-40929499D01*
X9131000Y-41190501D01*
X9181919Y-41446488D01*
X9281800Y-41687623D01*
X9426805Y-41904638D01*
X9611362Y-42089195D01*
X9828377Y-42234200D01*
X10069512Y-42334081D01*
X10325499Y-42385000D01*
X10586501Y-42385000D01*
X10842488Y-42334081D01*
X11083623Y-42234200D01*
X11300638Y-42089195D01*
X11485195Y-41904638D01*
X11606000Y-41723841D01*
X11606000Y-43070762D01*
X11567789Y-43108973D01*
X11485195Y-42985362D01*
X11300638Y-42800805D01*
X11083623Y-42655800D01*
X10842488Y-42555919D01*
X10586501Y-42505000D01*
X10325499Y-42505000D01*
X10069512Y-42555919D01*
X9828377Y-42655800D01*
X9611362Y-42800805D01*
X9426805Y-42985362D01*
X9281800Y-43202377D01*
X9181919Y-43443512D01*
X9131000Y-43699499D01*
X9131000Y-43960501D01*
X9181919Y-44216488D01*
X9281800Y-44457623D01*
X9426805Y-44674638D01*
X9611362Y-44859195D01*
X9828377Y-45004200D01*
X10069512Y-45104081D01*
X10325499Y-45155000D01*
X10586501Y-45155000D01*
X10842488Y-45104081D01*
X11083623Y-45004200D01*
X11300638Y-44859195D01*
X11485195Y-44674638D01*
X11615248Y-44480000D01*
X11734079Y-44480000D01*
X11766000Y-44483144D01*
X11797921Y-44480000D01*
X11797932Y-44480000D01*
X11893422Y-44470595D01*
X12015948Y-44433427D01*
X12128868Y-44373070D01*
X12206000Y-44309769D01*
X12206000Y-45270761D01*
X11579805Y-45896956D01*
X11485195Y-45755362D01*
X11300638Y-45570805D01*
X11083623Y-45425800D01*
X10842488Y-45325919D01*
X10586501Y-45275000D01*
X10325499Y-45275000D01*
X10069512Y-45325919D01*
X9828377Y-45425800D01*
X9611362Y-45570805D01*
X9426805Y-45755362D01*
X9281800Y-45972377D01*
X9181919Y-46213512D01*
X9131000Y-46469499D01*
X9131000Y-46730501D01*
X9181919Y-46986488D01*
X9281800Y-47227623D01*
X9426805Y-47444638D01*
X9611362Y-47629195D01*
X9828377Y-47774200D01*
X10069512Y-47874081D01*
X10325499Y-47925000D01*
X10586501Y-47925000D01*
X10842488Y-47874081D01*
X11083623Y-47774200D01*
X11231109Y-47675653D01*
X10816093Y-48090669D01*
X10586501Y-48045000D01*
X10325499Y-48045000D01*
X10069512Y-48095919D01*
X9828377Y-48195800D01*
X9611362Y-48340805D01*
X9426805Y-48525362D01*
X9281800Y-48742377D01*
X9181919Y-48983512D01*
X9131000Y-49239499D01*
X9131000Y-49500501D01*
X9181919Y-49756488D01*
X9281800Y-49997623D01*
X9426805Y-50214638D01*
X9611362Y-50399195D01*
X9828377Y-50544200D01*
X10069512Y-50644081D01*
X10325499Y-50695000D01*
X10586501Y-50695000D01*
X10842488Y-50644081D01*
X11083623Y-50544200D01*
X11300638Y-50399195D01*
X11485195Y-50214638D01*
X11630200Y-49997623D01*
X11730081Y-49756488D01*
X11781000Y-49500501D01*
X11781000Y-49239499D01*
X11735331Y-49009907D01*
X13893038Y-46852200D01*
X13917843Y-46831843D01*
X13999070Y-46732868D01*
X14059427Y-46619948D01*
X14096595Y-46497422D01*
X14106000Y-46401932D01*
X14106000Y-46401924D01*
X14109144Y-46370000D01*
X14106000Y-46338076D01*
X14106000Y-29360000D01*
X15102856Y-29360000D01*
X15106001Y-29391931D01*
X15106000Y-31908078D01*
X15102856Y-31940000D01*
X15106000Y-31971921D01*
X15106000Y-31971931D01*
X15115405Y-32067421D01*
X15148997Y-32178157D01*
X15152573Y-32189947D01*
X15212930Y-32302868D01*
X15213157Y-32303144D01*
X15294157Y-32401843D01*
X15318962Y-32422200D01*
X17531000Y-34634239D01*
X17531000Y-34731105D01*
X17566547Y-34909813D01*
X17636275Y-35078152D01*
X17737505Y-35229653D01*
X17866347Y-35358495D01*
X18017848Y-35459725D01*
X18186187Y-35529453D01*
X18364895Y-35565000D01*
X18547105Y-35565000D01*
X18725813Y-35529453D01*
X18894152Y-35459725D01*
X19045653Y-35358495D01*
X19174495Y-35229653D01*
X19275725Y-35078152D01*
X19345453Y-34909813D01*
X19381000Y-34731105D01*
X19381000Y-34548895D01*
X19345453Y-34370187D01*
X19275725Y-34201848D01*
X19174495Y-34050347D01*
X19045653Y-33921505D01*
X18894152Y-33820275D01*
X18725813Y-33750547D01*
X18547105Y-33715000D01*
X18450239Y-33715000D01*
X16406000Y-31670762D01*
X16406000Y-29629238D01*
X19545239Y-26490000D01*
X19642105Y-26490000D01*
X19820813Y-26454453D01*
X19989152Y-26384725D01*
X20140653Y-26283495D01*
X20269495Y-26154653D01*
X20370725Y-26003152D01*
X20440453Y-25834813D01*
X20476000Y-25656105D01*
X20476000Y-25473895D01*
X20440453Y-25295187D01*
X20370725Y-25126848D01*
X20269495Y-24975347D01*
X20140653Y-24846505D01*
X19989152Y-24745275D01*
X19820813Y-24675547D01*
X19642105Y-24640000D01*
X19459895Y-24640000D01*
X19281187Y-24675547D01*
X19112848Y-24745275D01*
X18961347Y-24846505D01*
X18832505Y-24975347D01*
X18731275Y-25126848D01*
X18661547Y-25295187D01*
X18626000Y-25473895D01*
X18626000Y-25570761D01*
X15318957Y-28877805D01*
X15294158Y-28898157D01*
X15273805Y-28922957D01*
X15273802Y-28922960D01*
X15212930Y-28997132D01*
X15152573Y-29110053D01*
X15115406Y-29232578D01*
X15102856Y-29360000D01*
X14106000Y-29360000D01*
X14106000Y-28709238D01*
X21258039Y-21557199D01*
X21282843Y-21536843D01*
X21341847Y-21464947D01*
X21364070Y-21437869D01*
X21424427Y-21324948D01*
X21425261Y-21322198D01*
X21461595Y-21202422D01*
X21471000Y-21106932D01*
X21471000Y-21106921D01*
X21474144Y-21075000D01*
X21471000Y-21043079D01*
X21471000Y-20373148D01*
X21539495Y-20304653D01*
X21640725Y-20153152D01*
X21710453Y-19984813D01*
X21738844Y-19842082D01*
X22406000Y-20509239D01*
X22406000Y-20808079D01*
X22402856Y-20840000D01*
X22406000Y-20871921D01*
X22406000Y-20871932D01*
X22415405Y-20967422D01*
X22452573Y-21089948D01*
X22469811Y-21122198D01*
X22512930Y-21202868D01*
X22573802Y-21277040D01*
X22573805Y-21277043D01*
X22594158Y-21301843D01*
X22618957Y-21322195D01*
X23973804Y-22677043D01*
X23994157Y-22701843D01*
X24018957Y-22722196D01*
X24018959Y-22722198D01*
X24093131Y-22783070D01*
X24193231Y-22836574D01*
X24206052Y-22843427D01*
X24328578Y-22880595D01*
X24424068Y-22890000D01*
X24424078Y-22890000D01*
X24456000Y-22893144D01*
X24487921Y-22890000D01*
X28386762Y-22890000D01*
X29573804Y-24077043D01*
X29594157Y-24101843D01*
X29618957Y-24122196D01*
X29618959Y-24122198D01*
X29693131Y-24183070D01*
X29765834Y-24221930D01*
X29806052Y-24243427D01*
X29928578Y-24280595D01*
X30024068Y-24290000D01*
X30024078Y-24290000D01*
X30056000Y-24293144D01*
X30087921Y-24290000D01*
X30736762Y-24290000D01*
X31481000Y-25034239D01*
X31481001Y-29875330D01*
X31360813Y-29825547D01*
X31182105Y-29790000D01*
X30999895Y-29790000D01*
X30821187Y-29825547D01*
X30652848Y-29895275D01*
X30501347Y-29996505D01*
X30372505Y-30125347D01*
X30271275Y-30276848D01*
X30201547Y-30445187D01*
X30166000Y-30623895D01*
X30166000Y-30720762D01*
X29718958Y-31167804D01*
X29694158Y-31188157D01*
X29673805Y-31212957D01*
X29673802Y-31212960D01*
X29612930Y-31287132D01*
X29552573Y-31400053D01*
X29515406Y-31522578D01*
X29502856Y-31650000D01*
X29506001Y-31681932D01*
X29506000Y-37970761D01*
X26618957Y-40857805D01*
X26594158Y-40878157D01*
X26573805Y-40902957D01*
X26573802Y-40902960D01*
X26515069Y-40974526D01*
X26412511Y-40871968D01*
X26187307Y-40721491D01*
X26186000Y-40720950D01*
X26186000Y-38001920D01*
X26189144Y-37969999D01*
X26186000Y-37938078D01*
X26186000Y-37938068D01*
X26176595Y-37842578D01*
X26139427Y-37720052D01*
X26079070Y-37607132D01*
X25997843Y-37508157D01*
X25973043Y-37487804D01*
X19206000Y-30720762D01*
X19206000Y-30623895D01*
X19170453Y-30445187D01*
X19100725Y-30276848D01*
X18999495Y-30125347D01*
X18870653Y-29996505D01*
X18719152Y-29895275D01*
X18550813Y-29825547D01*
X18372105Y-29790000D01*
X18189895Y-29790000D01*
X18011187Y-29825547D01*
X17842848Y-29895275D01*
X17691347Y-29996505D01*
X17562505Y-30125347D01*
X17461275Y-30276848D01*
X17391547Y-30445187D01*
X17356000Y-30623895D01*
X17356000Y-30806105D01*
X17391547Y-30984813D01*
X17461275Y-31153152D01*
X17562505Y-31304653D01*
X17691347Y-31433495D01*
X17842848Y-31534725D01*
X18011187Y-31604453D01*
X18189895Y-31640000D01*
X18286762Y-31640000D01*
X24886001Y-38239240D01*
X24886000Y-40720949D01*
X24884693Y-40721491D01*
X24659489Y-40871968D01*
X24467968Y-41063489D01*
X24317491Y-41288693D01*
X24266000Y-41413004D01*
X24214509Y-41288693D01*
X24064032Y-41063489D01*
X23872511Y-40871968D01*
X23647307Y-40721491D01*
X23397073Y-40617841D01*
X23131426Y-40565000D01*
X22860574Y-40565000D01*
X22594927Y-40617841D01*
X22344693Y-40721491D01*
X22119489Y-40871968D01*
X21927968Y-41063489D01*
X21833540Y-41204810D01*
X21833540Y-41090000D01*
X21823403Y-40987082D01*
X21793383Y-40888119D01*
X21744633Y-40796914D01*
X21679027Y-40716973D01*
X21599086Y-40651367D01*
X21507881Y-40602617D01*
X21408918Y-40572597D01*
X21306000Y-40562460D01*
X19606000Y-40562460D01*
X19503082Y-40572597D01*
X19404119Y-40602617D01*
X19312914Y-40651367D01*
X19232973Y-40716973D01*
X19167367Y-40796914D01*
X19118617Y-40888119D01*
X19088597Y-40987082D01*
X19078460Y-41090000D01*
X19078460Y-42790000D01*
X19088597Y-42892918D01*
X19118617Y-42991881D01*
X19167367Y-43083086D01*
X19232973Y-43163027D01*
X19312914Y-43228633D01*
X19404119Y-43277383D01*
X19503082Y-43307403D01*
X19606000Y-43317540D01*
X21306000Y-43317540D01*
X21408918Y-43307403D01*
X21507881Y-43277383D01*
X21599086Y-43228633D01*
X21679027Y-43163027D01*
X21744633Y-43083086D01*
X21793383Y-42991881D01*
X21823403Y-42892918D01*
X21833540Y-42790000D01*
X21833540Y-42675190D01*
X21927968Y-42816511D01*
X22119489Y-43008032D01*
X22344693Y-43158509D01*
X22594927Y-43262159D01*
X22860574Y-43315000D01*
X23131426Y-43315000D01*
X23397073Y-43262159D01*
X23398380Y-43261618D01*
X24106001Y-43969239D01*
X24106001Y-44498298D01*
X24032962Y-44388987D01*
X23847013Y-44203038D01*
X23628359Y-44056939D01*
X23385405Y-43956304D01*
X23127486Y-43905000D01*
X22864514Y-43905000D01*
X22606595Y-43956304D01*
X22363641Y-44056939D01*
X22144987Y-44203038D01*
X21959038Y-44388987D01*
X21812939Y-44607641D01*
X21712304Y-44850595D01*
X21661000Y-45108514D01*
X21661000Y-45371486D01*
X21712304Y-45629405D01*
X21812939Y-45872359D01*
X21959038Y-46091013D01*
X22144987Y-46276962D01*
X22363641Y-46423061D01*
X22606595Y-46523696D01*
X22864514Y-46575000D01*
X23127486Y-46575000D01*
X23385405Y-46523696D01*
X23628359Y-46423061D01*
X23847013Y-46276962D01*
X24032962Y-46091013D01*
X24106000Y-45981703D01*
X24106000Y-46370761D01*
X21918957Y-48557805D01*
X21894158Y-48578157D01*
X21873805Y-48602957D01*
X21873802Y-48602960D01*
X21812930Y-48677132D01*
X21752573Y-48790053D01*
X21715406Y-48912578D01*
X21702856Y-49040000D01*
X21706001Y-49071931D01*
X21706001Y-49672679D01*
X21679061Y-49607641D01*
X21532962Y-49388987D01*
X21347013Y-49203038D01*
X21128359Y-49056939D01*
X20885405Y-48956304D01*
X20627486Y-48905000D01*
X20364514Y-48905000D01*
X20106595Y-48956304D01*
X19863641Y-49056939D01*
X19644987Y-49203038D01*
X19459038Y-49388987D01*
X19312939Y-49607641D01*
X19212304Y-49850595D01*
X19161000Y-50108514D01*
X19161000Y-50371486D01*
X19212304Y-50629405D01*
X19312939Y-50872359D01*
X19459038Y-51091013D01*
X19644987Y-51276962D01*
X19863641Y-51423061D01*
X20106595Y-51523696D01*
X20364514Y-51575000D01*
X20627486Y-51575000D01*
X20885405Y-51523696D01*
X21128359Y-51423061D01*
X21347013Y-51276962D01*
X21532962Y-51091013D01*
X21679061Y-50872359D01*
X21706001Y-50807321D01*
X21706000Y-52770761D01*
X20586762Y-53890000D01*
X8084859Y-53890000D01*
X7977527Y-53782668D01*
X7817836Y-53675966D01*
X7640397Y-53602468D01*
X7452029Y-53565000D01*
X7259971Y-53565000D01*
X7071603Y-53602468D01*
X6894164Y-53675966D01*
X6734473Y-53782668D01*
X6598668Y-53918473D01*
X6491966Y-54078164D01*
X6418468Y-54255603D01*
X6381000Y-54443971D01*
X6381000Y-54636029D01*
X6418468Y-54824397D01*
X6491966Y-55001836D01*
X6598668Y-55161527D01*
X6734473Y-55297332D01*
X6894164Y-55404034D01*
X7071603Y-55477532D01*
X7259971Y-55515000D01*
X7452029Y-55515000D01*
X7640397Y-55477532D01*
X7817836Y-55404034D01*
X7977527Y-55297332D01*
X8084859Y-55190000D01*
X20486762Y-55190000D01*
X18718962Y-56957800D01*
X18694157Y-56978157D01*
X18673802Y-57002960D01*
X18612930Y-57077132D01*
X18552574Y-57190052D01*
X18552573Y-57190053D01*
X18515405Y-57312579D01*
X18506000Y-57408069D01*
X18506000Y-57408079D01*
X18502856Y-57440000D01*
X18506000Y-57471922D01*
X18506000Y-59009573D01*
X18414509Y-58788693D01*
X18264032Y-58563489D01*
X18072511Y-58371968D01*
X17847307Y-58221491D01*
X17597073Y-58117841D01*
X17331426Y-58065000D01*
X17060574Y-58065000D01*
X16794927Y-58117841D01*
X16544693Y-58221491D01*
X16319489Y-58371968D01*
X16127968Y-58563489D01*
X16033540Y-58704810D01*
X16033540Y-58590000D01*
X16023403Y-58487082D01*
X15993383Y-58388119D01*
X15944633Y-58296914D01*
X15879027Y-58216973D01*
X15799086Y-58151367D01*
X15707881Y-58102617D01*
X15608918Y-58072597D01*
X15506000Y-58062460D01*
X13806000Y-58062460D01*
X13703082Y-58072597D01*
X13604119Y-58102617D01*
X13512914Y-58151367D01*
X13432973Y-58216973D01*
X13367367Y-58296914D01*
X13318617Y-58388119D01*
X13288597Y-58487082D01*
X13278460Y-58590000D01*
X13278460Y-60290000D01*
X13288597Y-60392918D01*
X13318617Y-60491881D01*
X13367367Y-60583086D01*
X13432973Y-60663027D01*
X13512914Y-60728633D01*
X13604119Y-60777383D01*
X13703082Y-60807403D01*
X13806000Y-60817540D01*
X13920810Y-60817540D01*
X13779489Y-60911968D01*
X13587968Y-61103489D01*
X13437491Y-61328693D01*
X13333841Y-61578927D01*
X13281000Y-61844574D01*
X13281000Y-62115426D01*
X13333841Y-62381073D01*
X13437491Y-62631307D01*
X13587968Y-62856511D01*
X13779489Y-63048032D01*
X14004693Y-63198509D01*
X14129004Y-63250000D01*
X14004693Y-63301491D01*
X13779489Y-63451968D01*
X13587968Y-63643489D01*
X13437491Y-63868693D01*
X13333841Y-64118927D01*
X13281000Y-64384574D01*
X13281000Y-64655426D01*
X13333841Y-64921073D01*
X13437491Y-65171307D01*
X13587968Y-65396511D01*
X13779489Y-65588032D01*
X14004693Y-65738509D01*
X14254927Y-65842159D01*
X14520574Y-65895000D01*
X14791426Y-65895000D01*
X14808352Y-65891633D01*
X14170918Y-66529068D01*
X14141341Y-66553341D01*
X14071853Y-66638014D01*
X14044494Y-66671350D01*
X14036206Y-66686856D01*
X13972530Y-66805987D01*
X13928214Y-66952075D01*
X13917637Y-67059469D01*
X13913251Y-67104000D01*
X13917000Y-67142063D01*
X13917001Y-69252460D01*
X13892000Y-69252460D01*
X13789082Y-69262597D01*
X13690119Y-69292617D01*
X13598914Y-69341367D01*
X13518973Y-69406973D01*
X13453367Y-69486914D01*
X13404617Y-69578119D01*
X13374597Y-69677082D01*
X13364460Y-69780000D01*
X13364460Y-71380000D01*
X13374597Y-71482918D01*
X13404617Y-71581881D01*
X13453367Y-71673086D01*
X13518973Y-71753027D01*
X13598914Y-71818633D01*
X13690119Y-71867383D01*
X13789082Y-71897403D01*
X13892000Y-71907540D01*
X15492000Y-71907540D01*
X15594918Y-71897403D01*
X15693881Y-71867383D01*
X15785086Y-71818633D01*
X15865027Y-71753027D01*
X15930633Y-71673086D01*
X15979383Y-71581881D01*
X16009403Y-71482918D01*
X16019540Y-71380000D01*
X16019540Y-69780000D01*
X16009403Y-69677082D01*
X15979383Y-69578119D01*
X15930633Y-69486914D01*
X15865027Y-69406973D01*
X15785086Y-69341367D01*
X15693881Y-69292617D01*
X15594918Y-69262597D01*
X15492000Y-69252460D01*
X15467000Y-69252460D01*
X15467000Y-67425014D01*
X15777015Y-67115000D01*
X18461762Y-67115000D01*
X17024958Y-68551804D01*
X17000158Y-68572157D01*
X16979805Y-68596957D01*
X16979802Y-68596960D01*
X16918930Y-68671132D01*
X16858573Y-68784053D01*
X16822531Y-68902868D01*
X16821406Y-68906578D01*
X16815497Y-68966578D01*
X16808856Y-69034000D01*
X16812001Y-69065931D01*
X16812001Y-69420751D01*
X16617362Y-69550805D01*
X16432805Y-69735362D01*
X16287800Y-69952377D01*
X16187919Y-70193512D01*
X16137000Y-70449499D01*
X16137000Y-70710501D01*
X16187919Y-70966488D01*
X16287800Y-71207623D01*
X16432805Y-71424638D01*
X16617362Y-71609195D01*
X16834377Y-71754200D01*
X17075512Y-71854081D01*
X17331499Y-71905000D01*
X17592501Y-71905000D01*
X17848488Y-71854081D01*
X18089623Y-71754200D01*
X18306638Y-71609195D01*
X18491195Y-71424638D01*
X18636200Y-71207623D01*
X18736081Y-70966488D01*
X18787000Y-70710501D01*
X18787000Y-70449499D01*
X18736081Y-70193512D01*
X18636200Y-69952377D01*
X18491195Y-69735362D01*
X18306638Y-69550805D01*
X18112000Y-69420752D01*
X18112000Y-69303238D01*
X19425238Y-67990000D01*
X20486761Y-67990000D01*
X19794962Y-68681800D01*
X19770157Y-68702157D01*
X19749802Y-68726960D01*
X19688930Y-68801132D01*
X19634551Y-68902869D01*
X19628573Y-68914053D01*
X19591405Y-69036579D01*
X19582000Y-69132069D01*
X19582000Y-69132079D01*
X19578856Y-69164000D01*
X19582000Y-69195922D01*
X19582000Y-69420752D01*
X19387362Y-69550805D01*
X19202805Y-69735362D01*
X19057800Y-69952377D01*
X18957919Y-70193512D01*
X18907000Y-70449499D01*
X18907000Y-70710501D01*
X18957919Y-70966488D01*
X19057800Y-71207623D01*
X19202805Y-71424638D01*
X19387362Y-71609195D01*
X19604377Y-71754200D01*
X19845512Y-71854081D01*
X20101499Y-71905000D01*
X20362501Y-71905000D01*
X20618488Y-71854081D01*
X20859623Y-71754200D01*
X21076638Y-71609195D01*
X21261195Y-71424638D01*
X21406200Y-71207623D01*
X21506081Y-70966488D01*
X21557000Y-70710501D01*
X21557000Y-70449499D01*
X21506081Y-70193512D01*
X21406200Y-69952377D01*
X21261195Y-69735362D01*
X21076638Y-69550805D01*
X20889485Y-69425753D01*
X21725239Y-68590000D01*
X22586762Y-68590000D01*
X22564957Y-68611805D01*
X22540158Y-68632157D01*
X22519805Y-68656957D01*
X22519802Y-68656960D01*
X22458930Y-68731132D01*
X22398573Y-68844053D01*
X22361406Y-68966578D01*
X22348856Y-69094000D01*
X22352001Y-69125931D01*
X22352001Y-69420751D01*
X22157362Y-69550805D01*
X21972805Y-69735362D01*
X21827800Y-69952377D01*
X21727919Y-70193512D01*
X21677000Y-70449499D01*
X21677000Y-70710501D01*
X21727919Y-70966488D01*
X21827800Y-71207623D01*
X21972805Y-71424638D01*
X22157362Y-71609195D01*
X22374377Y-71754200D01*
X22615512Y-71854081D01*
X22871499Y-71905000D01*
X23132501Y-71905000D01*
X23388488Y-71854081D01*
X23629623Y-71754200D01*
X23846638Y-71609195D01*
X24031195Y-71424638D01*
X24176200Y-71207623D01*
X24276081Y-70966488D01*
X24327000Y-70710501D01*
X24327000Y-70449499D01*
X24447000Y-70449499D01*
X24447000Y-70710501D01*
X24497919Y-70966488D01*
X24597800Y-71207623D01*
X24742805Y-71424638D01*
X24927362Y-71609195D01*
X25144377Y-71754200D01*
X25385512Y-71854081D01*
X25641499Y-71905000D01*
X25902501Y-71905000D01*
X26158488Y-71854081D01*
X26399623Y-71754200D01*
X26462909Y-71711913D01*
X29807000Y-71711913D01*
X29807000Y-72288087D01*
X29919406Y-72853191D01*
X30139898Y-73385507D01*
X30460004Y-73864579D01*
X30867421Y-74271996D01*
X31346493Y-74592102D01*
X31878809Y-74812594D01*
X32443913Y-74925000D01*
X33020087Y-74925000D01*
X33585191Y-74812594D01*
X34117507Y-74592102D01*
X34596579Y-74271996D01*
X35003996Y-73864579D01*
X35324102Y-73385507D01*
X35544594Y-72853191D01*
X35657000Y-72288087D01*
X35657000Y-71711913D01*
X35544594Y-71146809D01*
X35324102Y-70614493D01*
X35003996Y-70135421D01*
X34596579Y-69728004D01*
X34117507Y-69407898D01*
X33585191Y-69187406D01*
X33020087Y-69075000D01*
X32443913Y-69075000D01*
X31878809Y-69187406D01*
X31346493Y-69407898D01*
X30867421Y-69728004D01*
X30460004Y-70135421D01*
X30139898Y-70614493D01*
X29919406Y-71146809D01*
X29807000Y-71711913D01*
X26462909Y-71711913D01*
X26616638Y-71609195D01*
X26801195Y-71424638D01*
X26946200Y-71207623D01*
X27046081Y-70966488D01*
X27097000Y-70710501D01*
X27097000Y-70449499D01*
X27046081Y-70193512D01*
X26946200Y-69952377D01*
X26801195Y-69735362D01*
X26616638Y-69550805D01*
X26399623Y-69405800D01*
X26158488Y-69305919D01*
X25902501Y-69255000D01*
X25641499Y-69255000D01*
X25385512Y-69305919D01*
X25144377Y-69405800D01*
X24927362Y-69550805D01*
X24742805Y-69735362D01*
X24597800Y-69952377D01*
X24497919Y-70193512D01*
X24447000Y-70449499D01*
X24327000Y-70449499D01*
X24276081Y-70193512D01*
X24176200Y-69952377D01*
X24031195Y-69735362D01*
X23846638Y-69550805D01*
X23652000Y-69420752D01*
X23652000Y-69363238D01*
X23825239Y-69190000D01*
X29424079Y-69190000D01*
X29456000Y-69193144D01*
X29487921Y-69190000D01*
X29487932Y-69190000D01*
X29583422Y-69180595D01*
X29705948Y-69143427D01*
X29818868Y-69083070D01*
X29917843Y-69001843D01*
X29938200Y-68977038D01*
X33793039Y-65122199D01*
X33817843Y-65101843D01*
X33884114Y-65021092D01*
X33899070Y-65002869D01*
X33959427Y-64889948D01*
X33961513Y-64883070D01*
X33996595Y-64767422D01*
X34006000Y-64671932D01*
X34006000Y-64671921D01*
X34009144Y-64640000D01*
X34006000Y-64608079D01*
X34006000Y-57071921D01*
X34009144Y-57040000D01*
X34006000Y-57008079D01*
X34006000Y-57008068D01*
X33996595Y-56912578D01*
X33959427Y-56790052D01*
X33930842Y-56736573D01*
X33899070Y-56677131D01*
X33838198Y-56602960D01*
X33817843Y-56578157D01*
X33793038Y-56557800D01*
X30106000Y-52870762D01*
X30106000Y-51277387D01*
X30161996Y-51333383D01*
X30419958Y-51505747D01*
X30706589Y-51624474D01*
X31010876Y-51685000D01*
X31321124Y-51685000D01*
X31625411Y-51624474D01*
X31912042Y-51505747D01*
X32170004Y-51333383D01*
X32389383Y-51114004D01*
X32561747Y-50856042D01*
X32680474Y-50569411D01*
X32741000Y-50265124D01*
X32741000Y-49954876D01*
X32727096Y-49884973D01*
X32808663Y-49803406D01*
X32890972Y-50030569D01*
X33135989Y-50157135D01*
X33400991Y-50233468D01*
X33675792Y-50256635D01*
X33949833Y-50225746D01*
X34212581Y-50141987D01*
X34421028Y-50030569D01*
X34503338Y-49803404D01*
X33656000Y-48956066D01*
X33641858Y-48970209D01*
X33535792Y-48864143D01*
X33549934Y-48850000D01*
X33762066Y-48850000D01*
X34609404Y-49697338D01*
X34836569Y-49615028D01*
X34963135Y-49370011D01*
X35039468Y-49105009D01*
X35062635Y-48830208D01*
X35031746Y-48556167D01*
X34947987Y-48293419D01*
X34836569Y-48084972D01*
X34609404Y-48002662D01*
X33762066Y-48850000D01*
X33549934Y-48850000D01*
X32702596Y-48002662D01*
X32475431Y-48084972D01*
X32348865Y-48329989D01*
X32272532Y-48594991D01*
X32249365Y-48869792D01*
X32261584Y-48978197D01*
X32170004Y-48886617D01*
X31912042Y-48714253D01*
X31625411Y-48595526D01*
X31321124Y-48535000D01*
X31010876Y-48535000D01*
X30706589Y-48595526D01*
X30419958Y-48714253D01*
X30161996Y-48886617D01*
X30106000Y-48942613D01*
X30106000Y-47896596D01*
X32808662Y-47896596D01*
X33656000Y-48743934D01*
X34503338Y-47896596D01*
X34421028Y-47669431D01*
X34176011Y-47542865D01*
X33911009Y-47466532D01*
X33636208Y-47443365D01*
X33362167Y-47474254D01*
X33099419Y-47558013D01*
X32890972Y-47669431D01*
X32808662Y-47896596D01*
X30106000Y-47896596D01*
X30106000Y-44267387D01*
X30161996Y-44323383D01*
X30419958Y-44495747D01*
X30706589Y-44614474D01*
X31010876Y-44675000D01*
X31321124Y-44675000D01*
X31625411Y-44614474D01*
X31912042Y-44495747D01*
X32170004Y-44323383D01*
X32256000Y-44237387D01*
X32256000Y-44487888D01*
X32309801Y-44758365D01*
X32415336Y-45013149D01*
X32568549Y-45242448D01*
X32763552Y-45437451D01*
X32992851Y-45590664D01*
X33247635Y-45696199D01*
X33518112Y-45750000D01*
X33793888Y-45750000D01*
X34064365Y-45696199D01*
X34319149Y-45590664D01*
X34548448Y-45437451D01*
X34743451Y-45242448D01*
X34896664Y-45013149D01*
X35002199Y-44758365D01*
X35056000Y-44487888D01*
X35056000Y-44212112D01*
X35002199Y-43941635D01*
X34896664Y-43686851D01*
X34743451Y-43457552D01*
X34548448Y-43262549D01*
X34319149Y-43109336D01*
X34064365Y-43003801D01*
X33793888Y-42950000D01*
X33518112Y-42950000D01*
X33247635Y-43003801D01*
X32992851Y-43109336D01*
X32763552Y-43262549D01*
X32733557Y-43292544D01*
X32741000Y-43255124D01*
X32741000Y-42944876D01*
X32680474Y-42640589D01*
X32561747Y-42353958D01*
X32389383Y-42095996D01*
X32170004Y-41876617D01*
X31912042Y-41704253D01*
X31625411Y-41585526D01*
X31321124Y-41525000D01*
X31010876Y-41525000D01*
X30985114Y-41530124D01*
X34968039Y-37547199D01*
X34992843Y-37526843D01*
X35074070Y-37427868D01*
X35134427Y-37314948D01*
X35171595Y-37192422D01*
X35181000Y-37096932D01*
X35181000Y-37096924D01*
X35184144Y-37065000D01*
X35181000Y-37033076D01*
X35181000Y-23746921D01*
X35184144Y-23715000D01*
X35181000Y-23683079D01*
X35181000Y-23683068D01*
X35171595Y-23587578D01*
X35134427Y-23465052D01*
X35121037Y-23440001D01*
X35074070Y-23352131D01*
X35013198Y-23277959D01*
X35013196Y-23277957D01*
X34992843Y-23253157D01*
X34968043Y-23232804D01*
X32513200Y-20777962D01*
X32492843Y-20753157D01*
X32393868Y-20671930D01*
X32280948Y-20611573D01*
X32158422Y-20574405D01*
X32062932Y-20565000D01*
X32062921Y-20565000D01*
X32031000Y-20561856D01*
X31999079Y-20565000D01*
X31250239Y-20565000D01*
X31170239Y-20485000D01*
X31321124Y-20485000D01*
X31625411Y-20424474D01*
X31912042Y-20305747D01*
X32170004Y-20133383D01*
X32389383Y-19914004D01*
X32561747Y-19656042D01*
X32680474Y-19369411D01*
X32741000Y-19065124D01*
X32741000Y-18754876D01*
X32731074Y-18704973D01*
X32763552Y-18737451D01*
X32992851Y-18890664D01*
X33247635Y-18996199D01*
X33518112Y-19050000D01*
X33793888Y-19050000D01*
X34064365Y-18996199D01*
X34319149Y-18890664D01*
X34548448Y-18737451D01*
X34743451Y-18542448D01*
X34896664Y-18313149D01*
X35002199Y-18058365D01*
X35056000Y-17787888D01*
X35056000Y-17512112D01*
X35002199Y-17241635D01*
X34896664Y-16986851D01*
X34743451Y-16757552D01*
X34548448Y-16562549D01*
X34319149Y-16409336D01*
X34064365Y-16303801D01*
X33793888Y-16250000D01*
X33518112Y-16250000D01*
X33247635Y-16303801D01*
X32992851Y-16409336D01*
X32763552Y-16562549D01*
X32568549Y-16757552D01*
X32415336Y-16986851D01*
X32309801Y-17241635D01*
X32256000Y-17512112D01*
X32256000Y-17772613D01*
X32170004Y-17686617D01*
X31912042Y-17514253D01*
X31625411Y-17395526D01*
X31321124Y-17335000D01*
X31010876Y-17335000D01*
X30706589Y-17395526D01*
X30419958Y-17514253D01*
X30161996Y-17686617D01*
X29942617Y-17905996D01*
X29770253Y-18163958D01*
X29651526Y-18450589D01*
X29591000Y-18754876D01*
X29591000Y-18905762D01*
X28738200Y-18052962D01*
X28717843Y-18028157D01*
X28618868Y-17946930D01*
X28505948Y-17886573D01*
X28383422Y-17849405D01*
X28287932Y-17840000D01*
X28287921Y-17840000D01*
X28256000Y-17836856D01*
X28224079Y-17840000D01*
X25175239Y-17840000D01*
X23456000Y-16120762D01*
X23456000Y-15921920D01*
X23459144Y-15889999D01*
X23456000Y-15858078D01*
X23456000Y-15858068D01*
X23446595Y-15762578D01*
X23409427Y-15640052D01*
X23349070Y-15527132D01*
X23324284Y-15496930D01*
X23288198Y-15452959D01*
X23288196Y-15452957D01*
X23267843Y-15428157D01*
X23243043Y-15407804D01*
X23031000Y-15195761D01*
X23031000Y-15098895D01*
X22995453Y-14920187D01*
X22925725Y-14751848D01*
X22824495Y-14600347D01*
X22695653Y-14471505D01*
X22544152Y-14370275D01*
X22375813Y-14300547D01*
X22197105Y-14265000D01*
X22014895Y-14265000D01*
X21836187Y-14300547D01*
X21667848Y-14370275D01*
X21516347Y-14471505D01*
X21456000Y-14531852D01*
X21345653Y-14421505D01*
X21194152Y-14320275D01*
X21025813Y-14250547D01*
X20847105Y-14215000D01*
X20664895Y-14215000D01*
X20486187Y-14250547D01*
X20449491Y-14265747D01*
X22528045Y-12187194D01*
X22552843Y-12166843D01*
X22634070Y-12067868D01*
X22694427Y-11954948D01*
X22731595Y-11832422D01*
X22741000Y-11736932D01*
X22741000Y-11736922D01*
X22744144Y-11705001D01*
X22741000Y-11673080D01*
X22741000Y-11073895D01*
X23706000Y-11073895D01*
X23706000Y-11256105D01*
X23741547Y-11434813D01*
X23811275Y-11603152D01*
X23912505Y-11754653D01*
X23981000Y-11823148D01*
X23981001Y-14906851D01*
X23912505Y-14975347D01*
X23811275Y-15126848D01*
X23741547Y-15295187D01*
X23706000Y-15473895D01*
X23706000Y-15656105D01*
X23741547Y-15834813D01*
X23811275Y-16003152D01*
X23912505Y-16154653D01*
X24041347Y-16283495D01*
X24192848Y-16384725D01*
X24361187Y-16454453D01*
X24539895Y-16490000D01*
X24722105Y-16490000D01*
X24900813Y-16454453D01*
X25069152Y-16384725D01*
X25220653Y-16283495D01*
X25349495Y-16154653D01*
X25450725Y-16003152D01*
X25520453Y-15834813D01*
X25556000Y-15656105D01*
X25556000Y-15473895D01*
X25520453Y-15295187D01*
X25450725Y-15126848D01*
X25349495Y-14975347D01*
X25281000Y-14906852D01*
X25281000Y-14103404D01*
X32808662Y-14103404D01*
X32890972Y-14330569D01*
X33135989Y-14457135D01*
X33400991Y-14533468D01*
X33675792Y-14556635D01*
X33949833Y-14525746D01*
X34212581Y-14441987D01*
X34421028Y-14330569D01*
X34503338Y-14103404D01*
X33656000Y-13256066D01*
X32808662Y-14103404D01*
X25281000Y-14103404D01*
X25281000Y-11823148D01*
X25349495Y-11754653D01*
X25356027Y-11744876D01*
X29591000Y-11744876D01*
X29591000Y-12055124D01*
X29651526Y-12359411D01*
X29770253Y-12646042D01*
X29942617Y-12904004D01*
X30161996Y-13123383D01*
X30419958Y-13295747D01*
X30706589Y-13414474D01*
X31010876Y-13475000D01*
X31321124Y-13475000D01*
X31625411Y-13414474D01*
X31912042Y-13295747D01*
X32170004Y-13123383D01*
X32260944Y-13032443D01*
X32249365Y-13169792D01*
X32280254Y-13443833D01*
X32364013Y-13706581D01*
X32475431Y-13915028D01*
X32702596Y-13997338D01*
X33549934Y-13150000D01*
X33762066Y-13150000D01*
X34609404Y-13997338D01*
X34836569Y-13915028D01*
X34963135Y-13670011D01*
X35039468Y-13405009D01*
X35062635Y-13130208D01*
X35031746Y-12856167D01*
X34947987Y-12593419D01*
X34836569Y-12384972D01*
X34609404Y-12302662D01*
X33762066Y-13150000D01*
X33549934Y-13150000D01*
X33535792Y-13135858D01*
X33641858Y-13029792D01*
X33656000Y-13043934D01*
X34503338Y-12196596D01*
X34421028Y-11969431D01*
X34176011Y-11842865D01*
X33911009Y-11766532D01*
X33636208Y-11743365D01*
X33362167Y-11774254D01*
X33099419Y-11858013D01*
X32890972Y-11969431D01*
X32808663Y-12196594D01*
X32728755Y-12116686D01*
X32741000Y-12055124D01*
X32741000Y-11744876D01*
X32680474Y-11440589D01*
X32561747Y-11153958D01*
X32389383Y-10895996D01*
X32170004Y-10676617D01*
X31912042Y-10504253D01*
X31625411Y-10385526D01*
X31321124Y-10325000D01*
X31010876Y-10325000D01*
X30706589Y-10385526D01*
X30419958Y-10504253D01*
X30161996Y-10676617D01*
X29942617Y-10895996D01*
X29770253Y-11153958D01*
X29651526Y-11440589D01*
X29591000Y-11744876D01*
X25356027Y-11744876D01*
X25450725Y-11603152D01*
X25520453Y-11434813D01*
X25556000Y-11256105D01*
X25556000Y-11073895D01*
X25520453Y-10895187D01*
X25450725Y-10726848D01*
X25349495Y-10575347D01*
X25220653Y-10446505D01*
X25069152Y-10345275D01*
X24900813Y-10275547D01*
X24722105Y-10240000D01*
X24539895Y-10240000D01*
X24361187Y-10275547D01*
X24192848Y-10345275D01*
X24041347Y-10446505D01*
X23912505Y-10575347D01*
X23811275Y-10726848D01*
X23741547Y-10895187D01*
X23706000Y-11073895D01*
X22741000Y-11073895D01*
X22741000Y-8003148D01*
X22771347Y-8033495D01*
X22922848Y-8134725D01*
X23091187Y-8204453D01*
X23269895Y-8240000D01*
X23452105Y-8240000D01*
X23630813Y-8204453D01*
X23799152Y-8134725D01*
X23950653Y-8033495D01*
X24079495Y-7904653D01*
X24180725Y-7753152D01*
X24250453Y-7584813D01*
X24286000Y-7406105D01*
X24286000Y-7223895D01*
X24250453Y-7045187D01*
X24180725Y-6876848D01*
X24079495Y-6725347D01*
X24011000Y-6656852D01*
X24011000Y-6476920D01*
X24014144Y-6444999D01*
X24011000Y-6413078D01*
X24011000Y-6413068D01*
X24001595Y-6317578D01*
X23964427Y-6195052D01*
X23904070Y-6082132D01*
X23822843Y-5983157D01*
X23798039Y-5962801D01*
X23438200Y-5602962D01*
X23417843Y-5578157D01*
X23318868Y-5496930D01*
X23205948Y-5436573D01*
X23083422Y-5399405D01*
X22987932Y-5390000D01*
X22987921Y-5390000D01*
X22956000Y-5386856D01*
X22924079Y-5390000D01*
X18337924Y-5390000D01*
X18306000Y-5386856D01*
X18274076Y-5390000D01*
X18274068Y-5390000D01*
X18178578Y-5399405D01*
X18056052Y-5436573D01*
X17943132Y-5496930D01*
X17844157Y-5578157D01*
X17823800Y-5602962D01*
X13636762Y-9790000D01*
X12887921Y-9790000D01*
X12856000Y-9786856D01*
X12824079Y-9790000D01*
X12824068Y-9790000D01*
X12728578Y-9799405D01*
X12606052Y-9836573D01*
X12493131Y-9896930D01*
X12418959Y-9957802D01*
X12418957Y-9957804D01*
X12394157Y-9978157D01*
X12373804Y-10002957D01*
X11781762Y-10595000D01*
X11558453Y-10595000D01*
X11630200Y-10487623D01*
X11730081Y-10246488D01*
X11781000Y-9990501D01*
X11781000Y-9729499D01*
X11730081Y-9473512D01*
X11630200Y-9232377D01*
X11485195Y-9015362D01*
X11300638Y-8830805D01*
X11083623Y-8685800D01*
X10842488Y-8585919D01*
X10586501Y-8535000D01*
X10325499Y-8535000D01*
X10069512Y-8585919D01*
X9828377Y-8685800D01*
X9611362Y-8830805D01*
X9426805Y-9015362D01*
X9281800Y-9232377D01*
X9181919Y-9473512D01*
X9131000Y-9729499D01*
X9131000Y-9990501D01*
X9181919Y-10246488D01*
X9281800Y-10487623D01*
X9353547Y-10595000D01*
X8775248Y-10595000D01*
X8645195Y-10400362D01*
X8460638Y-10215805D01*
X8243623Y-10070800D01*
X8002488Y-9970919D01*
X7746501Y-9920000D01*
X7485499Y-9920000D01*
X7229512Y-9970919D01*
X6988377Y-10070800D01*
X6771362Y-10215805D01*
X6586805Y-10400362D01*
X6441800Y-10617377D01*
X6341919Y-10858512D01*
X6291000Y-11114499D01*
X6291000Y-11375501D01*
X6341919Y-11631488D01*
X6441800Y-11872623D01*
X6586805Y-12089638D01*
X6771362Y-12274195D01*
X6988377Y-12419200D01*
X7229512Y-12519081D01*
X7485499Y-12570000D01*
X7746501Y-12570000D01*
X8002488Y-12519081D01*
X8243623Y-12419200D01*
X8460638Y-12274195D01*
X8645195Y-12089638D01*
X8775248Y-11895000D01*
X9353547Y-11895000D01*
X9281800Y-12002377D01*
X9181919Y-12243512D01*
X9131000Y-12499499D01*
X9131000Y-12760501D01*
X9181919Y-13016488D01*
X9281800Y-13257623D01*
X9426805Y-13474638D01*
X9611362Y-13659195D01*
X9828377Y-13804200D01*
X10069512Y-13904081D01*
X10325499Y-13955000D01*
X10586501Y-13955000D01*
X10842488Y-13904081D01*
X11083623Y-13804200D01*
X11300638Y-13659195D01*
X11485195Y-13474638D01*
X11616468Y-13278174D01*
X11693422Y-13270595D01*
X11815948Y-13233427D01*
X11928868Y-13173070D01*
X12027843Y-13091843D01*
X12048200Y-13067038D01*
X13475239Y-11640000D01*
X16197852Y-11640000D01*
X16266347Y-11708495D01*
X16417848Y-11809725D01*
X16586187Y-11879453D01*
X16764895Y-11915000D01*
X16947105Y-11915000D01*
X17125813Y-11879453D01*
X17206000Y-11846239D01*
X17206000Y-12070761D01*
X16718957Y-12557805D01*
X16694158Y-12578157D01*
X16673805Y-12602957D01*
X16673802Y-12602960D01*
X16612930Y-12677132D01*
X16552573Y-12790053D01*
X16515406Y-12912578D01*
X16502856Y-13040000D01*
X16506001Y-13071931D01*
X16506000Y-15220762D01*
X13561762Y-18165000D01*
X13464895Y-18165000D01*
X13286187Y-18200547D01*
X13117848Y-18270275D01*
X12966347Y-18371505D01*
X12837505Y-18500347D01*
X12736275Y-18651848D01*
X12706000Y-18724939D01*
X12706000Y-15871921D01*
X12709144Y-15840000D01*
X12706000Y-15808078D01*
X12706000Y-15808068D01*
X12696595Y-15712578D01*
X12659427Y-15590052D01*
X12639552Y-15552868D01*
X12599070Y-15477131D01*
X12538198Y-15402959D01*
X12538196Y-15402957D01*
X12517843Y-15378157D01*
X12493044Y-15357805D01*
X12098200Y-14962962D01*
X12077843Y-14938157D01*
X11978868Y-14856930D01*
X11865948Y-14796573D01*
X11743422Y-14759405D01*
X11647932Y-14750000D01*
X11647921Y-14750000D01*
X11616000Y-14746856D01*
X11613324Y-14747120D01*
X11485195Y-14555362D01*
X11300638Y-14370805D01*
X11083623Y-14225800D01*
X10842488Y-14125919D01*
X10586501Y-14075000D01*
X10325499Y-14075000D01*
X10069512Y-14125919D01*
X9828377Y-14225800D01*
X9611362Y-14370805D01*
X9426805Y-14555362D01*
X9281800Y-14772377D01*
X9181919Y-15013512D01*
X9131000Y-15269499D01*
X9131000Y-15530501D01*
X9181919Y-15786488D01*
X9281800Y-16027623D01*
X9426805Y-16244638D01*
X9611362Y-16429195D01*
X9828377Y-16574200D01*
X10069512Y-16674081D01*
X10325499Y-16725000D01*
X10586501Y-16725000D01*
X10842488Y-16674081D01*
X11083623Y-16574200D01*
X11300638Y-16429195D01*
X11406000Y-16323833D01*
X11406000Y-17246167D01*
X11300638Y-17140805D01*
X11083623Y-16995800D01*
X10842488Y-16895919D01*
X10586501Y-16845000D01*
X10325499Y-16845000D01*
X10069512Y-16895919D01*
X9828377Y-16995800D01*
X9611362Y-17140805D01*
X9426805Y-17325362D01*
X9281800Y-17542377D01*
X9181919Y-17783512D01*
X9131000Y-18039499D01*
X9131000Y-18300501D01*
X9181919Y-18556488D01*
X9281800Y-18797623D01*
X9426805Y-19014638D01*
X9611362Y-19199195D01*
X9828377Y-19344200D01*
X10069512Y-19444081D01*
X10325499Y-19495000D01*
X10586501Y-19495000D01*
X10842488Y-19444081D01*
X11083623Y-19344200D01*
X11300638Y-19199195D01*
X11406001Y-19093832D01*
X11406001Y-19636879D01*
X11358918Y-19622597D01*
X11256000Y-19612460D01*
X9656000Y-19612460D01*
X9553082Y-19622597D01*
X9454119Y-19652617D01*
X9362914Y-19701367D01*
X9282973Y-19766973D01*
X9217367Y-19846914D01*
X9168617Y-19938119D01*
X9138597Y-20037082D01*
X9128460Y-20140000D01*
X9128460Y-21740000D01*
X9138597Y-21842918D01*
X9168617Y-21941881D01*
X9217367Y-22033086D01*
X9282973Y-22113027D01*
X9362914Y-22178633D01*
X9454119Y-22227383D01*
X9553082Y-22257403D01*
X9656000Y-22267540D01*
X11256000Y-22267540D01*
X11358918Y-22257403D01*
X11457881Y-22227383D01*
X11549086Y-22178633D01*
X11629027Y-22113027D01*
X11694633Y-22033086D01*
X11743383Y-21941881D01*
X11773403Y-21842918D01*
X11783540Y-21740000D01*
X11783540Y-20486778D01*
X12573804Y-21277043D01*
X12594157Y-21301843D01*
X12618957Y-21322196D01*
X12618960Y-21322199D01*
X12643602Y-21342422D01*
X12693132Y-21383070D01*
X12806052Y-21443427D01*
X12928578Y-21480595D01*
X13024068Y-21490000D01*
X13024076Y-21490000D01*
X13056000Y-21493144D01*
X13087924Y-21490000D01*
X15942715Y-21490000D01*
X15966547Y-21609813D01*
X16036275Y-21778152D01*
X16137505Y-21929653D01*
X16206001Y-21998149D01*
X16206000Y-23170761D01*
X11928456Y-27448305D01*
X11848594Y-27046809D01*
X11628102Y-26514493D01*
X11307996Y-26035421D01*
X10900579Y-25628004D01*
X10421507Y-25307898D01*
X9889191Y-25087406D01*
X9324087Y-24975000D01*
X8747913Y-24975000D01*
X8182809Y-25087406D01*
X7650493Y-25307898D01*
X7171421Y-25628004D01*
X6764004Y-26035421D01*
X6443898Y-26514493D01*
X6223406Y-27046809D01*
X6111000Y-27611913D01*
X600000Y-27611913D01*
X600000Y-8240000D01*
X4452856Y-8240000D01*
X4456001Y-8271932D01*
X4456000Y-18958078D01*
X4452856Y-18990000D01*
X4456000Y-19021921D01*
X4456000Y-19021931D01*
X4465405Y-19117421D01*
X4495740Y-19217422D01*
X4502573Y-19239947D01*
X4562930Y-19352868D01*
X4608014Y-19407802D01*
X4644157Y-19451843D01*
X4668962Y-19472200D01*
X5188800Y-19992038D01*
X5209157Y-20016843D01*
X5308132Y-20098070D01*
X5421052Y-20158427D01*
X5543578Y-20195595D01*
X5639068Y-20205000D01*
X5639076Y-20205000D01*
X5671000Y-20208144D01*
X5702924Y-20205000D01*
X6456752Y-20205000D01*
X6586805Y-20399638D01*
X6771362Y-20584195D01*
X6988377Y-20729200D01*
X7229512Y-20829081D01*
X7485499Y-20880000D01*
X7746501Y-20880000D01*
X8002488Y-20829081D01*
X8243623Y-20729200D01*
X8460638Y-20584195D01*
X8645195Y-20399638D01*
X8790200Y-20182623D01*
X8890081Y-19941488D01*
X8941000Y-19685501D01*
X8941000Y-19424499D01*
X8890081Y-19168512D01*
X8790200Y-18927377D01*
X8645195Y-18710362D01*
X8460638Y-18525805D01*
X8243623Y-18380800D01*
X8002488Y-18280919D01*
X7746501Y-18230000D01*
X7485499Y-18230000D01*
X7229512Y-18280919D01*
X6988377Y-18380800D01*
X6771362Y-18525805D01*
X6586805Y-18710362D01*
X6456752Y-18905000D01*
X5940238Y-18905000D01*
X5756000Y-18720762D01*
X5756000Y-16654499D01*
X6291000Y-16654499D01*
X6291000Y-16915501D01*
X6341919Y-17171488D01*
X6441800Y-17412623D01*
X6586805Y-17629638D01*
X6771362Y-17814195D01*
X6988377Y-17959200D01*
X7229512Y-18059081D01*
X7485499Y-18110000D01*
X7746501Y-18110000D01*
X8002488Y-18059081D01*
X8243623Y-17959200D01*
X8460638Y-17814195D01*
X8645195Y-17629638D01*
X8790200Y-17412623D01*
X8890081Y-17171488D01*
X8941000Y-16915501D01*
X8941000Y-16654499D01*
X8890081Y-16398512D01*
X8790200Y-16157377D01*
X8645195Y-15940362D01*
X8460638Y-15755805D01*
X8243623Y-15610800D01*
X8002488Y-15510919D01*
X7746501Y-15460000D01*
X7485499Y-15460000D01*
X7229512Y-15510919D01*
X6988377Y-15610800D01*
X6771362Y-15755805D01*
X6586805Y-15940362D01*
X6441800Y-16157377D01*
X6341919Y-16398512D01*
X6291000Y-16654499D01*
X5756000Y-16654499D01*
X5756000Y-14915016D01*
X6822050Y-14915016D01*
X6895334Y-15134508D01*
X7127586Y-15253592D01*
X7378608Y-15325077D01*
X7638753Y-15346217D01*
X7898023Y-15316199D01*
X8146455Y-15236177D01*
X8336666Y-15134508D01*
X8409950Y-14915016D01*
X7616000Y-14121066D01*
X6822050Y-14915016D01*
X5756000Y-14915016D01*
X5756000Y-14037753D01*
X6284783Y-14037753D01*
X6314801Y-14297023D01*
X6394823Y-14545455D01*
X6496492Y-14735666D01*
X6715984Y-14808950D01*
X7509934Y-14015000D01*
X7722066Y-14015000D01*
X8516016Y-14808950D01*
X8735508Y-14735666D01*
X8854592Y-14503414D01*
X8926077Y-14252392D01*
X8947217Y-13992247D01*
X8917199Y-13732977D01*
X8837177Y-13484545D01*
X8735508Y-13294334D01*
X8516016Y-13221050D01*
X7722066Y-14015000D01*
X7509934Y-14015000D01*
X6715984Y-13221050D01*
X6496492Y-13294334D01*
X6377408Y-13526586D01*
X6305923Y-13777608D01*
X6284783Y-14037753D01*
X5756000Y-14037753D01*
X5756000Y-13114984D01*
X6822050Y-13114984D01*
X7616000Y-13908934D01*
X8409950Y-13114984D01*
X8336666Y-12895492D01*
X8104414Y-12776408D01*
X7853392Y-12704923D01*
X7593247Y-12683783D01*
X7333977Y-12713801D01*
X7085545Y-12793823D01*
X6895334Y-12895492D01*
X6822050Y-13114984D01*
X5756000Y-13114984D01*
X5756000Y-8509238D01*
X6375239Y-7890000D01*
X13274079Y-7890000D01*
X13306000Y-7893144D01*
X13337921Y-7890000D01*
X13337932Y-7890000D01*
X13433422Y-7880595D01*
X13555948Y-7843427D01*
X13668868Y-7783070D01*
X13767843Y-7701843D01*
X13788200Y-7677038D01*
X17375239Y-4090000D01*
X23306762Y-4090000D01*
X24976000Y-5759239D01*
X24976000Y-5856105D01*
X25011547Y-6034813D01*
X25081275Y-6203152D01*
X25182505Y-6354653D01*
X25311347Y-6483495D01*
X25462848Y-6584725D01*
X25631187Y-6654453D01*
X25809895Y-6690000D01*
X25992105Y-6690000D01*
X26170813Y-6654453D01*
X26339152Y-6584725D01*
X26490653Y-6483495D01*
X26619495Y-6354653D01*
X26720725Y-6203152D01*
X26790453Y-6034813D01*
X26826000Y-5856105D01*
X26826000Y-5673895D01*
X26790453Y-5495187D01*
X26720725Y-5326848D01*
X26619495Y-5175347D01*
X26490653Y-5046505D01*
X26339152Y-4945275D01*
X26170813Y-4875547D01*
X25992105Y-4840000D01*
X25895239Y-4840000D01*
X24058200Y-3002962D01*
X24037843Y-2978157D01*
X23938868Y-2896930D01*
X23825948Y-2836573D01*
X23703422Y-2799405D01*
X23607932Y-2790000D01*
X23607921Y-2790000D01*
X23576000Y-2786856D01*
X23544079Y-2790000D01*
X17137924Y-2790000D01*
X17106000Y-2786856D01*
X17074076Y-2790000D01*
X17074068Y-2790000D01*
X16978578Y-2799405D01*
X16856052Y-2836573D01*
X16743132Y-2896930D01*
X16668960Y-2957801D01*
X16668957Y-2957804D01*
X16644157Y-2978157D01*
X16623804Y-3002957D01*
X13036762Y-6590000D01*
X6137924Y-6590000D01*
X6106000Y-6586856D01*
X6074076Y-6590000D01*
X6074068Y-6590000D01*
X5978578Y-6599405D01*
X5856052Y-6636573D01*
X5743132Y-6696930D01*
X5668960Y-6757801D01*
X5668957Y-6757804D01*
X5644157Y-6778157D01*
X5623804Y-6802957D01*
X4668957Y-7757805D01*
X4644158Y-7778157D01*
X4623805Y-7802957D01*
X4623802Y-7802960D01*
X4562930Y-7877132D01*
X4502573Y-7990053D01*
X4465406Y-8112578D01*
X4452856Y-8240000D01*
X600000Y-8240000D01*
X600000Y-3831561D01*
X2455000Y-3831561D01*
X2455000Y-4048439D01*
X2497311Y-4261150D01*
X2580307Y-4461519D01*
X2700798Y-4641846D01*
X2854154Y-4795202D01*
X3034481Y-4915693D01*
X3234850Y-4998689D01*
X3447561Y-5041000D01*
X3664439Y-5041000D01*
X3877150Y-4998689D01*
X4077519Y-4915693D01*
X4257846Y-4795202D01*
X4411202Y-4641846D01*
X4531693Y-4461519D01*
X4614689Y-4261150D01*
X4657000Y-4048439D01*
X4657000Y-3831561D01*
X4614689Y-3618850D01*
X4531693Y-3418481D01*
X4411202Y-3238154D01*
X4257846Y-3084798D01*
X4077519Y-2964307D01*
X3877150Y-2881311D01*
X3664439Y-2839000D01*
X3447561Y-2839000D01*
X3234850Y-2881311D01*
X3034481Y-2964307D01*
X2854154Y-3084798D01*
X2700798Y-3238154D01*
X2580307Y-3418481D01*
X2497311Y-3618850D01*
X2455000Y-3831561D01*
X600000Y-3831561D01*
X600000Y-600000D01*
X7213332Y-600000D01*
X7171421Y-628004D01*
%TA.AperFunction,Conductor*%
D22*
G36*
X7171421Y-628004D02*
G01*
X6764004Y-1035421D01*
X6443898Y-1514493D01*
X6223406Y-2046809D01*
X6111000Y-2611913D01*
X6111000Y-3188087D01*
X6223406Y-3753191D01*
X6443898Y-4285507D01*
X6764004Y-4764579D01*
X7171421Y-5171996D01*
X7650493Y-5492102D01*
X8182809Y-5712594D01*
X8747913Y-5825000D01*
X9324087Y-5825000D01*
X9889191Y-5712594D01*
X10421507Y-5492102D01*
X10900579Y-5171996D01*
X11307996Y-4764579D01*
X11628102Y-4285507D01*
X11848594Y-3753191D01*
X11961000Y-3188087D01*
X11961000Y-2611913D01*
X11848594Y-2046809D01*
X11628102Y-1514493D01*
X11307996Y-1035421D01*
X10900579Y-628004D01*
X10858668Y-600000D01*
X35013659Y-600000D01*
X35172577Y-615582D01*
X35297219Y-653214D01*
X35412179Y-714339D01*
X35513079Y-796630D01*
X35596068Y-896946D01*
X35657996Y-1011481D01*
X35696498Y-1135859D01*
X35713000Y-1292871D01*
X35713001Y-80615649D01*
X35697418Y-80774576D01*
X35659786Y-80899220D01*
X35598661Y-81014180D01*
X35516368Y-81115080D01*
X35416051Y-81198070D01*
X35301520Y-81259995D01*
X35177141Y-81298498D01*
X35020129Y-81315000D01*
X5450341Y-81315000D01*
X5291424Y-81299418D01*
X5166780Y-81261786D01*
X5051820Y-81200661D01*
X4950920Y-81118368D01*
X4867930Y-81018051D01*
X4806005Y-80903520D01*
X4767502Y-80779141D01*
X4751000Y-80622129D01*
X4751000Y-71711913D01*
X4807000Y-71711913D01*
X4807000Y-72288087D01*
X4919406Y-72853191D01*
X5139898Y-73385507D01*
X5460004Y-73864579D01*
X5867421Y-74271996D01*
X6346493Y-74592102D01*
X6878809Y-74812594D01*
X7443913Y-74925000D01*
X8020087Y-74925000D01*
X8585191Y-74812594D01*
X9117507Y-74592102D01*
X9596579Y-74271996D01*
X10003996Y-73864579D01*
X10324102Y-73385507D01*
X10363869Y-73289499D01*
X14752000Y-73289499D01*
X14752000Y-73550501D01*
X14802919Y-73806488D01*
X14902800Y-74047623D01*
X15047805Y-74264638D01*
X15232362Y-74449195D01*
X15449377Y-74594200D01*
X15690512Y-74694081D01*
X15946499Y-74745000D01*
X16207501Y-74745000D01*
X16463488Y-74694081D01*
X16704623Y-74594200D01*
X16921638Y-74449195D01*
X17106195Y-74264638D01*
X17251200Y-74047623D01*
X17351081Y-73806488D01*
X17402000Y-73550501D01*
X17402000Y-73289499D01*
X17522000Y-73289499D01*
X17522000Y-73550501D01*
X17572919Y-73806488D01*
X17672800Y-74047623D01*
X17817805Y-74264638D01*
X18002362Y-74449195D01*
X18219377Y-74594200D01*
X18460512Y-74694081D01*
X18716499Y-74745000D01*
X18977501Y-74745000D01*
X19233488Y-74694081D01*
X19474623Y-74594200D01*
X19691638Y-74449195D01*
X19820817Y-74320016D01*
X20823050Y-74320016D01*
X20896334Y-74539508D01*
X21128586Y-74658592D01*
X21379608Y-74730077D01*
X21639753Y-74751217D01*
X21899023Y-74721199D01*
X22147455Y-74641177D01*
X22337666Y-74539508D01*
X22410950Y-74320016D01*
X21617000Y-73526066D01*
X20823050Y-74320016D01*
X19820817Y-74320016D01*
X19876195Y-74264638D01*
X20021200Y-74047623D01*
X20121081Y-73806488D01*
X20172000Y-73550501D01*
X20172000Y-73442753D01*
X20285783Y-73442753D01*
X20315801Y-73702023D01*
X20395823Y-73950455D01*
X20497492Y-74140666D01*
X20716984Y-74213950D01*
X21510934Y-73420000D01*
X21723066Y-73420000D01*
X22517016Y-74213950D01*
X22736508Y-74140666D01*
X22855592Y-73908414D01*
X22927077Y-73657392D01*
X22948217Y-73397247D01*
X22935743Y-73289499D01*
X23062000Y-73289499D01*
X23062000Y-73550501D01*
X23112919Y-73806488D01*
X23212800Y-74047623D01*
X23357805Y-74264638D01*
X23542362Y-74449195D01*
X23759377Y-74594200D01*
X24000512Y-74694081D01*
X24256499Y-74745000D01*
X24517501Y-74745000D01*
X24773488Y-74694081D01*
X25014623Y-74594200D01*
X25231638Y-74449195D01*
X25416195Y-74264638D01*
X25561200Y-74047623D01*
X25661081Y-73806488D01*
X25712000Y-73550501D01*
X25712000Y-73331561D01*
X26155000Y-73331561D01*
X26155000Y-73548439D01*
X26197311Y-73761150D01*
X26280307Y-73961519D01*
X26400798Y-74141846D01*
X26554154Y-74295202D01*
X26734481Y-74415693D01*
X26934850Y-74498689D01*
X27147561Y-74541000D01*
X27364439Y-74541000D01*
X27577150Y-74498689D01*
X27777519Y-74415693D01*
X27957846Y-74295202D01*
X28111202Y-74141846D01*
X28231693Y-73961519D01*
X28314689Y-73761150D01*
X28357000Y-73548439D01*
X28357000Y-73331561D01*
X28314689Y-73118850D01*
X28231693Y-72918481D01*
X28111202Y-72738154D01*
X27957846Y-72584798D01*
X27777519Y-72464307D01*
X27577150Y-72381311D01*
X27364439Y-72339000D01*
X27147561Y-72339000D01*
X26934850Y-72381311D01*
X26734481Y-72464307D01*
X26554154Y-72584798D01*
X26400798Y-72738154D01*
X26280307Y-72918481D01*
X26197311Y-73118850D01*
X26155000Y-73331561D01*
X25712000Y-73331561D01*
X25712000Y-73289499D01*
X25661081Y-73033512D01*
X25561200Y-72792377D01*
X25416195Y-72575362D01*
X25231638Y-72390805D01*
X25014623Y-72245800D01*
X24773488Y-72145919D01*
X24517501Y-72095000D01*
X24256499Y-72095000D01*
X24000512Y-72145919D01*
X23759377Y-72245800D01*
X23542362Y-72390805D01*
X23357805Y-72575362D01*
X23212800Y-72792377D01*
X23112919Y-73033512D01*
X23062000Y-73289499D01*
X22935743Y-73289499D01*
X22918199Y-73137977D01*
X22838177Y-72889545D01*
X22736508Y-72699334D01*
X22517016Y-72626050D01*
X21723066Y-73420000D01*
X21510934Y-73420000D01*
X20716984Y-72626050D01*
X20497492Y-72699334D01*
X20378408Y-72931586D01*
X20306923Y-73182608D01*
X20285783Y-73442753D01*
X20172000Y-73442753D01*
X20172000Y-73289499D01*
X20121081Y-73033512D01*
X20021200Y-72792377D01*
X19876195Y-72575362D01*
X19820817Y-72519984D01*
X20823050Y-72519984D01*
X21617000Y-73313934D01*
X22410950Y-72519984D01*
X22337666Y-72300492D01*
X22105414Y-72181408D01*
X21854392Y-72109923D01*
X21594247Y-72088783D01*
X21334977Y-72118801D01*
X21086545Y-72198823D01*
X20896334Y-72300492D01*
X20823050Y-72519984D01*
X19820817Y-72519984D01*
X19691638Y-72390805D01*
X19474623Y-72245800D01*
X19233488Y-72145919D01*
X18977501Y-72095000D01*
X18716499Y-72095000D01*
X18460512Y-72145919D01*
X18219377Y-72245800D01*
X18002362Y-72390805D01*
X17817805Y-72575362D01*
X17672800Y-72792377D01*
X17572919Y-73033512D01*
X17522000Y-73289499D01*
X17402000Y-73289499D01*
X17351081Y-73033512D01*
X17251200Y-72792377D01*
X17106195Y-72575362D01*
X16921638Y-72390805D01*
X16704623Y-72245800D01*
X16463488Y-72145919D01*
X16207501Y-72095000D01*
X15946499Y-72095000D01*
X15690512Y-72145919D01*
X15449377Y-72245800D01*
X15232362Y-72390805D01*
X15047805Y-72575362D01*
X14902800Y-72792377D01*
X14802919Y-73033512D01*
X14752000Y-73289499D01*
X10363869Y-73289499D01*
X10544594Y-72853191D01*
X10657000Y-72288087D01*
X10657000Y-71711913D01*
X10544594Y-71146809D01*
X10324102Y-70614493D01*
X10003996Y-70135421D01*
X9596579Y-69728004D01*
X9117507Y-69407898D01*
X8585191Y-69187406D01*
X8020087Y-69075000D01*
X7443913Y-69075000D01*
X6878809Y-69187406D01*
X6346493Y-69407898D01*
X5867421Y-69728004D01*
X5460004Y-70135421D01*
X5139898Y-70614493D01*
X4919406Y-71146809D01*
X4807000Y-71711913D01*
X4751000Y-71711913D01*
X4751000Y-62005473D01*
X4753903Y-61976000D01*
X4742318Y-61858379D01*
X4708010Y-61745279D01*
X4652296Y-61641045D01*
X4577317Y-61549683D01*
X4485955Y-61474704D01*
X4381721Y-61418990D01*
X4268621Y-61384682D01*
X4180474Y-61376000D01*
X4151000Y-61373097D01*
X4121526Y-61376000D01*
X600000Y-61376000D01*
X600000Y-58811913D01*
X6111000Y-58811913D01*
X6111000Y-59388087D01*
X6223406Y-59953191D01*
X6443898Y-60485507D01*
X6764004Y-60964579D01*
X7171421Y-61371996D01*
X7650493Y-61692102D01*
X8182809Y-61912594D01*
X8747913Y-62025000D01*
X9324087Y-62025000D01*
X9889191Y-61912594D01*
X10421507Y-61692102D01*
X10900579Y-61371996D01*
X11307996Y-60964579D01*
X11628102Y-60485507D01*
X11848594Y-59953191D01*
X11961000Y-59388087D01*
X11961000Y-58811913D01*
X11848594Y-58246809D01*
X11628102Y-57714493D01*
X11307996Y-57235421D01*
X10900579Y-56828004D01*
X10421507Y-56507898D01*
X9889191Y-56287406D01*
X9324087Y-56175000D01*
X8747913Y-56175000D01*
X8182809Y-56287406D01*
X7650493Y-56507898D01*
X7171421Y-56828004D01*
X6764004Y-57235421D01*
X6443898Y-57714493D01*
X6223406Y-58246809D01*
X6111000Y-58811913D01*
X600000Y-58811913D01*
X600000Y-54443971D01*
X3881000Y-54443971D01*
X3881000Y-54636029D01*
X3918468Y-54824397D01*
X3991966Y-55001836D01*
X4098668Y-55161527D01*
X4234473Y-55297332D01*
X4394164Y-55404034D01*
X4571603Y-55477532D01*
X4759971Y-55515000D01*
X4952029Y-55515000D01*
X5140397Y-55477532D01*
X5317836Y-55404034D01*
X5477527Y-55297332D01*
X5613332Y-55161527D01*
X5720034Y-55001836D01*
X5793532Y-54824397D01*
X5831000Y-54636029D01*
X5831000Y-54443971D01*
X5793532Y-54255603D01*
X5720034Y-54078164D01*
X5613332Y-53918473D01*
X5506000Y-53811141D01*
X5506000Y-51709238D01*
X5810239Y-51405000D01*
X6456752Y-51405000D01*
X6586805Y-51599638D01*
X6771362Y-51784195D01*
X6988377Y-51929200D01*
X7229512Y-52029081D01*
X7485499Y-52080000D01*
X7746501Y-52080000D01*
X8002488Y-52029081D01*
X8243623Y-51929200D01*
X8460638Y-51784195D01*
X8645195Y-51599638D01*
X8790200Y-51382623D01*
X8807854Y-51340000D01*
X9128460Y-51340000D01*
X9128460Y-52940000D01*
X9138597Y-53042918D01*
X9168617Y-53141881D01*
X9217367Y-53233086D01*
X9282973Y-53313027D01*
X9362914Y-53378633D01*
X9454119Y-53427383D01*
X9553082Y-53457403D01*
X9656000Y-53467540D01*
X11256000Y-53467540D01*
X11358918Y-53457403D01*
X11457881Y-53427383D01*
X11549086Y-53378633D01*
X11629027Y-53313027D01*
X11694633Y-53233086D01*
X11743383Y-53141881D01*
X11773403Y-53042918D01*
X11783540Y-52940000D01*
X11783540Y-51340000D01*
X11773403Y-51237082D01*
X11743383Y-51138119D01*
X11694633Y-51046914D01*
X11629027Y-50966973D01*
X11549086Y-50901367D01*
X11457881Y-50852617D01*
X11358918Y-50822597D01*
X11256000Y-50812460D01*
X9656000Y-50812460D01*
X9553082Y-50822597D01*
X9454119Y-50852617D01*
X9362914Y-50901367D01*
X9282973Y-50966973D01*
X9217367Y-51046914D01*
X9168617Y-51138119D01*
X9138597Y-51237082D01*
X9128460Y-51340000D01*
X8807854Y-51340000D01*
X8890081Y-51141488D01*
X8941000Y-50885501D01*
X8941000Y-50624499D01*
X8890081Y-50368512D01*
X8790200Y-50127377D01*
X8645195Y-49910362D01*
X8460638Y-49725805D01*
X8243623Y-49580800D01*
X8002488Y-49480919D01*
X7746501Y-49430000D01*
X7485499Y-49430000D01*
X7229512Y-49480919D01*
X6988377Y-49580800D01*
X6771362Y-49725805D01*
X6586805Y-49910362D01*
X6456752Y-50105000D01*
X5572920Y-50105000D01*
X5540999Y-50101856D01*
X5509078Y-50105000D01*
X5509068Y-50105000D01*
X5413578Y-50114405D01*
X5291052Y-50151573D01*
X5178132Y-50211930D01*
X5178130Y-50211931D01*
X5178131Y-50211931D01*
X5103959Y-50272802D01*
X5103957Y-50272804D01*
X5079157Y-50293157D01*
X5058804Y-50317957D01*
X4418957Y-50957805D01*
X4394158Y-50978157D01*
X4373805Y-51002957D01*
X4373802Y-51002960D01*
X4312930Y-51077132D01*
X4252573Y-51190053D01*
X4226210Y-51276962D01*
X4215406Y-51312578D01*
X4207230Y-51395595D01*
X4202856Y-51440000D01*
X4206001Y-51471931D01*
X4206000Y-53811141D01*
X4098668Y-53918473D01*
X3991966Y-54078164D01*
X3918468Y-54255603D01*
X3881000Y-54443971D01*
X600000Y-54443971D01*
X600000Y-47854499D01*
X6291000Y-47854499D01*
X6291000Y-48115501D01*
X6341919Y-48371488D01*
X6441800Y-48612623D01*
X6586805Y-48829638D01*
X6771362Y-49014195D01*
X6988377Y-49159200D01*
X7229512Y-49259081D01*
X7485499Y-49310000D01*
X7746501Y-49310000D01*
X8002488Y-49259081D01*
X8243623Y-49159200D01*
X8460638Y-49014195D01*
X8645195Y-48829638D01*
X8790200Y-48612623D01*
X8890081Y-48371488D01*
X8941000Y-48115501D01*
X8941000Y-47854499D01*
X8890081Y-47598512D01*
X8790200Y-47357377D01*
X8645195Y-47140362D01*
X8460638Y-46955805D01*
X8243623Y-46810800D01*
X8002488Y-46710919D01*
X7746501Y-46660000D01*
X7485499Y-46660000D01*
X7229512Y-46710919D01*
X6988377Y-46810800D01*
X6771362Y-46955805D01*
X6586805Y-47140362D01*
X6441800Y-47357377D01*
X6341919Y-47598512D01*
X6291000Y-47854499D01*
X600000Y-47854499D01*
X600000Y-46115016D01*
X6822050Y-46115016D01*
X6895334Y-46334508D01*
X7127586Y-46453592D01*
X7378608Y-46525077D01*
X7638753Y-46546217D01*
X7898023Y-46516199D01*
X8146455Y-46436177D01*
X8336666Y-46334508D01*
X8409950Y-46115016D01*
X7616000Y-45321066D01*
X6822050Y-46115016D01*
X600000Y-46115016D01*
X600000Y-45237753D01*
X6284783Y-45237753D01*
X6314801Y-45497023D01*
X6394823Y-45745455D01*
X6496492Y-45935666D01*
X6715984Y-46008950D01*
X7509934Y-45215000D01*
X7722066Y-45215000D01*
X8516016Y-46008950D01*
X8735508Y-45935666D01*
X8854592Y-45703414D01*
X8926077Y-45452392D01*
X8947217Y-45192247D01*
X8917199Y-44932977D01*
X8837177Y-44684545D01*
X8735508Y-44494334D01*
X8516016Y-44421050D01*
X7722066Y-45215000D01*
X7509934Y-45215000D01*
X6715984Y-44421050D01*
X6496492Y-44494334D01*
X6377408Y-44726586D01*
X6305923Y-44977608D01*
X6284783Y-45237753D01*
X600000Y-45237753D01*
X600000Y-44314984D01*
X6822050Y-44314984D01*
X7616000Y-45108934D01*
X8409950Y-44314984D01*
X8336666Y-44095492D01*
X8104414Y-43976408D01*
X7853392Y-43904923D01*
X7593247Y-43883783D01*
X7333977Y-43913801D01*
X7085545Y-43993823D01*
X6895334Y-44095492D01*
X6822050Y-44314984D01*
X600000Y-44314984D01*
X600000Y-42314499D01*
X6291000Y-42314499D01*
X6291000Y-42575501D01*
X6341919Y-42831488D01*
X6441800Y-43072623D01*
X6586805Y-43289638D01*
X6771362Y-43474195D01*
X6988377Y-43619200D01*
X7229512Y-43719081D01*
X7485499Y-43770000D01*
X7746501Y-43770000D01*
X8002488Y-43719081D01*
X8243623Y-43619200D01*
X8460638Y-43474195D01*
X8645195Y-43289638D01*
X8790200Y-43072623D01*
X8890081Y-42831488D01*
X8941000Y-42575501D01*
X8941000Y-42314499D01*
X8890081Y-42058512D01*
X8790200Y-41817377D01*
X8645195Y-41600362D01*
X8460638Y-41415805D01*
X8243623Y-41270800D01*
X8002488Y-41170919D01*
X7746501Y-41120000D01*
X7485499Y-41120000D01*
X7229512Y-41170919D01*
X6988377Y-41270800D01*
X6771362Y-41415805D01*
X6586805Y-41600362D01*
X6441800Y-41817377D01*
X6341919Y-42058512D01*
X6291000Y-42314499D01*
X600000Y-42314499D01*
X600000Y-27611913D01*
X6111000Y-27611913D01*
X6111000Y-28188087D01*
X6223406Y-28753191D01*
X6443898Y-29285507D01*
X6764004Y-29764579D01*
X7171421Y-30171996D01*
X7650493Y-30492102D01*
X8182809Y-30712594D01*
X8747913Y-30825000D01*
X9324087Y-30825000D01*
X9889191Y-30712594D01*
X10421507Y-30492102D01*
X10900579Y-30171996D01*
X11307996Y-29764579D01*
X11606001Y-29318584D01*
X11606001Y-32681416D01*
X11307996Y-32235421D01*
X10900579Y-31828004D01*
X10421507Y-31507898D01*
X9889191Y-31287406D01*
X9324087Y-31175000D01*
X8747913Y-31175000D01*
X8182809Y-31287406D01*
X7650493Y-31507898D01*
X7171421Y-31828004D01*
X6764004Y-32235421D01*
X6443898Y-32714493D01*
X6223406Y-33246809D01*
X6111000Y-33811913D01*
X6111000Y-34388087D01*
X6223406Y-34953191D01*
X6443898Y-35485507D01*
X6764004Y-35964579D01*
X7171421Y-36371996D01*
X7650493Y-36692102D01*
X8182809Y-36912594D01*
X8747913Y-37025000D01*
X9324087Y-37025000D01*
X9889191Y-36912594D01*
X10421507Y-36692102D01*
X10900579Y-36371996D01*
X11307996Y-35964579D01*
X11606001Y-35518584D01*
X11606000Y-40396159D01*
X11485195Y-40215362D01*
X11300638Y-40030805D01*
X11083623Y-39885800D01*
X10842488Y-39785919D01*
X10586501Y-39735000D01*
X10325499Y-39735000D01*
X10069512Y-39785919D01*
X9828377Y-39885800D01*
X9611362Y-40030805D01*
X9426805Y-40215362D01*
X9281800Y-40432377D01*
X9181919Y-40673512D01*
X9131000Y-40929499D01*
X9131000Y-41190501D01*
X9181919Y-41446488D01*
X9281800Y-41687623D01*
X9426805Y-41904638D01*
X9611362Y-42089195D01*
X9828377Y-42234200D01*
X10069512Y-42334081D01*
X10325499Y-42385000D01*
X10586501Y-42385000D01*
X10842488Y-42334081D01*
X11083623Y-42234200D01*
X11300638Y-42089195D01*
X11485195Y-41904638D01*
X11606000Y-41723841D01*
X11606000Y-43070762D01*
X11567789Y-43108973D01*
X11485195Y-42985362D01*
X11300638Y-42800805D01*
X11083623Y-42655800D01*
X10842488Y-42555919D01*
X10586501Y-42505000D01*
X10325499Y-42505000D01*
X10069512Y-42555919D01*
X9828377Y-42655800D01*
X9611362Y-42800805D01*
X9426805Y-42985362D01*
X9281800Y-43202377D01*
X9181919Y-43443512D01*
X9131000Y-43699499D01*
X9131000Y-43960501D01*
X9181919Y-44216488D01*
X9281800Y-44457623D01*
X9426805Y-44674638D01*
X9611362Y-44859195D01*
X9828377Y-45004200D01*
X10069512Y-45104081D01*
X10325499Y-45155000D01*
X10586501Y-45155000D01*
X10842488Y-45104081D01*
X11083623Y-45004200D01*
X11300638Y-44859195D01*
X11485195Y-44674638D01*
X11615248Y-44480000D01*
X11734079Y-44480000D01*
X11766000Y-44483144D01*
X11797921Y-44480000D01*
X11797932Y-44480000D01*
X11893422Y-44470595D01*
X12015948Y-44433427D01*
X12128868Y-44373070D01*
X12206000Y-44309769D01*
X12206000Y-45270761D01*
X11579805Y-45896956D01*
X11485195Y-45755362D01*
X11300638Y-45570805D01*
X11083623Y-45425800D01*
X10842488Y-45325919D01*
X10586501Y-45275000D01*
X10325499Y-45275000D01*
X10069512Y-45325919D01*
X9828377Y-45425800D01*
X9611362Y-45570805D01*
X9426805Y-45755362D01*
X9281800Y-45972377D01*
X9181919Y-46213512D01*
X9131000Y-46469499D01*
X9131000Y-46730501D01*
X9181919Y-46986488D01*
X9281800Y-47227623D01*
X9426805Y-47444638D01*
X9611362Y-47629195D01*
X9828377Y-47774200D01*
X10069512Y-47874081D01*
X10325499Y-47925000D01*
X10586501Y-47925000D01*
X10842488Y-47874081D01*
X11083623Y-47774200D01*
X11231109Y-47675653D01*
X10816093Y-48090669D01*
X10586501Y-48045000D01*
X10325499Y-48045000D01*
X10069512Y-48095919D01*
X9828377Y-48195800D01*
X9611362Y-48340805D01*
X9426805Y-48525362D01*
X9281800Y-48742377D01*
X9181919Y-48983512D01*
X9131000Y-49239499D01*
X9131000Y-49500501D01*
X9181919Y-49756488D01*
X9281800Y-49997623D01*
X9426805Y-50214638D01*
X9611362Y-50399195D01*
X9828377Y-50544200D01*
X10069512Y-50644081D01*
X10325499Y-50695000D01*
X10586501Y-50695000D01*
X10842488Y-50644081D01*
X11083623Y-50544200D01*
X11300638Y-50399195D01*
X11485195Y-50214638D01*
X11630200Y-49997623D01*
X11730081Y-49756488D01*
X11781000Y-49500501D01*
X11781000Y-49239499D01*
X11735331Y-49009907D01*
X13893038Y-46852200D01*
X13917843Y-46831843D01*
X13999070Y-46732868D01*
X14059427Y-46619948D01*
X14096595Y-46497422D01*
X14106000Y-46401932D01*
X14106000Y-46401924D01*
X14109144Y-46370000D01*
X14106000Y-46338076D01*
X14106000Y-29360000D01*
X15102856Y-29360000D01*
X15106001Y-29391931D01*
X15106000Y-31908078D01*
X15102856Y-31940000D01*
X15106000Y-31971921D01*
X15106000Y-31971931D01*
X15115405Y-32067421D01*
X15148997Y-32178157D01*
X15152573Y-32189947D01*
X15212930Y-32302868D01*
X15213157Y-32303144D01*
X15294157Y-32401843D01*
X15318962Y-32422200D01*
X17531000Y-34634239D01*
X17531000Y-34731105D01*
X17566547Y-34909813D01*
X17636275Y-35078152D01*
X17737505Y-35229653D01*
X17866347Y-35358495D01*
X18017848Y-35459725D01*
X18186187Y-35529453D01*
X18364895Y-35565000D01*
X18547105Y-35565000D01*
X18725813Y-35529453D01*
X18894152Y-35459725D01*
X19045653Y-35358495D01*
X19174495Y-35229653D01*
X19275725Y-35078152D01*
X19345453Y-34909813D01*
X19381000Y-34731105D01*
X19381000Y-34548895D01*
X19345453Y-34370187D01*
X19275725Y-34201848D01*
X19174495Y-34050347D01*
X19045653Y-33921505D01*
X18894152Y-33820275D01*
X18725813Y-33750547D01*
X18547105Y-33715000D01*
X18450239Y-33715000D01*
X16406000Y-31670762D01*
X16406000Y-29629238D01*
X19545239Y-26490000D01*
X19642105Y-26490000D01*
X19820813Y-26454453D01*
X19989152Y-26384725D01*
X20140653Y-26283495D01*
X20269495Y-26154653D01*
X20370725Y-26003152D01*
X20440453Y-25834813D01*
X20476000Y-25656105D01*
X20476000Y-25473895D01*
X20440453Y-25295187D01*
X20370725Y-25126848D01*
X20269495Y-24975347D01*
X20140653Y-24846505D01*
X19989152Y-24745275D01*
X19820813Y-24675547D01*
X19642105Y-24640000D01*
X19459895Y-24640000D01*
X19281187Y-24675547D01*
X19112848Y-24745275D01*
X18961347Y-24846505D01*
X18832505Y-24975347D01*
X18731275Y-25126848D01*
X18661547Y-25295187D01*
X18626000Y-25473895D01*
X18626000Y-25570761D01*
X15318957Y-28877805D01*
X15294158Y-28898157D01*
X15273805Y-28922957D01*
X15273802Y-28922960D01*
X15212930Y-28997132D01*
X15152573Y-29110053D01*
X15115406Y-29232578D01*
X15102856Y-29360000D01*
X14106000Y-29360000D01*
X14106000Y-28709238D01*
X21258039Y-21557199D01*
X21282843Y-21536843D01*
X21341847Y-21464947D01*
X21364070Y-21437869D01*
X21424427Y-21324948D01*
X21425261Y-21322198D01*
X21461595Y-21202422D01*
X21471000Y-21106932D01*
X21471000Y-21106921D01*
X21474144Y-21075000D01*
X21471000Y-21043079D01*
X21471000Y-20373148D01*
X21539495Y-20304653D01*
X21640725Y-20153152D01*
X21710453Y-19984813D01*
X21738844Y-19842082D01*
X22406000Y-20509239D01*
X22406000Y-20808079D01*
X22402856Y-20840000D01*
X22406000Y-20871921D01*
X22406000Y-20871932D01*
X22415405Y-20967422D01*
X22452573Y-21089948D01*
X22469811Y-21122198D01*
X22512930Y-21202868D01*
X22573802Y-21277040D01*
X22573805Y-21277043D01*
X22594158Y-21301843D01*
X22618957Y-21322195D01*
X23973804Y-22677043D01*
X23994157Y-22701843D01*
X24018957Y-22722196D01*
X24018959Y-22722198D01*
X24093131Y-22783070D01*
X24193231Y-22836574D01*
X24206052Y-22843427D01*
X24328578Y-22880595D01*
X24424068Y-22890000D01*
X24424078Y-22890000D01*
X24456000Y-22893144D01*
X24487921Y-22890000D01*
X28386762Y-22890000D01*
X29573804Y-24077043D01*
X29594157Y-24101843D01*
X29618957Y-24122196D01*
X29618959Y-24122198D01*
X29693131Y-24183070D01*
X29765834Y-24221930D01*
X29806052Y-24243427D01*
X29928578Y-24280595D01*
X30024068Y-24290000D01*
X30024078Y-24290000D01*
X30056000Y-24293144D01*
X30087921Y-24290000D01*
X30736762Y-24290000D01*
X31481000Y-25034239D01*
X31481001Y-29875330D01*
X31360813Y-29825547D01*
X31182105Y-29790000D01*
X30999895Y-29790000D01*
X30821187Y-29825547D01*
X30652848Y-29895275D01*
X30501347Y-29996505D01*
X30372505Y-30125347D01*
X30271275Y-30276848D01*
X30201547Y-30445187D01*
X30166000Y-30623895D01*
X30166000Y-30720762D01*
X29718958Y-31167804D01*
X29694158Y-31188157D01*
X29673805Y-31212957D01*
X29673802Y-31212960D01*
X29612930Y-31287132D01*
X29552573Y-31400053D01*
X29515406Y-31522578D01*
X29502856Y-31650000D01*
X29506001Y-31681932D01*
X29506000Y-37970761D01*
X26618957Y-40857805D01*
X26594158Y-40878157D01*
X26573805Y-40902957D01*
X26573802Y-40902960D01*
X26515069Y-40974526D01*
X26412511Y-40871968D01*
X26187307Y-40721491D01*
X26186000Y-40720950D01*
X26186000Y-38001920D01*
X26189144Y-37969999D01*
X26186000Y-37938078D01*
X26186000Y-37938068D01*
X26176595Y-37842578D01*
X26139427Y-37720052D01*
X26079070Y-37607132D01*
X25997843Y-37508157D01*
X25973043Y-37487804D01*
X19206000Y-30720762D01*
X19206000Y-30623895D01*
X19170453Y-30445187D01*
X19100725Y-30276848D01*
X18999495Y-30125347D01*
X18870653Y-29996505D01*
X18719152Y-29895275D01*
X18550813Y-29825547D01*
X18372105Y-29790000D01*
X18189895Y-29790000D01*
X18011187Y-29825547D01*
X17842848Y-29895275D01*
X17691347Y-29996505D01*
X17562505Y-30125347D01*
X17461275Y-30276848D01*
X17391547Y-30445187D01*
X17356000Y-30623895D01*
X17356000Y-30806105D01*
X17391547Y-30984813D01*
X17461275Y-31153152D01*
X17562505Y-31304653D01*
X17691347Y-31433495D01*
X17842848Y-31534725D01*
X18011187Y-31604453D01*
X18189895Y-31640000D01*
X18286762Y-31640000D01*
X24886001Y-38239240D01*
X24886000Y-40720949D01*
X24884693Y-40721491D01*
X24659489Y-40871968D01*
X24467968Y-41063489D01*
X24317491Y-41288693D01*
X24266000Y-41413004D01*
X24214509Y-41288693D01*
X24064032Y-41063489D01*
X23872511Y-40871968D01*
X23647307Y-40721491D01*
X23397073Y-40617841D01*
X23131426Y-40565000D01*
X22860574Y-40565000D01*
X22594927Y-40617841D01*
X22344693Y-40721491D01*
X22119489Y-40871968D01*
X21927968Y-41063489D01*
X21833540Y-41204810D01*
X21833540Y-41090000D01*
X21823403Y-40987082D01*
X21793383Y-40888119D01*
X21744633Y-40796914D01*
X21679027Y-40716973D01*
X21599086Y-40651367D01*
X21507881Y-40602617D01*
X21408918Y-40572597D01*
X21306000Y-40562460D01*
X19606000Y-40562460D01*
X19503082Y-40572597D01*
X19404119Y-40602617D01*
X19312914Y-40651367D01*
X19232973Y-40716973D01*
X19167367Y-40796914D01*
X19118617Y-40888119D01*
X19088597Y-40987082D01*
X19078460Y-41090000D01*
X19078460Y-42790000D01*
X19088597Y-42892918D01*
X19118617Y-42991881D01*
X19167367Y-43083086D01*
X19232973Y-43163027D01*
X19312914Y-43228633D01*
X19404119Y-43277383D01*
X19503082Y-43307403D01*
X19606000Y-43317540D01*
X21306000Y-43317540D01*
X21408918Y-43307403D01*
X21507881Y-43277383D01*
X21599086Y-43228633D01*
X21679027Y-43163027D01*
X21744633Y-43083086D01*
X21793383Y-42991881D01*
X21823403Y-42892918D01*
X21833540Y-42790000D01*
X21833540Y-42675190D01*
X21927968Y-42816511D01*
X22119489Y-43008032D01*
X22344693Y-43158509D01*
X22594927Y-43262159D01*
X22860574Y-43315000D01*
X23131426Y-43315000D01*
X23397073Y-43262159D01*
X23398380Y-43261618D01*
X24106001Y-43969239D01*
X24106001Y-44498298D01*
X24032962Y-44388987D01*
X23847013Y-44203038D01*
X23628359Y-44056939D01*
X23385405Y-43956304D01*
X23127486Y-43905000D01*
X22864514Y-43905000D01*
X22606595Y-43956304D01*
X22363641Y-44056939D01*
X22144987Y-44203038D01*
X21959038Y-44388987D01*
X21812939Y-44607641D01*
X21712304Y-44850595D01*
X21661000Y-45108514D01*
X21661000Y-45371486D01*
X21712304Y-45629405D01*
X21812939Y-45872359D01*
X21959038Y-46091013D01*
X22144987Y-46276962D01*
X22363641Y-46423061D01*
X22606595Y-46523696D01*
X22864514Y-46575000D01*
X23127486Y-46575000D01*
X23385405Y-46523696D01*
X23628359Y-46423061D01*
X23847013Y-46276962D01*
X24032962Y-46091013D01*
X24106000Y-45981703D01*
X24106000Y-46370761D01*
X21918957Y-48557805D01*
X21894158Y-48578157D01*
X21873805Y-48602957D01*
X21873802Y-48602960D01*
X21812930Y-48677132D01*
X21752573Y-48790053D01*
X21715406Y-48912578D01*
X21702856Y-49040000D01*
X21706001Y-49071931D01*
X21706001Y-49672679D01*
X21679061Y-49607641D01*
X21532962Y-49388987D01*
X21347013Y-49203038D01*
X21128359Y-49056939D01*
X20885405Y-48956304D01*
X20627486Y-48905000D01*
X20364514Y-48905000D01*
X20106595Y-48956304D01*
X19863641Y-49056939D01*
X19644987Y-49203038D01*
X19459038Y-49388987D01*
X19312939Y-49607641D01*
X19212304Y-49850595D01*
X19161000Y-50108514D01*
X19161000Y-50371486D01*
X19212304Y-50629405D01*
X19312939Y-50872359D01*
X19459038Y-51091013D01*
X19644987Y-51276962D01*
X19863641Y-51423061D01*
X20106595Y-51523696D01*
X20364514Y-51575000D01*
X20627486Y-51575000D01*
X20885405Y-51523696D01*
X21128359Y-51423061D01*
X21347013Y-51276962D01*
X21532962Y-51091013D01*
X21679061Y-50872359D01*
X21706001Y-50807321D01*
X21706000Y-52770761D01*
X20586762Y-53890000D01*
X8084859Y-53890000D01*
X7977527Y-53782668D01*
X7817836Y-53675966D01*
X7640397Y-53602468D01*
X7452029Y-53565000D01*
X7259971Y-53565000D01*
X7071603Y-53602468D01*
X6894164Y-53675966D01*
X6734473Y-53782668D01*
X6598668Y-53918473D01*
X6491966Y-54078164D01*
X6418468Y-54255603D01*
X6381000Y-54443971D01*
X6381000Y-54636029D01*
X6418468Y-54824397D01*
X6491966Y-55001836D01*
X6598668Y-55161527D01*
X6734473Y-55297332D01*
X6894164Y-55404034D01*
X7071603Y-55477532D01*
X7259971Y-55515000D01*
X7452029Y-55515000D01*
X7640397Y-55477532D01*
X7817836Y-55404034D01*
X7977527Y-55297332D01*
X8084859Y-55190000D01*
X20486762Y-55190000D01*
X18718962Y-56957800D01*
X18694157Y-56978157D01*
X18673802Y-57002960D01*
X18612930Y-57077132D01*
X18552574Y-57190052D01*
X18552573Y-57190053D01*
X18515405Y-57312579D01*
X18506000Y-57408069D01*
X18506000Y-57408079D01*
X18502856Y-57440000D01*
X18506000Y-57471922D01*
X18506000Y-59009573D01*
X18414509Y-58788693D01*
X18264032Y-58563489D01*
X18072511Y-58371968D01*
X17847307Y-58221491D01*
X17597073Y-58117841D01*
X17331426Y-58065000D01*
X17060574Y-58065000D01*
X16794927Y-58117841D01*
X16544693Y-58221491D01*
X16319489Y-58371968D01*
X16127968Y-58563489D01*
X16033540Y-58704810D01*
X16033540Y-58590000D01*
X16023403Y-58487082D01*
X15993383Y-58388119D01*
X15944633Y-58296914D01*
X15879027Y-58216973D01*
X15799086Y-58151367D01*
X15707881Y-58102617D01*
X15608918Y-58072597D01*
X15506000Y-58062460D01*
X13806000Y-58062460D01*
X13703082Y-58072597D01*
X13604119Y-58102617D01*
X13512914Y-58151367D01*
X13432973Y-58216973D01*
X13367367Y-58296914D01*
X13318617Y-58388119D01*
X13288597Y-58487082D01*
X13278460Y-58590000D01*
X13278460Y-60290000D01*
X13288597Y-60392918D01*
X13318617Y-60491881D01*
X13367367Y-60583086D01*
X13432973Y-60663027D01*
X13512914Y-60728633D01*
X13604119Y-60777383D01*
X13703082Y-60807403D01*
X13806000Y-60817540D01*
X13920810Y-60817540D01*
X13779489Y-60911968D01*
X13587968Y-61103489D01*
X13437491Y-61328693D01*
X13333841Y-61578927D01*
X13281000Y-61844574D01*
X13281000Y-62115426D01*
X13333841Y-62381073D01*
X13437491Y-62631307D01*
X13587968Y-62856511D01*
X13779489Y-63048032D01*
X14004693Y-63198509D01*
X14129004Y-63250000D01*
X14004693Y-63301491D01*
X13779489Y-63451968D01*
X13587968Y-63643489D01*
X13437491Y-63868693D01*
X13333841Y-64118927D01*
X13281000Y-64384574D01*
X13281000Y-64655426D01*
X13333841Y-64921073D01*
X13437491Y-65171307D01*
X13587968Y-65396511D01*
X13779489Y-65588032D01*
X14004693Y-65738509D01*
X14254927Y-65842159D01*
X14520574Y-65895000D01*
X14791426Y-65895000D01*
X14808352Y-65891633D01*
X14170918Y-66529068D01*
X14141341Y-66553341D01*
X14071853Y-66638014D01*
X14044494Y-66671350D01*
X14036206Y-66686856D01*
X13972530Y-66805987D01*
X13928214Y-66952075D01*
X13917637Y-67059469D01*
X13913251Y-67104000D01*
X13917000Y-67142063D01*
X13917001Y-69252460D01*
X13892000Y-69252460D01*
X13789082Y-69262597D01*
X13690119Y-69292617D01*
X13598914Y-69341367D01*
X13518973Y-69406973D01*
X13453367Y-69486914D01*
X13404617Y-69578119D01*
X13374597Y-69677082D01*
X13364460Y-69780000D01*
X13364460Y-71380000D01*
X13374597Y-71482918D01*
X13404617Y-71581881D01*
X13453367Y-71673086D01*
X13518973Y-71753027D01*
X13598914Y-71818633D01*
X13690119Y-71867383D01*
X13789082Y-71897403D01*
X13892000Y-71907540D01*
X15492000Y-71907540D01*
X15594918Y-71897403D01*
X15693881Y-71867383D01*
X15785086Y-71818633D01*
X15865027Y-71753027D01*
X15930633Y-71673086D01*
X15979383Y-71581881D01*
X16009403Y-71482918D01*
X16019540Y-71380000D01*
X16019540Y-69780000D01*
X16009403Y-69677082D01*
X15979383Y-69578119D01*
X15930633Y-69486914D01*
X15865027Y-69406973D01*
X15785086Y-69341367D01*
X15693881Y-69292617D01*
X15594918Y-69262597D01*
X15492000Y-69252460D01*
X15467000Y-69252460D01*
X15467000Y-67425014D01*
X15777015Y-67115000D01*
X18461762Y-67115000D01*
X17024958Y-68551804D01*
X17000158Y-68572157D01*
X16979805Y-68596957D01*
X16979802Y-68596960D01*
X16918930Y-68671132D01*
X16858573Y-68784053D01*
X16822531Y-68902868D01*
X16821406Y-68906578D01*
X16815497Y-68966578D01*
X16808856Y-69034000D01*
X16812001Y-69065931D01*
X16812001Y-69420751D01*
X16617362Y-69550805D01*
X16432805Y-69735362D01*
X16287800Y-69952377D01*
X16187919Y-70193512D01*
X16137000Y-70449499D01*
X16137000Y-70710501D01*
X16187919Y-70966488D01*
X16287800Y-71207623D01*
X16432805Y-71424638D01*
X16617362Y-71609195D01*
X16834377Y-71754200D01*
X17075512Y-71854081D01*
X17331499Y-71905000D01*
X17592501Y-71905000D01*
X17848488Y-71854081D01*
X18089623Y-71754200D01*
X18306638Y-71609195D01*
X18491195Y-71424638D01*
X18636200Y-71207623D01*
X18736081Y-70966488D01*
X18787000Y-70710501D01*
X18787000Y-70449499D01*
X18736081Y-70193512D01*
X18636200Y-69952377D01*
X18491195Y-69735362D01*
X18306638Y-69550805D01*
X18112000Y-69420752D01*
X18112000Y-69303238D01*
X19425238Y-67990000D01*
X20486761Y-67990000D01*
X19794962Y-68681800D01*
X19770157Y-68702157D01*
X19749802Y-68726960D01*
X19688930Y-68801132D01*
X19634551Y-68902869D01*
X19628573Y-68914053D01*
X19591405Y-69036579D01*
X19582000Y-69132069D01*
X19582000Y-69132079D01*
X19578856Y-69164000D01*
X19582000Y-69195922D01*
X19582000Y-69420752D01*
X19387362Y-69550805D01*
X19202805Y-69735362D01*
X19057800Y-69952377D01*
X18957919Y-70193512D01*
X18907000Y-70449499D01*
X18907000Y-70710501D01*
X18957919Y-70966488D01*
X19057800Y-71207623D01*
X19202805Y-71424638D01*
X19387362Y-71609195D01*
X19604377Y-71754200D01*
X19845512Y-71854081D01*
X20101499Y-71905000D01*
X20362501Y-71905000D01*
X20618488Y-71854081D01*
X20859623Y-71754200D01*
X21076638Y-71609195D01*
X21261195Y-71424638D01*
X21406200Y-71207623D01*
X21506081Y-70966488D01*
X21557000Y-70710501D01*
X21557000Y-70449499D01*
X21506081Y-70193512D01*
X21406200Y-69952377D01*
X21261195Y-69735362D01*
X21076638Y-69550805D01*
X20889485Y-69425753D01*
X21725239Y-68590000D01*
X22586762Y-68590000D01*
X22564957Y-68611805D01*
X22540158Y-68632157D01*
X22519805Y-68656957D01*
X22519802Y-68656960D01*
X22458930Y-68731132D01*
X22398573Y-68844053D01*
X22361406Y-68966578D01*
X22348856Y-69094000D01*
X22352001Y-69125931D01*
X22352001Y-69420751D01*
X22157362Y-69550805D01*
X21972805Y-69735362D01*
X21827800Y-69952377D01*
X21727919Y-70193512D01*
X21677000Y-70449499D01*
X21677000Y-70710501D01*
X21727919Y-70966488D01*
X21827800Y-71207623D01*
X21972805Y-71424638D01*
X22157362Y-71609195D01*
X22374377Y-71754200D01*
X22615512Y-71854081D01*
X22871499Y-71905000D01*
X23132501Y-71905000D01*
X23388488Y-71854081D01*
X23629623Y-71754200D01*
X23846638Y-71609195D01*
X24031195Y-71424638D01*
X24176200Y-71207623D01*
X24276081Y-70966488D01*
X24327000Y-70710501D01*
X24327000Y-70449499D01*
X24447000Y-70449499D01*
X24447000Y-70710501D01*
X24497919Y-70966488D01*
X24597800Y-71207623D01*
X24742805Y-71424638D01*
X24927362Y-71609195D01*
X25144377Y-71754200D01*
X25385512Y-71854081D01*
X25641499Y-71905000D01*
X25902501Y-71905000D01*
X26158488Y-71854081D01*
X26399623Y-71754200D01*
X26462909Y-71711913D01*
X29807000Y-71711913D01*
X29807000Y-72288087D01*
X29919406Y-72853191D01*
X30139898Y-73385507D01*
X30460004Y-73864579D01*
X30867421Y-74271996D01*
X31346493Y-74592102D01*
X31878809Y-74812594D01*
X32443913Y-74925000D01*
X33020087Y-74925000D01*
X33585191Y-74812594D01*
X34117507Y-74592102D01*
X34596579Y-74271996D01*
X35003996Y-73864579D01*
X35324102Y-73385507D01*
X35544594Y-72853191D01*
X35657000Y-72288087D01*
X35657000Y-71711913D01*
X35544594Y-71146809D01*
X35324102Y-70614493D01*
X35003996Y-70135421D01*
X34596579Y-69728004D01*
X34117507Y-69407898D01*
X33585191Y-69187406D01*
X33020087Y-69075000D01*
X32443913Y-69075000D01*
X31878809Y-69187406D01*
X31346493Y-69407898D01*
X30867421Y-69728004D01*
X30460004Y-70135421D01*
X30139898Y-70614493D01*
X29919406Y-71146809D01*
X29807000Y-71711913D01*
X26462909Y-71711913D01*
X26616638Y-71609195D01*
X26801195Y-71424638D01*
X26946200Y-71207623D01*
X27046081Y-70966488D01*
X27097000Y-70710501D01*
X27097000Y-70449499D01*
X27046081Y-70193512D01*
X26946200Y-69952377D01*
X26801195Y-69735362D01*
X26616638Y-69550805D01*
X26399623Y-69405800D01*
X26158488Y-69305919D01*
X25902501Y-69255000D01*
X25641499Y-69255000D01*
X25385512Y-69305919D01*
X25144377Y-69405800D01*
X24927362Y-69550805D01*
X24742805Y-69735362D01*
X24597800Y-69952377D01*
X24497919Y-70193512D01*
X24447000Y-70449499D01*
X24327000Y-70449499D01*
X24276081Y-70193512D01*
X24176200Y-69952377D01*
X24031195Y-69735362D01*
X23846638Y-69550805D01*
X23652000Y-69420752D01*
X23652000Y-69363238D01*
X23825239Y-69190000D01*
X29424079Y-69190000D01*
X29456000Y-69193144D01*
X29487921Y-69190000D01*
X29487932Y-69190000D01*
X29583422Y-69180595D01*
X29705948Y-69143427D01*
X29818868Y-69083070D01*
X29917843Y-69001843D01*
X29938200Y-68977038D01*
X33793039Y-65122199D01*
X33817843Y-65101843D01*
X33884114Y-65021092D01*
X33899070Y-65002869D01*
X33959427Y-64889948D01*
X33961513Y-64883070D01*
X33996595Y-64767422D01*
X34006000Y-64671932D01*
X34006000Y-64671921D01*
X34009144Y-64640000D01*
X34006000Y-64608079D01*
X34006000Y-57071921D01*
X34009144Y-57040000D01*
X34006000Y-57008079D01*
X34006000Y-57008068D01*
X33996595Y-56912578D01*
X33959427Y-56790052D01*
X33930842Y-56736573D01*
X33899070Y-56677131D01*
X33838198Y-56602960D01*
X33817843Y-56578157D01*
X33793038Y-56557800D01*
X30106000Y-52870762D01*
X30106000Y-51277387D01*
X30161996Y-51333383D01*
X30419958Y-51505747D01*
X30706589Y-51624474D01*
X31010876Y-51685000D01*
X31321124Y-51685000D01*
X31625411Y-51624474D01*
X31912042Y-51505747D01*
X32170004Y-51333383D01*
X32389383Y-51114004D01*
X32561747Y-50856042D01*
X32680474Y-50569411D01*
X32741000Y-50265124D01*
X32741000Y-49954876D01*
X32727096Y-49884973D01*
X32808663Y-49803406D01*
X32890972Y-50030569D01*
X33135989Y-50157135D01*
X33400991Y-50233468D01*
X33675792Y-50256635D01*
X33949833Y-50225746D01*
X34212581Y-50141987D01*
X34421028Y-50030569D01*
X34503338Y-49803404D01*
X33656000Y-48956066D01*
X33641858Y-48970209D01*
X33535792Y-48864143D01*
X33549934Y-48850000D01*
X33762066Y-48850000D01*
X34609404Y-49697338D01*
X34836569Y-49615028D01*
X34963135Y-49370011D01*
X35039468Y-49105009D01*
X35062635Y-48830208D01*
X35031746Y-48556167D01*
X34947987Y-48293419D01*
X34836569Y-48084972D01*
X34609404Y-48002662D01*
X33762066Y-48850000D01*
X33549934Y-48850000D01*
X32702596Y-48002662D01*
X32475431Y-48084972D01*
X32348865Y-48329989D01*
X32272532Y-48594991D01*
X32249365Y-48869792D01*
X32261584Y-48978197D01*
X32170004Y-48886617D01*
X31912042Y-48714253D01*
X31625411Y-48595526D01*
X31321124Y-48535000D01*
X31010876Y-48535000D01*
X30706589Y-48595526D01*
X30419958Y-48714253D01*
X30161996Y-48886617D01*
X30106000Y-48942613D01*
X30106000Y-47896596D01*
X32808662Y-47896596D01*
X33656000Y-48743934D01*
X34503338Y-47896596D01*
X34421028Y-47669431D01*
X34176011Y-47542865D01*
X33911009Y-47466532D01*
X33636208Y-47443365D01*
X33362167Y-47474254D01*
X33099419Y-47558013D01*
X32890972Y-47669431D01*
X32808662Y-47896596D01*
X30106000Y-47896596D01*
X30106000Y-44267387D01*
X30161996Y-44323383D01*
X30419958Y-44495747D01*
X30706589Y-44614474D01*
X31010876Y-44675000D01*
X31321124Y-44675000D01*
X31625411Y-44614474D01*
X31912042Y-44495747D01*
X32170004Y-44323383D01*
X32256000Y-44237387D01*
X32256000Y-44487888D01*
X32309801Y-44758365D01*
X32415336Y-45013149D01*
X32568549Y-45242448D01*
X32763552Y-45437451D01*
X32992851Y-45590664D01*
X33247635Y-45696199D01*
X33518112Y-45750000D01*
X33793888Y-45750000D01*
X34064365Y-45696199D01*
X34319149Y-45590664D01*
X34548448Y-45437451D01*
X34743451Y-45242448D01*
X34896664Y-45013149D01*
X35002199Y-44758365D01*
X35056000Y-44487888D01*
X35056000Y-44212112D01*
X35002199Y-43941635D01*
X34896664Y-43686851D01*
X34743451Y-43457552D01*
X34548448Y-43262549D01*
X34319149Y-43109336D01*
X34064365Y-43003801D01*
X33793888Y-42950000D01*
X33518112Y-42950000D01*
X33247635Y-43003801D01*
X32992851Y-43109336D01*
X32763552Y-43262549D01*
X32733557Y-43292544D01*
X32741000Y-43255124D01*
X32741000Y-42944876D01*
X32680474Y-42640589D01*
X32561747Y-42353958D01*
X32389383Y-42095996D01*
X32170004Y-41876617D01*
X31912042Y-41704253D01*
X31625411Y-41585526D01*
X31321124Y-41525000D01*
X31010876Y-41525000D01*
X30985114Y-41530124D01*
X34968039Y-37547199D01*
X34992843Y-37526843D01*
X35074070Y-37427868D01*
X35134427Y-37314948D01*
X35171595Y-37192422D01*
X35181000Y-37096932D01*
X35181000Y-37096924D01*
X35184144Y-37065000D01*
X35181000Y-37033076D01*
X35181000Y-23746921D01*
X35184144Y-23715000D01*
X35181000Y-23683079D01*
X35181000Y-23683068D01*
X35171595Y-23587578D01*
X35134427Y-23465052D01*
X35121037Y-23440001D01*
X35074070Y-23352131D01*
X35013198Y-23277959D01*
X35013196Y-23277957D01*
X34992843Y-23253157D01*
X34968043Y-23232804D01*
X32513200Y-20777962D01*
X32492843Y-20753157D01*
X32393868Y-20671930D01*
X32280948Y-20611573D01*
X32158422Y-20574405D01*
X32062932Y-20565000D01*
X32062921Y-20565000D01*
X32031000Y-20561856D01*
X31999079Y-20565000D01*
X31250239Y-20565000D01*
X31170239Y-20485000D01*
X31321124Y-20485000D01*
X31625411Y-20424474D01*
X31912042Y-20305747D01*
X32170004Y-20133383D01*
X32389383Y-19914004D01*
X32561747Y-19656042D01*
X32680474Y-19369411D01*
X32741000Y-19065124D01*
X32741000Y-18754876D01*
X32731074Y-18704973D01*
X32763552Y-18737451D01*
X32992851Y-18890664D01*
X33247635Y-18996199D01*
X33518112Y-19050000D01*
X33793888Y-19050000D01*
X34064365Y-18996199D01*
X34319149Y-18890664D01*
X34548448Y-18737451D01*
X34743451Y-18542448D01*
X34896664Y-18313149D01*
X35002199Y-18058365D01*
X35056000Y-17787888D01*
X35056000Y-17512112D01*
X35002199Y-17241635D01*
X34896664Y-16986851D01*
X34743451Y-16757552D01*
X34548448Y-16562549D01*
X34319149Y-16409336D01*
X34064365Y-16303801D01*
X33793888Y-16250000D01*
X33518112Y-16250000D01*
X33247635Y-16303801D01*
X32992851Y-16409336D01*
X32763552Y-16562549D01*
X32568549Y-16757552D01*
X32415336Y-16986851D01*
X32309801Y-17241635D01*
X32256000Y-17512112D01*
X32256000Y-17772613D01*
X32170004Y-17686617D01*
X31912042Y-17514253D01*
X31625411Y-17395526D01*
X31321124Y-17335000D01*
X31010876Y-17335000D01*
X30706589Y-17395526D01*
X30419958Y-17514253D01*
X30161996Y-17686617D01*
X29942617Y-17905996D01*
X29770253Y-18163958D01*
X29651526Y-18450589D01*
X29591000Y-18754876D01*
X29591000Y-18905762D01*
X28738200Y-18052962D01*
X28717843Y-18028157D01*
X28618868Y-17946930D01*
X28505948Y-17886573D01*
X28383422Y-17849405D01*
X28287932Y-17840000D01*
X28287921Y-17840000D01*
X28256000Y-17836856D01*
X28224079Y-17840000D01*
X25175239Y-17840000D01*
X23456000Y-16120762D01*
X23456000Y-15921920D01*
X23459144Y-15889999D01*
X23456000Y-15858078D01*
X23456000Y-15858068D01*
X23446595Y-15762578D01*
X23409427Y-15640052D01*
X23349070Y-15527132D01*
X23324284Y-15496930D01*
X23288198Y-15452959D01*
X23288196Y-15452957D01*
X23267843Y-15428157D01*
X23243043Y-15407804D01*
X23031000Y-15195761D01*
X23031000Y-15098895D01*
X22995453Y-14920187D01*
X22925725Y-14751848D01*
X22824495Y-14600347D01*
X22695653Y-14471505D01*
X22544152Y-14370275D01*
X22375813Y-14300547D01*
X22197105Y-14265000D01*
X22014895Y-14265000D01*
X21836187Y-14300547D01*
X21667848Y-14370275D01*
X21516347Y-14471505D01*
X21456000Y-14531852D01*
X21345653Y-14421505D01*
X21194152Y-14320275D01*
X21025813Y-14250547D01*
X20847105Y-14215000D01*
X20664895Y-14215000D01*
X20486187Y-14250547D01*
X20449491Y-14265747D01*
X22528045Y-12187194D01*
X22552843Y-12166843D01*
X22634070Y-12067868D01*
X22694427Y-11954948D01*
X22731595Y-11832422D01*
X22741000Y-11736932D01*
X22741000Y-11736922D01*
X22744144Y-11705001D01*
X22741000Y-11673080D01*
X22741000Y-11073895D01*
X23706000Y-11073895D01*
X23706000Y-11256105D01*
X23741547Y-11434813D01*
X23811275Y-11603152D01*
X23912505Y-11754653D01*
X23981000Y-11823148D01*
X23981001Y-14906851D01*
X23912505Y-14975347D01*
X23811275Y-15126848D01*
X23741547Y-15295187D01*
X23706000Y-15473895D01*
X23706000Y-15656105D01*
X23741547Y-15834813D01*
X23811275Y-16003152D01*
X23912505Y-16154653D01*
X24041347Y-16283495D01*
X24192848Y-16384725D01*
X24361187Y-16454453D01*
X24539895Y-16490000D01*
X24722105Y-16490000D01*
X24900813Y-16454453D01*
X25069152Y-16384725D01*
X25220653Y-16283495D01*
X25349495Y-16154653D01*
X25450725Y-16003152D01*
X25520453Y-15834813D01*
X25556000Y-15656105D01*
X25556000Y-15473895D01*
X25520453Y-15295187D01*
X25450725Y-15126848D01*
X25349495Y-14975347D01*
X25281000Y-14906852D01*
X25281000Y-14103404D01*
X32808662Y-14103404D01*
X32890972Y-14330569D01*
X33135989Y-14457135D01*
X33400991Y-14533468D01*
X33675792Y-14556635D01*
X33949833Y-14525746D01*
X34212581Y-14441987D01*
X34421028Y-14330569D01*
X34503338Y-14103404D01*
X33656000Y-13256066D01*
X32808662Y-14103404D01*
X25281000Y-14103404D01*
X25281000Y-11823148D01*
X25349495Y-11754653D01*
X25356027Y-11744876D01*
X29591000Y-11744876D01*
X29591000Y-12055124D01*
X29651526Y-12359411D01*
X29770253Y-12646042D01*
X29942617Y-12904004D01*
X30161996Y-13123383D01*
X30419958Y-13295747D01*
X30706589Y-13414474D01*
X31010876Y-13475000D01*
X31321124Y-13475000D01*
X31625411Y-13414474D01*
X31912042Y-13295747D01*
X32170004Y-13123383D01*
X32260944Y-13032443D01*
X32249365Y-13169792D01*
X32280254Y-13443833D01*
X32364013Y-13706581D01*
X32475431Y-13915028D01*
X32702596Y-13997338D01*
X33549934Y-13150000D01*
X33762066Y-13150000D01*
X34609404Y-13997338D01*
X34836569Y-13915028D01*
X34963135Y-13670011D01*
X35039468Y-13405009D01*
X35062635Y-13130208D01*
X35031746Y-12856167D01*
X34947987Y-12593419D01*
X34836569Y-12384972D01*
X34609404Y-12302662D01*
X33762066Y-13150000D01*
X33549934Y-13150000D01*
X33535792Y-13135858D01*
X33641858Y-13029792D01*
X33656000Y-13043934D01*
X34503338Y-12196596D01*
X34421028Y-11969431D01*
X34176011Y-11842865D01*
X33911009Y-11766532D01*
X33636208Y-11743365D01*
X33362167Y-11774254D01*
X33099419Y-11858013D01*
X32890972Y-11969431D01*
X32808663Y-12196594D01*
X32728755Y-12116686D01*
X32741000Y-12055124D01*
X32741000Y-11744876D01*
X32680474Y-11440589D01*
X32561747Y-11153958D01*
X32389383Y-10895996D01*
X32170004Y-10676617D01*
X31912042Y-10504253D01*
X31625411Y-10385526D01*
X31321124Y-10325000D01*
X31010876Y-10325000D01*
X30706589Y-10385526D01*
X30419958Y-10504253D01*
X30161996Y-10676617D01*
X29942617Y-10895996D01*
X29770253Y-11153958D01*
X29651526Y-11440589D01*
X29591000Y-11744876D01*
X25356027Y-11744876D01*
X25450725Y-11603152D01*
X25520453Y-11434813D01*
X25556000Y-11256105D01*
X25556000Y-11073895D01*
X25520453Y-10895187D01*
X25450725Y-10726848D01*
X25349495Y-10575347D01*
X25220653Y-10446505D01*
X25069152Y-10345275D01*
X24900813Y-10275547D01*
X24722105Y-10240000D01*
X24539895Y-10240000D01*
X24361187Y-10275547D01*
X24192848Y-10345275D01*
X24041347Y-10446505D01*
X23912505Y-10575347D01*
X23811275Y-10726848D01*
X23741547Y-10895187D01*
X23706000Y-11073895D01*
X22741000Y-11073895D01*
X22741000Y-8003148D01*
X22771347Y-8033495D01*
X22922848Y-8134725D01*
X23091187Y-8204453D01*
X23269895Y-8240000D01*
X23452105Y-8240000D01*
X23630813Y-8204453D01*
X23799152Y-8134725D01*
X23950653Y-8033495D01*
X24079495Y-7904653D01*
X24180725Y-7753152D01*
X24250453Y-7584813D01*
X24286000Y-7406105D01*
X24286000Y-7223895D01*
X24250453Y-7045187D01*
X24180725Y-6876848D01*
X24079495Y-6725347D01*
X24011000Y-6656852D01*
X24011000Y-6476920D01*
X24014144Y-6444999D01*
X24011000Y-6413078D01*
X24011000Y-6413068D01*
X24001595Y-6317578D01*
X23964427Y-6195052D01*
X23904070Y-6082132D01*
X23822843Y-5983157D01*
X23798039Y-5962801D01*
X23438200Y-5602962D01*
X23417843Y-5578157D01*
X23318868Y-5496930D01*
X23205948Y-5436573D01*
X23083422Y-5399405D01*
X22987932Y-5390000D01*
X22987921Y-5390000D01*
X22956000Y-5386856D01*
X22924079Y-5390000D01*
X18337924Y-5390000D01*
X18306000Y-5386856D01*
X18274076Y-5390000D01*
X18274068Y-5390000D01*
X18178578Y-5399405D01*
X18056052Y-5436573D01*
X17943132Y-5496930D01*
X17844157Y-5578157D01*
X17823800Y-5602962D01*
X13636762Y-9790000D01*
X12887921Y-9790000D01*
X12856000Y-9786856D01*
X12824079Y-9790000D01*
X12824068Y-9790000D01*
X12728578Y-9799405D01*
X12606052Y-9836573D01*
X12493131Y-9896930D01*
X12418959Y-9957802D01*
X12418957Y-9957804D01*
X12394157Y-9978157D01*
X12373804Y-10002957D01*
X11781762Y-10595000D01*
X11558453Y-10595000D01*
X11630200Y-10487623D01*
X11730081Y-10246488D01*
X11781000Y-9990501D01*
X11781000Y-9729499D01*
X11730081Y-9473512D01*
X11630200Y-9232377D01*
X11485195Y-9015362D01*
X11300638Y-8830805D01*
X11083623Y-8685800D01*
X10842488Y-8585919D01*
X10586501Y-8535000D01*
X10325499Y-8535000D01*
X10069512Y-8585919D01*
X9828377Y-8685800D01*
X9611362Y-8830805D01*
X9426805Y-9015362D01*
X9281800Y-9232377D01*
X9181919Y-9473512D01*
X9131000Y-9729499D01*
X9131000Y-9990501D01*
X9181919Y-10246488D01*
X9281800Y-10487623D01*
X9353547Y-10595000D01*
X8775248Y-10595000D01*
X8645195Y-10400362D01*
X8460638Y-10215805D01*
X8243623Y-10070800D01*
X8002488Y-9970919D01*
X7746501Y-9920000D01*
X7485499Y-9920000D01*
X7229512Y-9970919D01*
X6988377Y-10070800D01*
X6771362Y-10215805D01*
X6586805Y-10400362D01*
X6441800Y-10617377D01*
X6341919Y-10858512D01*
X6291000Y-11114499D01*
X6291000Y-11375501D01*
X6341919Y-11631488D01*
X6441800Y-11872623D01*
X6586805Y-12089638D01*
X6771362Y-12274195D01*
X6988377Y-12419200D01*
X7229512Y-12519081D01*
X7485499Y-12570000D01*
X7746501Y-12570000D01*
X8002488Y-12519081D01*
X8243623Y-12419200D01*
X8460638Y-12274195D01*
X8645195Y-12089638D01*
X8775248Y-11895000D01*
X9353547Y-11895000D01*
X9281800Y-12002377D01*
X9181919Y-12243512D01*
X9131000Y-12499499D01*
X9131000Y-12760501D01*
X9181919Y-13016488D01*
X9281800Y-13257623D01*
X9426805Y-13474638D01*
X9611362Y-13659195D01*
X9828377Y-13804200D01*
X10069512Y-13904081D01*
X10325499Y-13955000D01*
X10586501Y-13955000D01*
X10842488Y-13904081D01*
X11083623Y-13804200D01*
X11300638Y-13659195D01*
X11485195Y-13474638D01*
X11616468Y-13278174D01*
X11693422Y-13270595D01*
X11815948Y-13233427D01*
X11928868Y-13173070D01*
X12027843Y-13091843D01*
X12048200Y-13067038D01*
X13475239Y-11640000D01*
X16197852Y-11640000D01*
X16266347Y-11708495D01*
X16417848Y-11809725D01*
X16586187Y-11879453D01*
X16764895Y-11915000D01*
X16947105Y-11915000D01*
X17125813Y-11879453D01*
X17206000Y-11846239D01*
X17206000Y-12070761D01*
X16718957Y-12557805D01*
X16694158Y-12578157D01*
X16673805Y-12602957D01*
X16673802Y-12602960D01*
X16612930Y-12677132D01*
X16552573Y-12790053D01*
X16515406Y-12912578D01*
X16502856Y-13040000D01*
X16506001Y-13071931D01*
X16506000Y-15220762D01*
X13561762Y-18165000D01*
X13464895Y-18165000D01*
X13286187Y-18200547D01*
X13117848Y-18270275D01*
X12966347Y-18371505D01*
X12837505Y-18500347D01*
X12736275Y-18651848D01*
X12706000Y-18724939D01*
X12706000Y-15871921D01*
X12709144Y-15840000D01*
X12706000Y-15808078D01*
X12706000Y-15808068D01*
X12696595Y-15712578D01*
X12659427Y-15590052D01*
X12639552Y-15552868D01*
X12599070Y-15477131D01*
X12538198Y-15402959D01*
X12538196Y-15402957D01*
X12517843Y-15378157D01*
X12493044Y-15357805D01*
X12098200Y-14962962D01*
X12077843Y-14938157D01*
X11978868Y-14856930D01*
X11865948Y-14796573D01*
X11743422Y-14759405D01*
X11647932Y-14750000D01*
X11647921Y-14750000D01*
X11616000Y-14746856D01*
X11613324Y-14747120D01*
X11485195Y-14555362D01*
X11300638Y-14370805D01*
X11083623Y-14225800D01*
X10842488Y-14125919D01*
X10586501Y-14075000D01*
X10325499Y-14075000D01*
X10069512Y-14125919D01*
X9828377Y-14225800D01*
X9611362Y-14370805D01*
X9426805Y-14555362D01*
X9281800Y-14772377D01*
X9181919Y-15013512D01*
X9131000Y-15269499D01*
X9131000Y-15530501D01*
X9181919Y-15786488D01*
X9281800Y-16027623D01*
X9426805Y-16244638D01*
X9611362Y-16429195D01*
X9828377Y-16574200D01*
X10069512Y-16674081D01*
X10325499Y-16725000D01*
X10586501Y-16725000D01*
X10842488Y-16674081D01*
X11083623Y-16574200D01*
X11300638Y-16429195D01*
X11406000Y-16323833D01*
X11406000Y-17246167D01*
X11300638Y-17140805D01*
X11083623Y-16995800D01*
X10842488Y-16895919D01*
X10586501Y-16845000D01*
X10325499Y-16845000D01*
X10069512Y-16895919D01*
X9828377Y-16995800D01*
X9611362Y-17140805D01*
X9426805Y-17325362D01*
X9281800Y-17542377D01*
X9181919Y-17783512D01*
X9131000Y-18039499D01*
X9131000Y-18300501D01*
X9181919Y-18556488D01*
X9281800Y-18797623D01*
X9426805Y-19014638D01*
X9611362Y-19199195D01*
X9828377Y-19344200D01*
X10069512Y-19444081D01*
X10325499Y-19495000D01*
X10586501Y-19495000D01*
X10842488Y-19444081D01*
X11083623Y-19344200D01*
X11300638Y-19199195D01*
X11406001Y-19093832D01*
X11406001Y-19636879D01*
X11358918Y-19622597D01*
X11256000Y-19612460D01*
X9656000Y-19612460D01*
X9553082Y-19622597D01*
X9454119Y-19652617D01*
X9362914Y-19701367D01*
X9282973Y-19766973D01*
X9217367Y-19846914D01*
X9168617Y-19938119D01*
X9138597Y-20037082D01*
X9128460Y-20140000D01*
X9128460Y-21740000D01*
X9138597Y-21842918D01*
X9168617Y-21941881D01*
X9217367Y-22033086D01*
X9282973Y-22113027D01*
X9362914Y-22178633D01*
X9454119Y-22227383D01*
X9553082Y-22257403D01*
X9656000Y-22267540D01*
X11256000Y-22267540D01*
X11358918Y-22257403D01*
X11457881Y-22227383D01*
X11549086Y-22178633D01*
X11629027Y-22113027D01*
X11694633Y-22033086D01*
X11743383Y-21941881D01*
X11773403Y-21842918D01*
X11783540Y-21740000D01*
X11783540Y-20486778D01*
X12573804Y-21277043D01*
X12594157Y-21301843D01*
X12618957Y-21322196D01*
X12618960Y-21322199D01*
X12643602Y-21342422D01*
X12693132Y-21383070D01*
X12806052Y-21443427D01*
X12928578Y-21480595D01*
X13024068Y-21490000D01*
X13024076Y-21490000D01*
X13056000Y-21493144D01*
X13087924Y-21490000D01*
X15942715Y-21490000D01*
X15966547Y-21609813D01*
X16036275Y-21778152D01*
X16137505Y-21929653D01*
X16206001Y-21998149D01*
X16206000Y-23170761D01*
X11928456Y-27448305D01*
X11848594Y-27046809D01*
X11628102Y-26514493D01*
X11307996Y-26035421D01*
X10900579Y-25628004D01*
X10421507Y-25307898D01*
X9889191Y-25087406D01*
X9324087Y-24975000D01*
X8747913Y-24975000D01*
X8182809Y-25087406D01*
X7650493Y-25307898D01*
X7171421Y-25628004D01*
X6764004Y-26035421D01*
X6443898Y-26514493D01*
X6223406Y-27046809D01*
X6111000Y-27611913D01*
X600000Y-27611913D01*
X600000Y-8240000D01*
X4452856Y-8240000D01*
X4456001Y-8271932D01*
X4456000Y-18958078D01*
X4452856Y-18990000D01*
X4456000Y-19021921D01*
X4456000Y-19021931D01*
X4465405Y-19117421D01*
X4495740Y-19217422D01*
X4502573Y-19239947D01*
X4562930Y-19352868D01*
X4608014Y-19407802D01*
X4644157Y-19451843D01*
X4668962Y-19472200D01*
X5188800Y-19992038D01*
X5209157Y-20016843D01*
X5308132Y-20098070D01*
X5421052Y-20158427D01*
X5543578Y-20195595D01*
X5639068Y-20205000D01*
X5639076Y-20205000D01*
X5671000Y-20208144D01*
X5702924Y-20205000D01*
X6456752Y-20205000D01*
X6586805Y-20399638D01*
X6771362Y-20584195D01*
X6988377Y-20729200D01*
X7229512Y-20829081D01*
X7485499Y-20880000D01*
X7746501Y-20880000D01*
X8002488Y-20829081D01*
X8243623Y-20729200D01*
X8460638Y-20584195D01*
X8645195Y-20399638D01*
X8790200Y-20182623D01*
X8890081Y-19941488D01*
X8941000Y-19685501D01*
X8941000Y-19424499D01*
X8890081Y-19168512D01*
X8790200Y-18927377D01*
X8645195Y-18710362D01*
X8460638Y-18525805D01*
X8243623Y-18380800D01*
X8002488Y-18280919D01*
X7746501Y-18230000D01*
X7485499Y-18230000D01*
X7229512Y-18280919D01*
X6988377Y-18380800D01*
X6771362Y-18525805D01*
X6586805Y-18710362D01*
X6456752Y-18905000D01*
X5940238Y-18905000D01*
X5756000Y-18720762D01*
X5756000Y-16654499D01*
X6291000Y-16654499D01*
X6291000Y-16915501D01*
X6341919Y-17171488D01*
X6441800Y-17412623D01*
X6586805Y-17629638D01*
X6771362Y-17814195D01*
X6988377Y-17959200D01*
X7229512Y-18059081D01*
X7485499Y-18110000D01*
X7746501Y-18110000D01*
X8002488Y-18059081D01*
X8243623Y-17959200D01*
X8460638Y-17814195D01*
X8645195Y-17629638D01*
X8790200Y-17412623D01*
X8890081Y-17171488D01*
X8941000Y-16915501D01*
X8941000Y-16654499D01*
X8890081Y-16398512D01*
X8790200Y-16157377D01*
X8645195Y-15940362D01*
X8460638Y-15755805D01*
X8243623Y-15610800D01*
X8002488Y-15510919D01*
X7746501Y-15460000D01*
X7485499Y-15460000D01*
X7229512Y-15510919D01*
X6988377Y-15610800D01*
X6771362Y-15755805D01*
X6586805Y-15940362D01*
X6441800Y-16157377D01*
X6341919Y-16398512D01*
X6291000Y-16654499D01*
X5756000Y-16654499D01*
X5756000Y-14915016D01*
X6822050Y-14915016D01*
X6895334Y-15134508D01*
X7127586Y-15253592D01*
X7378608Y-15325077D01*
X7638753Y-15346217D01*
X7898023Y-15316199D01*
X8146455Y-15236177D01*
X8336666Y-15134508D01*
X8409950Y-14915016D01*
X7616000Y-14121066D01*
X6822050Y-14915016D01*
X5756000Y-14915016D01*
X5756000Y-14037753D01*
X6284783Y-14037753D01*
X6314801Y-14297023D01*
X6394823Y-14545455D01*
X6496492Y-14735666D01*
X6715984Y-14808950D01*
X7509934Y-14015000D01*
X7722066Y-14015000D01*
X8516016Y-14808950D01*
X8735508Y-14735666D01*
X8854592Y-14503414D01*
X8926077Y-14252392D01*
X8947217Y-13992247D01*
X8917199Y-13732977D01*
X8837177Y-13484545D01*
X8735508Y-13294334D01*
X8516016Y-13221050D01*
X7722066Y-14015000D01*
X7509934Y-14015000D01*
X6715984Y-13221050D01*
X6496492Y-13294334D01*
X6377408Y-13526586D01*
X6305923Y-13777608D01*
X6284783Y-14037753D01*
X5756000Y-14037753D01*
X5756000Y-13114984D01*
X6822050Y-13114984D01*
X7616000Y-13908934D01*
X8409950Y-13114984D01*
X8336666Y-12895492D01*
X8104414Y-12776408D01*
X7853392Y-12704923D01*
X7593247Y-12683783D01*
X7333977Y-12713801D01*
X7085545Y-12793823D01*
X6895334Y-12895492D01*
X6822050Y-13114984D01*
X5756000Y-13114984D01*
X5756000Y-8509238D01*
X6375239Y-7890000D01*
X13274079Y-7890000D01*
X13306000Y-7893144D01*
X13337921Y-7890000D01*
X13337932Y-7890000D01*
X13433422Y-7880595D01*
X13555948Y-7843427D01*
X13668868Y-7783070D01*
X13767843Y-7701843D01*
X13788200Y-7677038D01*
X17375239Y-4090000D01*
X23306762Y-4090000D01*
X24976000Y-5759239D01*
X24976000Y-5856105D01*
X25011547Y-6034813D01*
X25081275Y-6203152D01*
X25182505Y-6354653D01*
X25311347Y-6483495D01*
X25462848Y-6584725D01*
X25631187Y-6654453D01*
X25809895Y-6690000D01*
X25992105Y-6690000D01*
X26170813Y-6654453D01*
X26339152Y-6584725D01*
X26490653Y-6483495D01*
X26619495Y-6354653D01*
X26720725Y-6203152D01*
X26790453Y-6034813D01*
X26826000Y-5856105D01*
X26826000Y-5673895D01*
X26790453Y-5495187D01*
X26720725Y-5326848D01*
X26619495Y-5175347D01*
X26490653Y-5046505D01*
X26339152Y-4945275D01*
X26170813Y-4875547D01*
X25992105Y-4840000D01*
X25895239Y-4840000D01*
X24058200Y-3002962D01*
X24037843Y-2978157D01*
X23938868Y-2896930D01*
X23825948Y-2836573D01*
X23703422Y-2799405D01*
X23607932Y-2790000D01*
X23607921Y-2790000D01*
X23576000Y-2786856D01*
X23544079Y-2790000D01*
X17137924Y-2790000D01*
X17106000Y-2786856D01*
X17074076Y-2790000D01*
X17074068Y-2790000D01*
X16978578Y-2799405D01*
X16856052Y-2836573D01*
X16743132Y-2896930D01*
X16668960Y-2957801D01*
X16668957Y-2957804D01*
X16644157Y-2978157D01*
X16623804Y-3002957D01*
X13036762Y-6590000D01*
X6137924Y-6590000D01*
X6106000Y-6586856D01*
X6074076Y-6590000D01*
X6074068Y-6590000D01*
X5978578Y-6599405D01*
X5856052Y-6636573D01*
X5743132Y-6696930D01*
X5668960Y-6757801D01*
X5668957Y-6757804D01*
X5644157Y-6778157D01*
X5623804Y-6802957D01*
X4668957Y-7757805D01*
X4644158Y-7778157D01*
X4623805Y-7802957D01*
X4623802Y-7802960D01*
X4562930Y-7877132D01*
X4502573Y-7990053D01*
X4465406Y-8112578D01*
X4452856Y-8240000D01*
X600000Y-8240000D01*
X600000Y-3831561D01*
X2455000Y-3831561D01*
X2455000Y-4048439D01*
X2497311Y-4261150D01*
X2580307Y-4461519D01*
X2700798Y-4641846D01*
X2854154Y-4795202D01*
X3034481Y-4915693D01*
X3234850Y-4998689D01*
X3447561Y-5041000D01*
X3664439Y-5041000D01*
X3877150Y-4998689D01*
X4077519Y-4915693D01*
X4257846Y-4795202D01*
X4411202Y-4641846D01*
X4531693Y-4461519D01*
X4614689Y-4261150D01*
X4657000Y-4048439D01*
X4657000Y-3831561D01*
X4614689Y-3618850D01*
X4531693Y-3418481D01*
X4411202Y-3238154D01*
X4257846Y-3084798D01*
X4077519Y-2964307D01*
X3877150Y-2881311D01*
X3664439Y-2839000D01*
X3447561Y-2839000D01*
X3234850Y-2881311D01*
X3034481Y-2964307D01*
X2854154Y-3084798D01*
X2700798Y-3238154D01*
X2580307Y-3418481D01*
X2497311Y-3618850D01*
X2455000Y-3831561D01*
X600000Y-3831561D01*
X600000Y-600000D01*
X7213332Y-600000D01*
X7171421Y-628004D01*
G37*
%TD.AperFunction*%
%TD*%
M02*
